{
	"asset":{
		"generator":"Khronos glTF Blender I/O v5.1.20",
		"version":"2.0"
	},
	"scene":0,
	"scenes":[
		{
			"name":"Scene",
			"nodes":[
				0
			]
		}
	],
	"nodes":[
		{
			"mesh":0,
			"name":"res_shrine"
		}
	],
	"materials":[
		{
			"doubleSided":true,
			"emissiveFactor":[
				1,
				1,
				1
			],
			"emissiveTexture":{
				"index":0
			},
			"name":"forge_mat",
			"pbrMetallicRoughness":{
				"baseColorTexture":{
					"index":1
				},
				"metallicFactor":0,
				"roughnessFactor":0.8999999761581421
			}
		}
	],
	"meshes":[
		{
			"name":"Mesh",
			"primitives":[
				{
					"attributes":{
						"POSITION":0,
						"NORMAL":1,
						"TEXCOORD_0":2,
						"TEXCOORD_1":3
					},
					"indices":4,
					"material":0
				}
			]
		}
	],
	"textures":[
		{
			"sampler":0,
			"source":0
		},
		{
			"sampler":0,
			"source":1
		}
	],
	"images":[
		{
			"mimeType":"image/png",
			"name":"Dungeons_2_Texture_Emission_01",
			"uri":"Dungeons_2_Texture_Emission_01.png"
		},
		{
			"mimeType":"image/png",
			"name":"Dungeons_2_Texture_01_A",
			"uri":"Dungeons_2_Texture_01_A.png"
		}
	],
	"accessors":[
		{
			"bufferView":0,
			"componentType":5126,
			"count":3021,
			"max":[
				3.9175145626068115,
				9.826122283935547,
				3.9462621212005615
			],
			"min":[
				-3.9175145626068115,
				0,
				-3.9462621212005615
			],
			"type":"VEC3"
		},
		{
			"bufferView":1,
			"componentType":5126,
			"count":3021,
			"type":"VEC3"
		},
		{
			"bufferView":2,
			"componentType":5126,
			"count":3021,
			"type":"VEC2"
		},
		{
			"bufferView":3,
			"componentType":5126,
			"count":3021,
			"type":"VEC2"
		},
		{
			"bufferView":4,
			"componentType":5123,
			"count":4524,
			"type":"SCALAR"
		}
	],
	"bufferViews":[
		{
			"buffer":0,
			"byteLength":36252,
			"byteOffset":0,
			"target":34962
		},
		{
			"buffer":0,
			"byteLength":36252,
			"byteOffset":36252,
			"target":34962
		},
		{
			"buffer":0,
			"byteLength":24168,
			"byteOffset":72504,
			"target":34962
		},
		{
			"buffer":0,
			"byteLength":24168,
			"byteOffset":96672,
			"target":34962
		},
		{
			"buffer":0,
			"byteLength":9048,
			"byteOffset":120840,
			"target":34963
		}
	],
	"samplers":[
		{
			"magFilter":9729,
			"minFilter":9987
		}
	],
	"buffers":[
		{
			"byteLength":129888,
			"uri":"res_shrine.bin"
		}
	]
}
