{
	"asset":{
		"generator":"Khronos glTF Blender I/O v5.1.20",
		"version":"2.0"
	},
	"scene":0,
	"scenes":[
		{
			"name":"Scene",
			"nodes":[
				0
			]
		}
	],
	"nodes":[
		{
			"mesh":0,
			"name":"res_ore_pile"
		}
	],
	"materials":[
		{
			"doubleSided":true,
			"emissiveFactor":[
				1,
				1,
				1
			],
			"emissiveTexture":{
				"index":0
			},
			"name":"forge_mat",
			"pbrMetallicRoughness":{
				"baseColorTexture":{
					"index":1
				},
				"metallicFactor":0,
				"roughnessFactor":0.8999999761581421
			}
		}
	],
	"meshes":[
		{
			"name":"Mesh",
			"primitives":[
				{
					"attributes":{
						"POSITION":0,
						"NORMAL":1,
						"TEXCOORD_0":2,
						"TEXCOORD_1":3
					},
					"indices":4,
					"material":0
				}
			]
		}
	],
	"textures":[
		{
			"sampler":0,
			"source":0
		},
		{
			"sampler":0,
			"source":1
		}
	],
	"images":[
		{
			"mimeType":"image/png",
			"name":"Dungeons_2_Texture_Emission_01",
			"uri":"Dungeons_2_Texture_Emission_01.png"
		},
		{
			"mimeType":"image/png",
			"name":"Dungeons_2_Texture_01_A",
			"uri":"Dungeons_2_Texture_01_A.png"
		}
	],
	"accessors":[
		{
			"bufferView":0,
			"componentType":5126,
			"count":3895,
			"max":[
				2.686953544616699,
				0.9171856045722961,
				2.653446912765503
			],
			"min":[
				-2.686953544616699,
				0,
				-2.653446912765503
			],
			"type":"VEC3"
		},
		{
			"bufferView":1,
			"componentType":5126,
			"count":3895,
			"type":"VEC3"
		},
		{
			"bufferView":2,
			"componentType":5126,
			"count":3895,
			"type":"VEC2"
		},
		{
			"bufferView":3,
			"componentType":5126,
			"count":3895,
			"type":"VEC2"
		},
		{
			"bufferView":4,
			"componentType":5123,
			"count":4197,
			"type":"SCALAR"
		}
	],
	"bufferViews":[
		{
			"buffer":0,
			"byteLength":46740,
			"byteOffset":0,
			"target":34962
		},
		{
			"buffer":0,
			"byteLength":46740,
			"byteOffset":46740,
			"target":34962
		},
		{
			"buffer":0,
			"byteLength":31160,
			"byteOffset":93480,
			"target":34962
		},
		{
			"buffer":0,
			"byteLength":31160,
			"byteOffset":124640,
			"target":34962
		},
		{
			"buffer":0,
			"byteLength":8394,
			"byteOffset":155800,
			"target":34963
		}
	],
	"samplers":[
		{
			"magFilter":9729,
			"minFilter":9987
		}
	],
	"buffers":[
		{
			"byteLength":164196,
			"uri":"res_ore_pile.bin"
		}
	]
}
