{
	"asset":{
		"generator":"Khronos glTF Blender I/O v5.1.20",
		"version":"2.0"
	},
	"scene":0,
	"scenes":[
		{
			"name":"Scene",
			"nodes":[
				0
			]
		}
	],
	"nodes":[
		{
			"mesh":0,
			"name":"bld_tent_round"
		}
	],
	"materials":[
		{
			"doubleSided":true,
			"emissiveFactor":[
				1,
				1,
				1
			],
			"emissiveTexture":{
				"index":0
			},
			"name":"knights_mat",
			"pbrMetallicRoughness":{
				"baseColorTexture":{
					"index":1
				},
				"metallicFactor":0,
				"roughnessFactor":0.8999999761581421
			}
		}
	],
	"meshes":[
		{
			"name":"Mesh",
			"primitives":[
				{
					"attributes":{
						"POSITION":0,
						"NORMAL":1,
						"TEXCOORD_0":2,
						"TEXCOORD_1":3
					},
					"indices":4,
					"material":0
				}
			]
		}
	],
	"textures":[
		{
			"sampler":0,
			"source":0
		},
		{
			"sampler":0,
			"source":1
		}
	],
	"images":[
		{
			"mimeType":"image/png",
			"name":"PolygonFantasyKingdom_Texture_Emmisive",
			"uri":"PolygonFantasyKingdom_Texture_Emmisive.png"
		},
		{
			"mimeType":"image/png",
			"name":"PolygonFantasyKingdom_Texture_01_A",
			"uri":"PolygonFantasyKingdom_Texture_01_A.png"
		}
	],
	"accessors":[
		{
			"bufferView":0,
			"componentType":5126,
			"count":3960,
			"max":[
				2.6774826049804688,
				4.7202887535095215,
				3.875282049179077
			],
			"min":[
				-2.6774826049804688,
				0,
				-3.875282049179077
			],
			"type":"VEC3"
		},
		{
			"bufferView":1,
			"componentType":5126,
			"count":3960,
			"type":"VEC3"
		},
		{
			"bufferView":2,
			"componentType":5126,
			"count":3960,
			"type":"VEC2"
		},
		{
			"bufferView":3,
			"componentType":5126,
			"count":3960,
			"type":"VEC2"
		},
		{
			"bufferView":4,
			"componentType":5123,
			"count":6048,
			"type":"SCALAR"
		}
	],
	"bufferViews":[
		{
			"buffer":0,
			"byteLength":47520,
			"byteOffset":0,
			"target":34962
		},
		{
			"buffer":0,
			"byteLength":47520,
			"byteOffset":47520,
			"target":34962
		},
		{
			"buffer":0,
			"byteLength":31680,
			"byteOffset":95040,
			"target":34962
		},
		{
			"buffer":0,
			"byteLength":31680,
			"byteOffset":126720,
			"target":34962
		},
		{
			"buffer":0,
			"byteLength":12096,
			"byteOffset":158400,
			"target":34963
		}
	],
	"samplers":[
		{
			"magFilter":9729,
			"minFilter":9987
		}
	],
	"buffers":[
		{
			"byteLength":170496,
			"uri":"bld_tent_round.bin"
		}
	]
}
