{
	"asset":{
		"generator":"Khronos glTF Blender I/O v5.1.20",
		"version":"2.0"
	},
	"scene":0,
	"scenes":[
		{
			"name":"Scene",
			"nodes":[
				0
			]
		}
	],
	"nodes":[
		{
			"mesh":0,
			"name":"bld_shelter"
		}
	],
	"materials":[
		{
			"doubleSided":true,
			"emissiveFactor":[
				1,
				1,
				1
			],
			"emissiveTexture":{
				"index":0
			},
			"name":"knights_mat",
			"pbrMetallicRoughness":{
				"baseColorTexture":{
					"index":1
				},
				"metallicFactor":0,
				"roughnessFactor":0.8999999761581421
			}
		}
	],
	"meshes":[
		{
			"name":"Mesh",
			"primitives":[
				{
					"attributes":{
						"POSITION":0,
						"NORMAL":1,
						"TEXCOORD_0":2,
						"TEXCOORD_1":3
					},
					"indices":4,
					"material":0
				}
			]
		}
	],
	"textures":[
		{
			"sampler":0,
			"source":0
		},
		{
			"sampler":0,
			"source":1
		}
	],
	"images":[
		{
			"mimeType":"image/png",
			"name":"PolygonFantasyKingdom_Texture_Emmisive",
			"uri":"PolygonFantasyKingdom_Texture_Emmisive.png"
		},
		{
			"mimeType":"image/png",
			"name":"PolygonFantasyKingdom_Texture_01_A",
			"uri":"PolygonFantasyKingdom_Texture_01_A.png"
		}
	],
	"accessors":[
		{
			"bufferView":0,
			"componentType":5126,
			"count":10380,
			"max":[
				4.242666721343994,
				8.805987358093262,
				3.389742374420166
			],
			"min":[
				-4.242666721343994,
				0,
				-3.389742136001587
			],
			"type":"VEC3"
		},
		{
			"bufferView":1,
			"componentType":5126,
			"count":10380,
			"type":"VEC3"
		},
		{
			"bufferView":2,
			"componentType":5126,
			"count":10380,
			"type":"VEC2"
		},
		{
			"bufferView":3,
			"componentType":5126,
			"count":10380,
			"type":"VEC2"
		},
		{
			"bufferView":4,
			"componentType":5123,
			"count":15078,
			"type":"SCALAR"
		}
	],
	"bufferViews":[
		{
			"buffer":0,
			"byteLength":124560,
			"byteOffset":0,
			"target":34962
		},
		{
			"buffer":0,
			"byteLength":124560,
			"byteOffset":124560,
			"target":34962
		},
		{
			"buffer":0,
			"byteLength":83040,
			"byteOffset":249120,
			"target":34962
		},
		{
			"buffer":0,
			"byteLength":83040,
			"byteOffset":332160,
			"target":34962
		},
		{
			"buffer":0,
			"byteLength":30156,
			"byteOffset":415200,
			"target":34963
		}
	],
	"samplers":[
		{
			"magFilter":9729,
			"minFilter":9987
		}
	],
	"buffers":[
		{
			"byteLength":445356,
			"uri":"bld_shelter.bin"
		}
	]
}
