{
	"asset":{
		"generator":"Khronos glTF Blender I/O v5.1.20",
		"version":"2.0"
	},
	"scene":0,
	"scenes":[
		{
			"name":"Scene",
			"nodes":[
				0
			]
		}
	],
	"nodes":[
		{
			"mesh":0,
			"name":"bld_house_ruin"
		}
	],
	"materials":[
		{
			"doubleSided":true,
			"emissiveFactor":[
				1,
				1,
				1
			],
			"emissiveTexture":{
				"index":0
			},
			"name":"knights_mat",
			"pbrMetallicRoughness":{
				"baseColorTexture":{
					"index":1
				},
				"metallicFactor":0,
				"roughnessFactor":0.8999999761581421
			}
		}
	],
	"meshes":[
		{
			"name":"Mesh",
			"primitives":[
				{
					"attributes":{
						"POSITION":0,
						"NORMAL":1,
						"TEXCOORD_0":2,
						"TEXCOORD_1":3
					},
					"indices":4,
					"material":0
				}
			]
		}
	],
	"textures":[
		{
			"sampler":0,
			"source":0
		},
		{
			"sampler":0,
			"source":1
		}
	],
	"images":[
		{
			"mimeType":"image/png",
			"name":"PolygonFantasyKingdom_Texture_Emmisive",
			"uri":"PolygonFantasyKingdom_Texture_Emmisive.png"
		},
		{
			"mimeType":"image/png",
			"name":"PolygonFantasyKingdom_Texture_01_A",
			"uri":"PolygonFantasyKingdom_Texture_01_A.png"
		}
	],
	"accessors":[
		{
			"bufferView":0,
			"componentType":5126,
			"count":10548,
			"max":[
				4.189738750457764,
				4.254181861877441,
				4.179067134857178
			],
			"min":[
				-4.189738750457764,
				0,
				-4.179067134857178
			],
			"type":"VEC3"
		},
		{
			"bufferView":1,
			"componentType":5126,
			"count":10548,
			"type":"VEC3"
		},
		{
			"bufferView":2,
			"componentType":5126,
			"count":10548,
			"type":"VEC2"
		},
		{
			"bufferView":3,
			"componentType":5126,
			"count":10548,
			"type":"VEC2"
		},
		{
			"bufferView":4,
			"componentType":5123,
			"count":14808,
			"type":"SCALAR"
		}
	],
	"bufferViews":[
		{
			"buffer":0,
			"byteLength":126576,
			"byteOffset":0,
			"target":34962
		},
		{
			"buffer":0,
			"byteLength":126576,
			"byteOffset":126576,
			"target":34962
		},
		{
			"buffer":0,
			"byteLength":84384,
			"byteOffset":253152,
			"target":34962
		},
		{
			"buffer":0,
			"byteLength":84384,
			"byteOffset":337536,
			"target":34962
		},
		{
			"buffer":0,
			"byteLength":29616,
			"byteOffset":421920,
			"target":34963
		}
	],
	"samplers":[
		{
			"magFilter":9729,
			"minFilter":9987
		}
	],
	"buffers":[
		{
			"byteLength":451536,
			"uri":"bld_house_ruin.bin"
		}
	]
}
