{
	"asset":{
		"generator":"Khronos glTF Blender I/O v5.1.20",
		"version":"2.0"
	},
	"scene":0,
	"scenes":[
		{
			"name":"Scene",
			"nodes":[
				0
			]
		}
	],
	"nodes":[
		{
			"mesh":0,
			"name":"bld_hut2"
		}
	],
	"materials":[
		{
			"doubleSided":true,
			"emissiveFactor":[
				1,
				1,
				1
			],
			"emissiveTexture":{
				"index":0
			},
			"name":"knights_mat",
			"pbrMetallicRoughness":{
				"baseColorTexture":{
					"index":1
				},
				"metallicFactor":0,
				"roughnessFactor":0.8999999761581421
			}
		}
	],
	"meshes":[
		{
			"name":"Mesh",
			"primitives":[
				{
					"attributes":{
						"POSITION":0,
						"NORMAL":1,
						"TEXCOORD_0":2,
						"TEXCOORD_1":3
					},
					"indices":4,
					"material":0
				}
			]
		}
	],
	"textures":[
		{
			"sampler":0,
			"source":0
		},
		{
			"sampler":0,
			"source":1
		}
	],
	"images":[
		{
			"mimeType":"image/png",
			"name":"PolygonFantasyKingdom_Texture_Emmisive",
			"uri":"PolygonFantasyKingdom_Texture_Emmisive.png"
		},
		{
			"mimeType":"image/png",
			"name":"PolygonFantasyKingdom_Texture_01_A",
			"uri":"PolygonFantasyKingdom_Texture_01_A.png"
		}
	],
	"accessors":[
		{
			"bufferView":0,
			"componentType":5126,
			"count":11557,
			"max":[
				1.7426586151123047,
				9.238670349121094,
				3.3897507190704346
			],
			"min":[
				-1.7426584959030151,
				0,
				-3.3897509574890137
			],
			"type":"VEC3"
		},
		{
			"bufferView":1,
			"componentType":5126,
			"count":11557,
			"type":"VEC3"
		},
		{
			"bufferView":2,
			"componentType":5126,
			"count":11557,
			"type":"VEC2"
		},
		{
			"bufferView":3,
			"componentType":5126,
			"count":11557,
			"type":"VEC2"
		},
		{
			"bufferView":4,
			"componentType":5123,
			"count":16692,
			"type":"SCALAR"
		}
	],
	"bufferViews":[
		{
			"buffer":0,
			"byteLength":138684,
			"byteOffset":0,
			"target":34962
		},
		{
			"buffer":0,
			"byteLength":138684,
			"byteOffset":138684,
			"target":34962
		},
		{
			"buffer":0,
			"byteLength":92456,
			"byteOffset":277368,
			"target":34962
		},
		{
			"buffer":0,
			"byteLength":92456,
			"byteOffset":369824,
			"target":34962
		},
		{
			"buffer":0,
			"byteLength":33384,
			"byteOffset":462280,
			"target":34963
		}
	],
	"samplers":[
		{
			"magFilter":9729,
			"minFilter":9987
		}
	],
	"buffers":[
		{
			"byteLength":495664,
			"uri":"bld_hut2.bin"
		}
	]
}
