{
	"asset":{
		"generator":"Khronos glTF Blender I/O v5.1.20",
		"version":"2.0"
	},
	"scene":0,
	"scenes":[
		{
			"name":"Scene",
			"nodes":[
				0
			]
		}
	],
	"nodes":[
		{
			"mesh":0,
			"name":"bld_tent_open"
		}
	],
	"materials":[
		{
			"doubleSided":true,
			"emissiveFactor":[
				1,
				1,
				1
			],
			"emissiveTexture":{
				"index":0
			},
			"name":"knights_mat",
			"pbrMetallicRoughness":{
				"baseColorTexture":{
					"index":1
				},
				"metallicFactor":0,
				"roughnessFactor":0.8999999761581421
			}
		}
	],
	"meshes":[
		{
			"name":"Mesh",
			"primitives":[
				{
					"attributes":{
						"POSITION":0,
						"NORMAL":1,
						"TEXCOORD_0":2,
						"TEXCOORD_1":3
					},
					"indices":4,
					"material":0
				}
			]
		}
	],
	"textures":[
		{
			"sampler":0,
			"source":0
		},
		{
			"sampler":0,
			"source":1
		}
	],
	"images":[
		{
			"mimeType":"image/png",
			"name":"PolygonFantasyKingdom_Texture_Emmisive",
			"uri":"PolygonFantasyKingdom_Texture_Emmisive.png"
		},
		{
			"mimeType":"image/png",
			"name":"PolygonFantasyKingdom_Texture_01_A",
			"uri":"PolygonFantasyKingdom_Texture_01_A.png"
		}
	],
	"accessors":[
		{
			"bufferView":0,
			"componentType":5126,
			"count":2984,
			"max":[
				1.600663661956787,
				4.144652843475342,
				1.6006619930267334
			],
			"min":[
				-1.6006628274917603,
				-1.171854435710884e-07,
				-1.6006624698638916
			],
			"type":"VEC3"
		},
		{
			"bufferView":1,
			"componentType":5126,
			"count":2984,
			"type":"VEC3"
		},
		{
			"bufferView":2,
			"componentType":5126,
			"count":2984,
			"type":"VEC2"
		},
		{
			"bufferView":3,
			"componentType":5126,
			"count":2984,
			"type":"VEC2"
		},
		{
			"bufferView":4,
			"componentType":5123,
			"count":4584,
			"type":"SCALAR"
		}
	],
	"bufferViews":[
		{
			"buffer":0,
			"byteLength":35808,
			"byteOffset":0,
			"target":34962
		},
		{
			"buffer":0,
			"byteLength":35808,
			"byteOffset":35808,
			"target":34962
		},
		{
			"buffer":0,
			"byteLength":23872,
			"byteOffset":71616,
			"target":34962
		},
		{
			"buffer":0,
			"byteLength":23872,
			"byteOffset":95488,
			"target":34962
		},
		{
			"buffer":0,
			"byteLength":9168,
			"byteOffset":119360,
			"target":34963
		}
	],
	"samplers":[
		{
			"magFilter":9729,
			"minFilter":9987
		}
	],
	"buffers":[
		{
			"byteLength":128528,
			"uri":"bld_tent_open.bin"
		}
	]
}
