{
	"asset":{
		"generator":"Khronos glTF Blender I/O v5.1.20",
		"version":"2.0"
	},
	"scene":0,
	"scenes":[
		{
			"name":"Scene",
			"nodes":[
				0
			]
		}
	],
	"nodes":[
		{
			"mesh":0,
			"name":"castle_cage"
		}
	],
	"materials":[
		{
			"doubleSided":true,
			"name":"castle_tiling_mat",
			"pbrMetallicRoughness":{
				"baseColorTexture":{
					"index":0
				},
				"metallicFactor":0,
				"roughnessFactor":0.8999999761581421
			}
		}
	],
	"meshes":[
		{
			"name":"Mesh",
			"primitives":[
				{
					"attributes":{
						"POSITION":0,
						"NORMAL":1,
						"TEXCOORD_0":2,
						"TEXCOORD_1":3
					},
					"indices":4,
					"material":0
				}
			]
		}
	],
	"textures":[
		{
			"sampler":0,
			"source":0
		}
	],
	"images":[
		{
			"mimeType":"image/png",
			"name":"PolygonFantasyKingdon_Texture_Wall_Large_Brick_01",
			"uri":"PolygonFantasyKingdon_Texture_Wall_Large_Brick_01.png"
		}
	],
	"accessors":[
		{
			"bufferView":0,
			"componentType":5126,
			"count":1236,
			"max":[
				0.452462762594223,
				2.2416417598724365,
				0.4524625241756439
			],
			"min":[
				-0.452462762594223,
				-2.1591677779042584e-08,
				-0.45246273279190063
			],
			"type":"VEC3"
		},
		{
			"bufferView":1,
			"componentType":5126,
			"count":1236,
			"type":"VEC3"
		},
		{
			"bufferView":2,
			"componentType":5126,
			"count":1236,
			"type":"VEC2"
		},
		{
			"bufferView":3,
			"componentType":5126,
			"count":1236,
			"type":"VEC2"
		},
		{
			"bufferView":4,
			"componentType":5123,
			"count":2184,
			"type":"SCALAR"
		}
	],
	"bufferViews":[
		{
			"buffer":0,
			"byteLength":14832,
			"byteOffset":0,
			"target":34962
		},
		{
			"buffer":0,
			"byteLength":14832,
			"byteOffset":14832,
			"target":34962
		},
		{
			"buffer":0,
			"byteLength":9888,
			"byteOffset":29664,
			"target":34962
		},
		{
			"buffer":0,
			"byteLength":9888,
			"byteOffset":39552,
			"target":34962
		},
		{
			"buffer":0,
			"byteLength":4368,
			"byteOffset":49440,
			"target":34963
		}
	],
	"samplers":[
		{
			"magFilter":9729,
			"minFilter":9987
		}
	],
	"buffers":[
		{
			"byteLength":53808,
			"uri":"castle_cage.bin"
		}
	]
}
