{
	"asset":{
		"generator":"Khronos glTF Blender I/O v5.1.20",
		"version":"2.0"
	},
	"scene":0,
	"scenes":[
		{
			"name":"Scene",
			"nodes":[
				0
			]
		}
	],
	"nodes":[
		{
			"mesh":0,
			"name":"castle_dummy"
		}
	],
	"materials":[
		{
			"doubleSided":true,
			"emissiveFactor":[
				1,
				1,
				1
			],
			"emissiveTexture":{
				"index":0
			},
			"name":"castle_mat",
			"pbrMetallicRoughness":{
				"baseColorTexture":{
					"index":1
				},
				"metallicFactor":0,
				"roughnessFactor":0.8999999761581421
			}
		}
	],
	"meshes":[
		{
			"name":"Mesh",
			"primitives":[
				{
					"attributes":{
						"POSITION":0,
						"NORMAL":1,
						"TEXCOORD_0":2,
						"TEXCOORD_1":3,
						"TEXCOORD_2":4,
						"COLOR_0":5,
						"COLOR_1":6
					},
					"indices":7,
					"material":0
				}
			]
		}
	],
	"textures":[
		{
			"sampler":0,
			"source":0
		},
		{
			"sampler":0,
			"source":1
		}
	],
	"images":[
		{
			"mimeType":"image/png",
			"name":"PolygonFantasyKingdom_Texture_Emmisive",
			"uri":"PolygonFantasyKingdom_Texture_Emmisive.png"
		},
		{
			"mimeType":"image/png",
			"name":"PolygonFantasyKingdom_Texture_01_A",
			"uri":"PolygonFantasyKingdom_Texture_01_A.png"
		}
	],
	"accessors":[
		{
			"bufferView":0,
			"componentType":5126,
			"count":5056,
			"max":[
				0.3646441698074341,
				1.7818725109100342,
				0.2992689609527588
			],
			"min":[
				-0.3646441698074341,
				0,
				-0.2992689609527588
			],
			"type":"VEC3"
		},
		{
			"bufferView":1,
			"componentType":5126,
			"count":5056,
			"type":"VEC3"
		},
		{
			"bufferView":2,
			"componentType":5126,
			"count":5056,
			"type":"VEC2"
		},
		{
			"bufferView":3,
			"componentType":5126,
			"count":5056,
			"type":"VEC2"
		},
		{
			"bufferView":4,
			"componentType":5126,
			"count":5056,
			"type":"VEC2"
		},
		{
			"bufferView":5,
			"componentType":5121,
			"count":5056,
			"normalized":true,
			"type":"VEC4"
		},
		{
			"bufferView":6,
			"componentType":5123,
			"count":5056,
			"normalized":true,
			"type":"VEC4"
		},
		{
			"bufferView":7,
			"componentType":5123,
			"count":7524,
			"type":"SCALAR"
		}
	],
	"bufferViews":[
		{
			"buffer":0,
			"byteLength":60672,
			"byteOffset":0,
			"target":34962
		},
		{
			"buffer":0,
			"byteLength":60672,
			"byteOffset":60672,
			"target":34962
		},
		{
			"buffer":0,
			"byteLength":40448,
			"byteOffset":121344,
			"target":34962
		},
		{
			"buffer":0,
			"byteLength":40448,
			"byteOffset":161792,
			"target":34962
		},
		{
			"buffer":0,
			"byteLength":40448,
			"byteOffset":202240,
			"target":34962
		},
		{
			"buffer":0,
			"byteLength":20224,
			"byteOffset":242688,
			"target":34962
		},
		{
			"buffer":0,
			"byteLength":40448,
			"byteOffset":262912,
			"target":34962
		},
		{
			"buffer":0,
			"byteLength":15048,
			"byteOffset":303360,
			"target":34963
		}
	],
	"samplers":[
		{
			"magFilter":9729,
			"minFilter":9987
		}
	],
	"buffers":[
		{
			"byteLength":318408,
			"uri":"castle_dummy.bin"
		}
	]
}
