{
	"asset":{
		"generator":"Khronos glTF Blender I/O v5.1.20",
		"version":"2.0"
	},
	"scene":0,
	"scenes":[
		{
			"name":"Scene",
			"nodes":[
				0
			]
		}
	],
	"nodes":[
		{
			"mesh":0,
			"name":"castle_throne"
		}
	],
	"materials":[
		{
			"doubleSided":true,
			"emissiveFactor":[
				1,
				1,
				1
			],
			"emissiveTexture":{
				"index":0
			},
			"name":"castle_mat",
			"pbrMetallicRoughness":{
				"baseColorTexture":{
					"index":1
				},
				"metallicFactor":0,
				"roughnessFactor":0.8999999761581421
			}
		}
	],
	"meshes":[
		{
			"name":"Mesh",
			"primitives":[
				{
					"attributes":{
						"POSITION":0,
						"NORMAL":1,
						"TEXCOORD_0":2,
						"TEXCOORD_1":3
					},
					"indices":4,
					"material":0
				}
			]
		}
	],
	"textures":[
		{
			"sampler":0,
			"source":0
		},
		{
			"sampler":0,
			"source":1
		}
	],
	"images":[
		{
			"mimeType":"image/png",
			"name":"PolygonFantasyKingdom_Texture_Emmisive",
			"uri":"PolygonFantasyKingdom_Texture_Emmisive.png"
		},
		{
			"mimeType":"image/png",
			"name":"PolygonFantasyKingdom_Texture_01_A",
			"uri":"PolygonFantasyKingdom_Texture_01_A.png"
		}
	],
	"accessors":[
		{
			"bufferView":0,
			"componentType":5126,
			"count":4091,
			"max":[
				0.44331449270248413,
				1.8161956071853638,
				0.3844766616821289
			],
			"min":[
				-0.44331449270248413,
				0,
				-0.3844766616821289
			],
			"type":"VEC3"
		},
		{
			"bufferView":1,
			"componentType":5126,
			"count":4091,
			"type":"VEC3"
		},
		{
			"bufferView":2,
			"componentType":5126,
			"count":4091,
			"type":"VEC2"
		},
		{
			"bufferView":3,
			"componentType":5126,
			"count":4091,
			"type":"VEC2"
		},
		{
			"bufferView":4,
			"componentType":5123,
			"count":7152,
			"type":"SCALAR"
		}
	],
	"bufferViews":[
		{
			"buffer":0,
			"byteLength":49092,
			"byteOffset":0,
			"target":34962
		},
		{
			"buffer":0,
			"byteLength":49092,
			"byteOffset":49092,
			"target":34962
		},
		{
			"buffer":0,
			"byteLength":32728,
			"byteOffset":98184,
			"target":34962
		},
		{
			"buffer":0,
			"byteLength":32728,
			"byteOffset":130912,
			"target":34962
		},
		{
			"buffer":0,
			"byteLength":14304,
			"byteOffset":163640,
			"target":34963
		}
	],
	"samplers":[
		{
			"magFilter":9729,
			"minFilter":9987
		}
	],
	"buffers":[
		{
			"byteLength":177944,
			"uri":"castle_throne.bin"
		}
	]
}
