{
	"asset":{
		"generator":"Khronos glTF Blender I/O v5.1.20",
		"version":"2.0"
	},
	"scene":0,
	"scenes":[
		{
			"name":"Scene",
			"nodes":[
				0
			]
		}
	],
	"nodes":[
		{
			"mesh":0,
			"name":"castle_dead_knight"
		}
	],
	"materials":[
		{
			"doubleSided":true,
			"name":"castle_tiling_mat",
			"pbrMetallicRoughness":{
				"baseColorTexture":{
					"index":0
				},
				"metallicFactor":0,
				"roughnessFactor":0.8999999761581421
			}
		}
	],
	"meshes":[
		{
			"name":"Mesh",
			"primitives":[
				{
					"attributes":{
						"POSITION":0,
						"NORMAL":1,
						"TEXCOORD_0":2,
						"TEXCOORD_1":3,
						"TEXCOORD_2":4
					},
					"indices":5,
					"material":0
				}
			]
		}
	],
	"textures":[
		{
			"sampler":0,
			"source":0
		}
	],
	"images":[
		{
			"mimeType":"image/png",
			"name":"PolygonFantasyKingdon_Texture_Wall_Large_Brick_01",
			"uri":"PolygonFantasyKingdon_Texture_Wall_Large_Brick_01.png"
		}
	],
	"accessors":[
		{
			"bufferView":0,
			"componentType":5126,
			"count":5870,
			"max":[
				0.45062702894210815,
				0.7013643383979797,
				0.9540305733680725
			],
			"min":[
				-0.45062702894210815,
				0,
				-0.9540305137634277
			],
			"type":"VEC3"
		},
		{
			"bufferView":1,
			"componentType":5126,
			"count":5870,
			"type":"VEC3"
		},
		{
			"bufferView":2,
			"componentType":5126,
			"count":5870,
			"type":"VEC2"
		},
		{
			"bufferView":3,
			"componentType":5126,
			"count":5870,
			"type":"VEC2"
		},
		{
			"bufferView":4,
			"componentType":5126,
			"count":5870,
			"type":"VEC2"
		},
		{
			"bufferView":5,
			"componentType":5123,
			"count":6654,
			"type":"SCALAR"
		}
	],
	"bufferViews":[
		{
			"buffer":0,
			"byteLength":70440,
			"byteOffset":0,
			"target":34962
		},
		{
			"buffer":0,
			"byteLength":70440,
			"byteOffset":70440,
			"target":34962
		},
		{
			"buffer":0,
			"byteLength":46960,
			"byteOffset":140880,
			"target":34962
		},
		{
			"buffer":0,
			"byteLength":46960,
			"byteOffset":187840,
			"target":34962
		},
		{
			"buffer":0,
			"byteLength":46960,
			"byteOffset":234800,
			"target":34962
		},
		{
			"buffer":0,
			"byteLength":13308,
			"byteOffset":281760,
			"target":34963
		}
	],
	"samplers":[
		{
			"magFilter":9729,
			"minFilter":9987
		}
	],
	"buffers":[
		{
			"byteLength":295068,
			"uri":"castle_dead_knight.bin"
		}
	]
}
