{
	"asset":{
		"generator":"Khronos glTF Blender I/O v5.1.20",
		"version":"2.0"
	},
	"scene":0,
	"scenes":[
		{
			"name":"Scene",
			"nodes":[
				0
			]
		}
	],
	"nodes":[
		{
			"mesh":0,
			"name":"castle_chest"
		}
	],
	"materials":[
		{
			"doubleSided":true,
			"emissiveFactor":[
				1,
				1,
				1
			],
			"emissiveTexture":{
				"index":0
			},
			"name":"castle_mat",
			"pbrMetallicRoughness":{
				"baseColorTexture":{
					"index":1
				},
				"metallicFactor":0,
				"roughnessFactor":0.8999999761581421
			}
		}
	],
	"meshes":[
		{
			"name":"Mesh",
			"primitives":[
				{
					"attributes":{
						"POSITION":0,
						"NORMAL":1,
						"TEXCOORD_0":2,
						"TEXCOORD_1":3
					},
					"indices":4,
					"material":0
				}
			]
		}
	],
	"textures":[
		{
			"sampler":0,
			"source":0
		},
		{
			"sampler":0,
			"source":1
		}
	],
	"images":[
		{
			"mimeType":"image/png",
			"name":"PolygonFantasyKingdom_Texture_Emmisive",
			"uri":"PolygonFantasyKingdom_Texture_Emmisive.png"
		},
		{
			"mimeType":"image/png",
			"name":"PolygonFantasyKingdom_Texture_01_A",
			"uri":"PolygonFantasyKingdom_Texture_01_A.png"
		}
	],
	"accessors":[
		{
			"bufferView":0,
			"componentType":5126,
			"count":1069,
			"max":[
				0.49999991059303284,
				0.46352407336235046,
				0.3048974871635437
			],
			"min":[
				-0.49999991059303284,
				-2.3019122608047837e-08,
				-0.3048975169658661
			],
			"type":"VEC3"
		},
		{
			"bufferView":1,
			"componentType":5126,
			"count":1069,
			"type":"VEC3"
		},
		{
			"bufferView":2,
			"componentType":5126,
			"count":1069,
			"type":"VEC2"
		},
		{
			"bufferView":3,
			"componentType":5126,
			"count":1069,
			"type":"VEC2"
		},
		{
			"bufferView":4,
			"componentType":5123,
			"count":1890,
			"type":"SCALAR"
		}
	],
	"bufferViews":[
		{
			"buffer":0,
			"byteLength":12828,
			"byteOffset":0,
			"target":34962
		},
		{
			"buffer":0,
			"byteLength":12828,
			"byteOffset":12828,
			"target":34962
		},
		{
			"buffer":0,
			"byteLength":8552,
			"byteOffset":25656,
			"target":34962
		},
		{
			"buffer":0,
			"byteLength":8552,
			"byteOffset":34208,
			"target":34962
		},
		{
			"buffer":0,
			"byteLength":3780,
			"byteOffset":42760,
			"target":34963
		}
	],
	"samplers":[
		{
			"magFilter":9729,
			"minFilter":9987
		}
	],
	"buffers":[
		{
			"byteLength":46540,
			"uri":"castle_chest.bin"
		}
	]
}
