{
	"asset":{
		"generator":"Khronos glTF Blender I/O v5.1.20",
		"version":"2.0"
	},
	"scene":0,
	"scenes":[
		{
			"name":"Scene",
			"nodes":[
				0
			]
		}
	],
	"nodes":[
		{
			"mesh":0,
			"name":"castle_cauldron"
		}
	],
	"materials":[
		{
			"doubleSided":true,
			"emissiveFactor":[
				1,
				1,
				1
			],
			"emissiveTexture":{
				"index":0
			},
			"name":"castle_mat",
			"pbrMetallicRoughness":{
				"baseColorTexture":{
					"index":1
				},
				"metallicFactor":0,
				"roughnessFactor":0.8999999761581421
			}
		}
	],
	"meshes":[
		{
			"name":"Mesh",
			"primitives":[
				{
					"attributes":{
						"POSITION":0,
						"NORMAL":1,
						"TEXCOORD_0":2,
						"TEXCOORD_1":3
					},
					"indices":4,
					"material":0
				}
			]
		}
	],
	"textures":[
		{
			"sampler":0,
			"source":0
		},
		{
			"sampler":0,
			"source":1
		}
	],
	"images":[
		{
			"mimeType":"image/png",
			"name":"PolygonFantasyKingdom_Texture_Emmisive",
			"uri":"PolygonFantasyKingdom_Texture_Emmisive.png"
		},
		{
			"mimeType":"image/png",
			"name":"PolygonFantasyKingdom_Texture_01_A",
			"uri":"PolygonFantasyKingdom_Texture_01_A.png"
		}
	],
	"accessors":[
		{
			"bufferView":0,
			"componentType":5126,
			"count":864,
			"max":[
				0.4441971182823181,
				0.7104616165161133,
				0.4224565029144287
			],
			"min":[
				-0.4441971182823181,
				-1.7079505809647344e-08,
				-0.4224565923213959
			],
			"type":"VEC3"
		},
		{
			"bufferView":1,
			"componentType":5126,
			"count":864,
			"type":"VEC3"
		},
		{
			"bufferView":2,
			"componentType":5126,
			"count":864,
			"type":"VEC2"
		},
		{
			"bufferView":3,
			"componentType":5126,
			"count":864,
			"type":"VEC2"
		},
		{
			"bufferView":4,
			"componentType":5123,
			"count":1440,
			"type":"SCALAR"
		}
	],
	"bufferViews":[
		{
			"buffer":0,
			"byteLength":10368,
			"byteOffset":0,
			"target":34962
		},
		{
			"buffer":0,
			"byteLength":10368,
			"byteOffset":10368,
			"target":34962
		},
		{
			"buffer":0,
			"byteLength":6912,
			"byteOffset":20736,
			"target":34962
		},
		{
			"buffer":0,
			"byteLength":6912,
			"byteOffset":27648,
			"target":34962
		},
		{
			"buffer":0,
			"byteLength":2880,
			"byteOffset":34560,
			"target":34963
		}
	],
	"samplers":[
		{
			"magFilter":9729,
			"minFilter":9987
		}
	],
	"buffers":[
		{
			"byteLength":37440,
			"uri":"castle_cauldron.bin"
		}
	]
}
