{
	"asset":{
		"generator":"Khronos glTF Blender I/O v5.1.20",
		"version":"2.0"
	},
	"scene":0,
	"scenes":[
		{
			"name":"Scene",
			"nodes":[
				0
			]
		}
	],
	"nodes":[
		{
			"mesh":0,
			"name":"castle_brazier"
		}
	],
	"materials":[
		{
			"doubleSided":true,
			"name":"castle_tiling_mat",
			"pbrMetallicRoughness":{
				"baseColorTexture":{
					"index":0
				},
				"metallicFactor":0,
				"roughnessFactor":0.8999999761581421
			}
		}
	],
	"meshes":[
		{
			"name":"Mesh",
			"primitives":[
				{
					"attributes":{
						"POSITION":0,
						"NORMAL":1,
						"TEXCOORD_0":2,
						"TEXCOORD_1":3
					},
					"indices":4,
					"material":0
				}
			]
		}
	],
	"textures":[
		{
			"sampler":0,
			"source":0
		}
	],
	"images":[
		{
			"mimeType":"image/png",
			"name":"PolygonFantasyKingdon_Texture_Wall_Large_Brick_01",
			"uri":"PolygonFantasyKingdon_Texture_Wall_Large_Brick_01.png"
		}
	],
	"accessors":[
		{
			"bufferView":0,
			"componentType":5126,
			"count":962,
			"max":[
				0.27712753415107727,
				0.5934206247329712,
				0.27700069546699524
			],
			"min":[
				-0.27712753415107727,
				-1.86803834623106e-08,
				-0.2769995331764221
			],
			"type":"VEC3"
		},
		{
			"bufferView":1,
			"componentType":5126,
			"count":962,
			"type":"VEC3"
		},
		{
			"bufferView":2,
			"componentType":5126,
			"count":962,
			"type":"VEC2"
		},
		{
			"bufferView":3,
			"componentType":5126,
			"count":962,
			"type":"VEC2"
		},
		{
			"bufferView":4,
			"componentType":5123,
			"count":1620,
			"type":"SCALAR"
		}
	],
	"bufferViews":[
		{
			"buffer":0,
			"byteLength":11544,
			"byteOffset":0,
			"target":34962
		},
		{
			"buffer":0,
			"byteLength":11544,
			"byteOffset":11544,
			"target":34962
		},
		{
			"buffer":0,
			"byteLength":7696,
			"byteOffset":23088,
			"target":34962
		},
		{
			"buffer":0,
			"byteLength":7696,
			"byteOffset":30784,
			"target":34962
		},
		{
			"buffer":0,
			"byteLength":3240,
			"byteOffset":38480,
			"target":34963
		}
	],
	"samplers":[
		{
			"magFilter":9729,
			"minFilter":9987
		}
	],
	"buffers":[
		{
			"byteLength":41720,
			"uri":"castle_brazier.bin"
		}
	]
}
