{
	"asset":{
		"generator":"Khronos glTF Blender I/O v5.1.20",
		"version":"2.0"
	},
	"scene":0,
	"scenes":[
		{
			"name":"Scene",
			"nodes":[
				0
			]
		}
	],
	"nodes":[
		{
			"mesh":0,
			"name":"castle_dummy_straw"
		}
	],
	"materials":[
		{
			"doubleSided":true,
			"emissiveFactor":[
				1,
				1,
				1
			],
			"emissiveTexture":{
				"index":0
			},
			"name":"castle_mat",
			"pbrMetallicRoughness":{
				"baseColorTexture":{
					"index":1
				},
				"metallicFactor":0,
				"roughnessFactor":0.8999999761581421
			}
		}
	],
	"meshes":[
		{
			"name":"Mesh",
			"primitives":[
				{
					"attributes":{
						"POSITION":0,
						"NORMAL":1,
						"TEXCOORD_0":2,
						"TEXCOORD_1":3,
						"TEXCOORD_2":4
					},
					"indices":5,
					"material":0
				}
			]
		}
	],
	"textures":[
		{
			"sampler":0,
			"source":0
		},
		{
			"sampler":0,
			"source":1
		}
	],
	"images":[
		{
			"mimeType":"image/png",
			"name":"PolygonFantasyKingdom_Texture_Emmisive",
			"uri":"PolygonFantasyKingdom_Texture_Emmisive.png"
		},
		{
			"mimeType":"image/png",
			"name":"PolygonFantasyKingdom_Texture_01_A",
			"uri":"PolygonFantasyKingdom_Texture_01_A.png"
		}
	],
	"accessors":[
		{
			"bufferView":0,
			"componentType":5126,
			"count":2887,
			"max":[
				0.4965588450431824,
				1.9044671058654785,
				0.18400512635707855
			],
			"min":[
				-0.4965588450431824,
				0,
				-0.18400512635707855
			],
			"type":"VEC3"
		},
		{
			"bufferView":1,
			"componentType":5126,
			"count":2887,
			"type":"VEC3"
		},
		{
			"bufferView":2,
			"componentType":5126,
			"count":2887,
			"type":"VEC2"
		},
		{
			"bufferView":3,
			"componentType":5126,
			"count":2887,
			"type":"VEC2"
		},
		{
			"bufferView":4,
			"componentType":5126,
			"count":2887,
			"type":"VEC2"
		},
		{
			"bufferView":5,
			"componentType":5123,
			"count":3957,
			"type":"SCALAR"
		}
	],
	"bufferViews":[
		{
			"buffer":0,
			"byteLength":34644,
			"byteOffset":0,
			"target":34962
		},
		{
			"buffer":0,
			"byteLength":34644,
			"byteOffset":34644,
			"target":34962
		},
		{
			"buffer":0,
			"byteLength":23096,
			"byteOffset":69288,
			"target":34962
		},
		{
			"buffer":0,
			"byteLength":23096,
			"byteOffset":92384,
			"target":34962
		},
		{
			"buffer":0,
			"byteLength":23096,
			"byteOffset":115480,
			"target":34962
		},
		{
			"buffer":0,
			"byteLength":7914,
			"byteOffset":138576,
			"target":34963
		}
	],
	"samplers":[
		{
			"magFilter":9729,
			"minFilter":9987
		}
	],
	"buffers":[
		{
			"byteLength":146492,
			"uri":"castle_dummy_straw.bin"
		}
	]
}
