{
	"asset":{
		"generator":"Khronos glTF Blender I/O v5.1.20",
		"version":"2.0"
	},
	"scene":0,
	"scenes":[
		{
			"name":"Scene",
			"nodes":[
				0
			]
		}
	],
	"nodes":[
		{
			"mesh":0,
			"name":"castle_hay"
		}
	],
	"materials":[
		{
			"doubleSided":true,
			"emissiveFactor":[
				1,
				1,
				1
			],
			"emissiveTexture":{
				"index":0
			},
			"name":"castle_mat",
			"pbrMetallicRoughness":{
				"baseColorTexture":{
					"index":1
				},
				"metallicFactor":0,
				"roughnessFactor":0.8999999761581421
			}
		}
	],
	"meshes":[
		{
			"name":"Mesh",
			"primitives":[
				{
					"attributes":{
						"POSITION":0,
						"NORMAL":1,
						"TEXCOORD_0":2,
						"TEXCOORD_1":3
					},
					"indices":4,
					"material":0
				}
			]
		}
	],
	"textures":[
		{
			"sampler":0,
			"source":0
		},
		{
			"sampler":0,
			"source":1
		}
	],
	"images":[
		{
			"mimeType":"image/png",
			"name":"PolygonFantasyKingdom_Texture_Emmisive",
			"uri":"PolygonFantasyKingdom_Texture_Emmisive.png"
		},
		{
			"mimeType":"image/png",
			"name":"PolygonFantasyKingdom_Texture_01_A",
			"uri":"PolygonFantasyKingdom_Texture_01_A.png"
		}
	],
	"accessors":[
		{
			"bufferView":0,
			"componentType":5126,
			"count":1108,
			"max":[
				0.690582275390625,
				1.084075927734375,
				0.5420455932617188
			],
			"min":[
				-0.690582275390625,
				0,
				-0.5420455932617188
			],
			"type":"VEC3"
		},
		{
			"bufferView":1,
			"componentType":5126,
			"count":1108,
			"type":"VEC3"
		},
		{
			"bufferView":2,
			"componentType":5126,
			"count":1108,
			"type":"VEC2"
		},
		{
			"bufferView":3,
			"componentType":5126,
			"count":1108,
			"type":"VEC2"
		},
		{
			"bufferView":4,
			"componentType":5123,
			"count":1632,
			"type":"SCALAR"
		}
	],
	"bufferViews":[
		{
			"buffer":0,
			"byteLength":13296,
			"byteOffset":0,
			"target":34962
		},
		{
			"buffer":0,
			"byteLength":13296,
			"byteOffset":13296,
			"target":34962
		},
		{
			"buffer":0,
			"byteLength":8864,
			"byteOffset":26592,
			"target":34962
		},
		{
			"buffer":0,
			"byteLength":8864,
			"byteOffset":35456,
			"target":34962
		},
		{
			"buffer":0,
			"byteLength":3264,
			"byteOffset":44320,
			"target":34963
		}
	],
	"samplers":[
		{
			"magFilter":9729,
			"minFilter":9987
		}
	],
	"buffers":[
		{
			"byteLength":47584,
			"uri":"castle_hay.bin"
		}
	]
}
