{
	"asset":{
		"generator":"Khronos glTF Blender I/O v5.1.20",
		"version":"2.0"
	},
	"scene":0,
	"scenes":[
		{
			"name":"Scene",
			"nodes":[
				0
			]
		}
	],
	"nodes":[
		{
			"mesh":0,
			"name":"castle_weapon_rack"
		}
	],
	"materials":[
		{
			"doubleSided":true,
			"emissiveFactor":[
				1,
				1,
				1
			],
			"emissiveTexture":{
				"index":0
			},
			"name":"castle_mat",
			"pbrMetallicRoughness":{
				"baseColorTexture":{
					"index":1
				},
				"metallicFactor":0,
				"roughnessFactor":0.8999999761581421
			}
		}
	],
	"meshes":[
		{
			"name":"Mesh",
			"primitives":[
				{
					"attributes":{
						"POSITION":0,
						"NORMAL":1,
						"TEXCOORD_0":2,
						"TEXCOORD_1":3
					},
					"indices":4,
					"material":0
				}
			]
		}
	],
	"textures":[
		{
			"sampler":0,
			"source":0
		},
		{
			"sampler":0,
			"source":1
		}
	],
	"images":[
		{
			"mimeType":"image/png",
			"name":"PolygonFantasyKingdom_Texture_Emmisive",
			"uri":"PolygonFantasyKingdom_Texture_Emmisive.png"
		},
		{
			"mimeType":"image/png",
			"name":"PolygonFantasyKingdom_Texture_01_A",
			"uri":"PolygonFantasyKingdom_Texture_01_A.png"
		}
	],
	"accessors":[
		{
			"bufferView":0,
			"componentType":5126,
			"count":629,
			"max":[
				1.0188883543014526,
				1.5839025974273682,
				0.3296346664428711
			],
			"min":[
				-1.0188883543014526,
				-2.488672379286072e-08,
				-0.3296346664428711
			],
			"type":"VEC3"
		},
		{
			"bufferView":1,
			"componentType":5126,
			"count":629,
			"type":"VEC3"
		},
		{
			"bufferView":2,
			"componentType":5126,
			"count":629,
			"type":"VEC2"
		},
		{
			"bufferView":3,
			"componentType":5126,
			"count":629,
			"type":"VEC2"
		},
		{
			"bufferView":4,
			"componentType":5123,
			"count":1104,
			"type":"SCALAR"
		}
	],
	"bufferViews":[
		{
			"buffer":0,
			"byteLength":7548,
			"byteOffset":0,
			"target":34962
		},
		{
			"buffer":0,
			"byteLength":7548,
			"byteOffset":7548,
			"target":34962
		},
		{
			"buffer":0,
			"byteLength":5032,
			"byteOffset":15096,
			"target":34962
		},
		{
			"buffer":0,
			"byteLength":5032,
			"byteOffset":20128,
			"target":34962
		},
		{
			"buffer":0,
			"byteLength":2208,
			"byteOffset":25160,
			"target":34963
		}
	],
	"samplers":[
		{
			"magFilter":9729,
			"minFilter":9987
		}
	],
	"buffers":[
		{
			"byteLength":27368,
			"uri":"castle_weapon_rack.bin"
		}
	]
}
