{
	"asset":{
		"generator":"Khronos glTF Blender I/O v5.1.20",
		"version":"2.0"
	},
	"scene":0,
	"scenes":[
		{
			"name":"Scene",
			"nodes":[
				0
			]
		}
	],
	"nodes":[
		{
			"mesh":0,
			"name":"env_structure3"
		}
	],
	"materials":[
		{
			"doubleSided":true,
			"emissiveFactor":[
				1,
				1,
				1
			],
			"emissiveTexture":{
				"index":0
			},
			"name":"knights_mat",
			"pbrMetallicRoughness":{
				"baseColorTexture":{
					"index":1
				},
				"metallicFactor":0,
				"roughnessFactor":0.8999999761581421
			}
		}
	],
	"meshes":[
		{
			"name":"Mesh",
			"primitives":[
				{
					"attributes":{
						"POSITION":0,
						"NORMAL":1,
						"TEXCOORD_0":2,
						"TEXCOORD_1":3
					},
					"indices":4,
					"material":0
				}
			]
		}
	],
	"textures":[
		{
			"sampler":0,
			"source":0
		},
		{
			"sampler":0,
			"source":1
		}
	],
	"images":[
		{
			"mimeType":"image/png",
			"name":"PolygonFantasyKingdom_Texture_Emmisive",
			"uri":"PolygonFantasyKingdom_Texture_Emmisive.png"
		},
		{
			"mimeType":"image/png",
			"name":"PolygonFantasyKingdom_Texture_01_A",
			"uri":"PolygonFantasyKingdom_Texture_01_A.png"
		}
	],
	"accessors":[
		{
			"bufferView":0,
			"componentType":5126,
			"count":3336,
			"max":[
				2.7568578720092773,
				3.6269845962524414,
				0.8311437964439392
			],
			"min":[
				-2.7568578720092773,
				0,
				-0.8311437964439392
			],
			"type":"VEC3"
		},
		{
			"bufferView":1,
			"componentType":5126,
			"count":3336,
			"type":"VEC3"
		},
		{
			"bufferView":2,
			"componentType":5126,
			"count":3336,
			"type":"VEC2"
		},
		{
			"bufferView":3,
			"componentType":5126,
			"count":3336,
			"type":"VEC2"
		},
		{
			"bufferView":4,
			"componentType":5123,
			"count":4926,
			"type":"SCALAR"
		}
	],
	"bufferViews":[
		{
			"buffer":0,
			"byteLength":40032,
			"byteOffset":0,
			"target":34962
		},
		{
			"buffer":0,
			"byteLength":40032,
			"byteOffset":40032,
			"target":34962
		},
		{
			"buffer":0,
			"byteLength":26688,
			"byteOffset":80064,
			"target":34962
		},
		{
			"buffer":0,
			"byteLength":26688,
			"byteOffset":106752,
			"target":34962
		},
		{
			"buffer":0,
			"byteLength":9852,
			"byteOffset":133440,
			"target":34963
		}
	],
	"samplers":[
		{
			"magFilter":9729,
			"minFilter":9987
		}
	],
	"buffers":[
		{
			"byteLength":143292,
			"uri":"env_structure3.bin"
		}
	]
}
