{
	"asset":{
		"generator":"Khronos glTF Blender I/O v5.1.20",
		"version":"2.0"
	},
	"scene":0,
	"scenes":[
		{
			"name":"Scene",
			"nodes":[
				0
			]
		}
	],
	"nodes":[
		{
			"mesh":0,
			"name":"env_crates"
		}
	],
	"materials":[
		{
			"doubleSided":true,
			"emissiveFactor":[
				1,
				1,
				1
			],
			"emissiveTexture":{
				"index":0
			},
			"name":"knights_mat",
			"pbrMetallicRoughness":{
				"baseColorTexture":{
					"index":1
				},
				"metallicFactor":0,
				"roughnessFactor":0.8999999761581421
			}
		}
	],
	"meshes":[
		{
			"name":"Mesh",
			"primitives":[
				{
					"attributes":{
						"POSITION":0,
						"NORMAL":1,
						"TEXCOORD_0":2,
						"TEXCOORD_1":3
					},
					"indices":4,
					"material":0
				}
			]
		}
	],
	"textures":[
		{
			"sampler":0,
			"source":0
		},
		{
			"sampler":0,
			"source":1
		}
	],
	"images":[
		{
			"mimeType":"image/png",
			"name":"PolygonFantasyKingdom_Texture_Emmisive",
			"uri":"PolygonFantasyKingdom_Texture_Emmisive.png"
		},
		{
			"mimeType":"image/png",
			"name":"PolygonFantasyKingdom_Texture_01_A",
			"uri":"PolygonFantasyKingdom_Texture_01_A.png"
		}
	],
	"accessors":[
		{
			"bufferView":0,
			"componentType":5126,
			"count":3806,
			"max":[
				1.6248631477355957,
				2.1419661045074463,
				0.6097113490104675
			],
			"min":[
				-1.6248631477355957,
				0,
				-0.6097113490104675
			],
			"type":"VEC3"
		},
		{
			"bufferView":1,
			"componentType":5126,
			"count":3806,
			"type":"VEC3"
		},
		{
			"bufferView":2,
			"componentType":5126,
			"count":3806,
			"type":"VEC2"
		},
		{
			"bufferView":3,
			"componentType":5126,
			"count":3806,
			"type":"VEC2"
		},
		{
			"bufferView":4,
			"componentType":5123,
			"count":8472,
			"type":"SCALAR"
		}
	],
	"bufferViews":[
		{
			"buffer":0,
			"byteLength":45672,
			"byteOffset":0,
			"target":34962
		},
		{
			"buffer":0,
			"byteLength":45672,
			"byteOffset":45672,
			"target":34962
		},
		{
			"buffer":0,
			"byteLength":30448,
			"byteOffset":91344,
			"target":34962
		},
		{
			"buffer":0,
			"byteLength":30448,
			"byteOffset":121792,
			"target":34962
		},
		{
			"buffer":0,
			"byteLength":16944,
			"byteOffset":152240,
			"target":34963
		}
	],
	"samplers":[
		{
			"magFilter":9729,
			"minFilter":9987
		}
	],
	"buffers":[
		{
			"byteLength":169184,
			"uri":"env_crates.bin"
		}
	]
}
