{
	"asset":{
		"generator":"Khronos glTF Blender I/O v5.1.20",
		"version":"2.0"
	},
	"scene":0,
	"scenes":[
		{
			"name":"Scene",
			"nodes":[
				0
			]
		}
	],
	"nodes":[
		{
			"mesh":0,
			"name":"env_bush_cluster"
		}
	],
	"materials":[
		{
			"doubleSided":true,
			"emissiveFactor":[
				1,
				1,
				1
			],
			"emissiveTexture":{
				"index":0
			},
			"name":"knights_mat",
			"pbrMetallicRoughness":{
				"baseColorTexture":{
					"index":1
				},
				"metallicFactor":0,
				"roughnessFactor":0.8999999761581421
			}
		}
	],
	"meshes":[
		{
			"name":"Mesh",
			"primitives":[
				{
					"attributes":{
						"POSITION":0,
						"NORMAL":1,
						"TEXCOORD_0":2,
						"TEXCOORD_1":3,
						"COLOR_0":4,
						"COLOR_1":5
					},
					"indices":6,
					"material":0
				}
			]
		}
	],
	"textures":[
		{
			"sampler":0,
			"source":0
		},
		{
			"sampler":0,
			"source":1
		}
	],
	"images":[
		{
			"mimeType":"image/png",
			"name":"PolygonFantasyKingdom_Texture_Emmisive",
			"uri":"PolygonFantasyKingdom_Texture_Emmisive.png"
		},
		{
			"mimeType":"image/png",
			"name":"PolygonFantasyKingdom_Texture_01_A",
			"uri":"PolygonFantasyKingdom_Texture_01_A.png"
		}
	],
	"accessors":[
		{
			"bufferView":0,
			"componentType":5126,
			"count":2055,
			"max":[
				7.628847599029541,
				9.423652648925781,
				5.296113014221191
			],
			"min":[
				-7.628847599029541,
				0,
				-5.296113014221191
			],
			"type":"VEC3"
		},
		{
			"bufferView":1,
			"componentType":5126,
			"count":2055,
			"type":"VEC3"
		},
		{
			"bufferView":2,
			"componentType":5126,
			"count":2055,
			"type":"VEC2"
		},
		{
			"bufferView":3,
			"componentType":5126,
			"count":2055,
			"type":"VEC2"
		},
		{
			"bufferView":4,
			"componentType":5121,
			"count":2055,
			"normalized":true,
			"type":"VEC4"
		},
		{
			"bufferView":5,
			"componentType":5123,
			"count":2055,
			"normalized":true,
			"type":"VEC4"
		},
		{
			"bufferView":6,
			"componentType":5123,
			"count":2088,
			"type":"SCALAR"
		}
	],
	"bufferViews":[
		{
			"buffer":0,
			"byteLength":24660,
			"byteOffset":0,
			"target":34962
		},
		{
			"buffer":0,
			"byteLength":24660,
			"byteOffset":24660,
			"target":34962
		},
		{
			"buffer":0,
			"byteLength":16440,
			"byteOffset":49320,
			"target":34962
		},
		{
			"buffer":0,
			"byteLength":16440,
			"byteOffset":65760,
			"target":34962
		},
		{
			"buffer":0,
			"byteLength":8220,
			"byteOffset":82200,
			"target":34962
		},
		{
			"buffer":0,
			"byteLength":16440,
			"byteOffset":90420,
			"target":34962
		},
		{
			"buffer":0,
			"byteLength":4176,
			"byteOffset":106860,
			"target":34963
		}
	],
	"samplers":[
		{
			"magFilter":9729,
			"minFilter":9987
		}
	],
	"buffers":[
		{
			"byteLength":111036,
			"uri":"env_bush_cluster.bin"
		}
	]
}
