{
	"asset":{
		"generator":"Khronos glTF Blender I/O v5.1.20",
		"version":"2.0"
	},
	"scene":0,
	"scenes":[
		{
			"name":"Scene",
			"nodes":[
				0
			]
		}
	],
	"nodes":[
		{
			"mesh":0,
			"name":"env_cliff4"
		}
	],
	"materials":[
		{
			"doubleSided":true,
			"emissiveFactor":[
				1,
				1,
				1
			],
			"emissiveTexture":{
				"index":0
			},
			"name":"knights_mat",
			"pbrMetallicRoughness":{
				"baseColorTexture":{
					"index":1
				},
				"metallicFactor":0,
				"roughnessFactor":0.8999999761581421
			}
		}
	],
	"meshes":[
		{
			"name":"Mesh",
			"primitives":[
				{
					"attributes":{
						"POSITION":0,
						"NORMAL":1,
						"TEXCOORD_0":2,
						"TEXCOORD_1":3
					},
					"indices":4,
					"material":0
				}
			]
		}
	],
	"textures":[
		{
			"sampler":0,
			"source":0
		},
		{
			"sampler":0,
			"source":1
		}
	],
	"images":[
		{
			"mimeType":"image/png",
			"name":"PolygonFantasyKingdom_Texture_Emmisive",
			"uri":"PolygonFantasyKingdom_Texture_Emmisive.png"
		},
		{
			"mimeType":"image/png",
			"name":"PolygonFantasyKingdom_Texture_01_A",
			"uri":"PolygonFantasyKingdom_Texture_01_A.png"
		}
	],
	"accessors":[
		{
			"bufferView":0,
			"componentType":5126,
			"count":5767,
			"max":[
				8.3076171875,
				9.704126358032227,
				10.162763595581055
			],
			"min":[
				-8.3076171875,
				0,
				-10.162763595581055
			],
			"type":"VEC3"
		},
		{
			"bufferView":1,
			"componentType":5126,
			"count":5767,
			"type":"VEC3"
		},
		{
			"bufferView":2,
			"componentType":5126,
			"count":5767,
			"type":"VEC2"
		},
		{
			"bufferView":3,
			"componentType":5126,
			"count":5767,
			"type":"VEC2"
		},
		{
			"bufferView":4,
			"componentType":5123,
			"count":5997,
			"type":"SCALAR"
		}
	],
	"bufferViews":[
		{
			"buffer":0,
			"byteLength":69204,
			"byteOffset":0,
			"target":34962
		},
		{
			"buffer":0,
			"byteLength":69204,
			"byteOffset":69204,
			"target":34962
		},
		{
			"buffer":0,
			"byteLength":46136,
			"byteOffset":138408,
			"target":34962
		},
		{
			"buffer":0,
			"byteLength":46136,
			"byteOffset":184544,
			"target":34962
		},
		{
			"buffer":0,
			"byteLength":11994,
			"byteOffset":230680,
			"target":34963
		}
	],
	"samplers":[
		{
			"magFilter":9729,
			"minFilter":9987
		}
	],
	"buffers":[
		{
			"byteLength":242676,
			"uri":"env_cliff4.bin"
		}
	]
}
