{
	"asset":{
		"generator":"Khronos glTF Blender I/O v5.1.20",
		"version":"2.0"
	},
	"scene":0,
	"scenes":[
		{
			"name":"Scene",
			"nodes":[
				0
			]
		}
	],
	"nodes":[
		{
			"mesh":0,
			"name":"env_tree_round3"
		}
	],
	"materials":[
		{
			"doubleSided":true,
			"emissiveFactor":[
				1,
				1,
				1
			],
			"emissiveTexture":{
				"index":0
			},
			"name":"knights_mat",
			"pbrMetallicRoughness":{
				"baseColorTexture":{
					"index":1
				},
				"metallicFactor":0,
				"roughnessFactor":0.8999999761581421
			}
		}
	],
	"meshes":[
		{
			"name":"Mesh",
			"primitives":[
				{
					"attributes":{
						"POSITION":0,
						"NORMAL":1,
						"TEXCOORD_0":2,
						"TEXCOORD_1":3,
						"COLOR_0":4,
						"COLOR_1":5
					},
					"indices":6,
					"material":0
				}
			]
		}
	],
	"textures":[
		{
			"sampler":0,
			"source":0
		},
		{
			"sampler":0,
			"source":1
		}
	],
	"images":[
		{
			"mimeType":"image/png",
			"name":"PolygonFantasyKingdom_Texture_Emmisive",
			"uri":"PolygonFantasyKingdom_Texture_Emmisive.png"
		},
		{
			"mimeType":"image/png",
			"name":"PolygonFantasyKingdom_Texture_01_A",
			"uri":"PolygonFantasyKingdom_Texture_01_A.png"
		}
	],
	"accessors":[
		{
			"bufferView":0,
			"componentType":5126,
			"count":1842,
			"max":[
				2.214186429977417,
				8.268080711364746,
				1.9291646480560303
			],
			"min":[
				-2.214186429977417,
				0,
				-1.9291646480560303
			],
			"type":"VEC3"
		},
		{
			"bufferView":1,
			"componentType":5126,
			"count":1842,
			"type":"VEC3"
		},
		{
			"bufferView":2,
			"componentType":5126,
			"count":1842,
			"type":"VEC2"
		},
		{
			"bufferView":3,
			"componentType":5126,
			"count":1842,
			"type":"VEC2"
		},
		{
			"bufferView":4,
			"componentType":5121,
			"count":1842,
			"normalized":true,
			"type":"VEC4"
		},
		{
			"bufferView":5,
			"componentType":5123,
			"count":1842,
			"normalized":true,
			"type":"VEC4"
		},
		{
			"bufferView":6,
			"componentType":5123,
			"count":2028,
			"type":"SCALAR"
		}
	],
	"bufferViews":[
		{
			"buffer":0,
			"byteLength":22104,
			"byteOffset":0,
			"target":34962
		},
		{
			"buffer":0,
			"byteLength":22104,
			"byteOffset":22104,
			"target":34962
		},
		{
			"buffer":0,
			"byteLength":14736,
			"byteOffset":44208,
			"target":34962
		},
		{
			"buffer":0,
			"byteLength":14736,
			"byteOffset":58944,
			"target":34962
		},
		{
			"buffer":0,
			"byteLength":7368,
			"byteOffset":73680,
			"target":34962
		},
		{
			"buffer":0,
			"byteLength":14736,
			"byteOffset":81048,
			"target":34962
		},
		{
			"buffer":0,
			"byteLength":4056,
			"byteOffset":95784,
			"target":34963
		}
	],
	"samplers":[
		{
			"magFilter":9729,
			"minFilter":9987
		}
	],
	"buffers":[
		{
			"byteLength":99840,
			"uri":"env_tree_round3.bin"
		}
	]
}
