{
	"asset":{
		"generator":"Khronos glTF Blender I/O v5.1.20",
		"version":"2.0"
	},
	"scene":0,
	"scenes":[
		{
			"name":"Scene",
			"nodes":[
				0
			]
		}
	],
	"nodes":[
		{
			"mesh":0,
			"name":"env_siege_tower"
		}
	],
	"materials":[
		{
			"doubleSided":true,
			"emissiveFactor":[
				1,
				1,
				1
			],
			"emissiveTexture":{
				"index":0
			},
			"name":"knights_mat",
			"pbrMetallicRoughness":{
				"baseColorTexture":{
					"index":1
				},
				"metallicFactor":0,
				"roughnessFactor":0.8999999761581421
			}
		}
	],
	"meshes":[
		{
			"name":"Mesh",
			"primitives":[
				{
					"attributes":{
						"POSITION":0,
						"NORMAL":1,
						"TEXCOORD_0":2,
						"TEXCOORD_1":3
					},
					"indices":4,
					"material":0
				}
			]
		}
	],
	"textures":[
		{
			"sampler":0,
			"source":0
		},
		{
			"sampler":0,
			"source":1
		}
	],
	"images":[
		{
			"mimeType":"image/png",
			"name":"PolygonFantasyKingdom_Texture_Emmisive",
			"uri":"PolygonFantasyKingdom_Texture_Emmisive.png"
		},
		{
			"mimeType":"image/png",
			"name":"PolygonFantasyKingdom_Texture_01_A",
			"uri":"PolygonFantasyKingdom_Texture_01_A.png"
		}
	],
	"accessors":[
		{
			"bufferView":0,
			"componentType":5126,
			"count":30691,
			"max":[
				3.043616771697998,
				14.577974319458008,
				2.6982529163360596
			],
			"min":[
				-3.043616771697998,
				0,
				-2.6982529163360596
			],
			"type":"VEC3"
		},
		{
			"bufferView":1,
			"componentType":5126,
			"count":30691,
			"type":"VEC3"
		},
		{
			"bufferView":2,
			"componentType":5126,
			"count":30691,
			"type":"VEC2"
		},
		{
			"bufferView":3,
			"componentType":5126,
			"count":30691,
			"type":"VEC2"
		},
		{
			"bufferView":4,
			"componentType":5123,
			"count":47439,
			"type":"SCALAR"
		}
	],
	"bufferViews":[
		{
			"buffer":0,
			"byteLength":368292,
			"byteOffset":0,
			"target":34962
		},
		{
			"buffer":0,
			"byteLength":368292,
			"byteOffset":368292,
			"target":34962
		},
		{
			"buffer":0,
			"byteLength":245528,
			"byteOffset":736584,
			"target":34962
		},
		{
			"buffer":0,
			"byteLength":245528,
			"byteOffset":982112,
			"target":34962
		},
		{
			"buffer":0,
			"byteLength":94878,
			"byteOffset":1227640,
			"target":34963
		}
	],
	"samplers":[
		{
			"magFilter":9729,
			"minFilter":9987
		}
	],
	"buffers":[
		{
			"byteLength":1322520,
			"uri":"env_siege_tower.bin"
		}
	]
}
