{
	"asset":{
		"generator":"Khronos glTF Blender I/O v5.1.20",
		"version":"2.0"
	},
	"scene":0,
	"scenes":[
		{
			"name":"Scene",
			"nodes":[
				0
			]
		}
	],
	"nodes":[
		{
			"mesh":0,
			"name":"env_tree_large2"
		}
	],
	"materials":[
		{
			"doubleSided":true,
			"emissiveFactor":[
				1,
				1,
				1
			],
			"emissiveTexture":{
				"index":0
			},
			"name":"knights_mat",
			"pbrMetallicRoughness":{
				"baseColorTexture":{
					"index":1
				},
				"metallicFactor":0,
				"roughnessFactor":0.8999999761581421
			}
		}
	],
	"meshes":[
		{
			"name":"Mesh",
			"primitives":[
				{
					"attributes":{
						"POSITION":0,
						"NORMAL":1,
						"TEXCOORD_0":2,
						"TEXCOORD_1":3,
						"COLOR_0":4,
						"COLOR_1":5
					},
					"indices":6,
					"material":0
				}
			]
		}
	],
	"textures":[
		{
			"sampler":0,
			"source":0
		},
		{
			"sampler":0,
			"source":1
		}
	],
	"images":[
		{
			"mimeType":"image/png",
			"name":"PolygonFantasyKingdom_Texture_Emmisive",
			"uri":"PolygonFantasyKingdom_Texture_Emmisive.png"
		},
		{
			"mimeType":"image/png",
			"name":"PolygonFantasyKingdom_Texture_01_A",
			"uri":"PolygonFantasyKingdom_Texture_01_A.png"
		}
	],
	"accessors":[
		{
			"bufferView":0,
			"componentType":5126,
			"count":8126,
			"max":[
				9.046757698059082,
				13.732407569885254,
				5.757885456085205
			],
			"min":[
				-9.046757698059082,
				0,
				-5.757885456085205
			],
			"type":"VEC3"
		},
		{
			"bufferView":1,
			"componentType":5126,
			"count":8126,
			"type":"VEC3"
		},
		{
			"bufferView":2,
			"componentType":5126,
			"count":8126,
			"type":"VEC2"
		},
		{
			"bufferView":3,
			"componentType":5126,
			"count":8126,
			"type":"VEC2"
		},
		{
			"bufferView":4,
			"componentType":5121,
			"count":8126,
			"normalized":true,
			"type":"VEC4"
		},
		{
			"bufferView":5,
			"componentType":5123,
			"count":8126,
			"normalized":true,
			"type":"VEC4"
		},
		{
			"bufferView":6,
			"componentType":5123,
			"count":8625,
			"type":"SCALAR"
		}
	],
	"bufferViews":[
		{
			"buffer":0,
			"byteLength":97512,
			"byteOffset":0,
			"target":34962
		},
		{
			"buffer":0,
			"byteLength":97512,
			"byteOffset":97512,
			"target":34962
		},
		{
			"buffer":0,
			"byteLength":65008,
			"byteOffset":195024,
			"target":34962
		},
		{
			"buffer":0,
			"byteLength":65008,
			"byteOffset":260032,
			"target":34962
		},
		{
			"buffer":0,
			"byteLength":32504,
			"byteOffset":325040,
			"target":34962
		},
		{
			"buffer":0,
			"byteLength":65008,
			"byteOffset":357544,
			"target":34962
		},
		{
			"buffer":0,
			"byteLength":17250,
			"byteOffset":422552,
			"target":34963
		}
	],
	"samplers":[
		{
			"magFilter":9729,
			"minFilter":9987
		}
	],
	"buffers":[
		{
			"byteLength":439804,
			"uri":"env_tree_large2.bin"
		}
	]
}
