{
	"asset":{
		"generator":"Khronos glTF Blender I/O v5.1.20",
		"version":"2.0"
	},
	"scene":0,
	"scenes":[
		{
			"name":"Scene",
			"nodes":[
				0
			]
		}
	],
	"nodes":[
		{
			"mesh":0,
			"name":"env_tree_large"
		}
	],
	"materials":[
		{
			"doubleSided":true,
			"emissiveFactor":[
				1,
				1,
				1
			],
			"emissiveTexture":{
				"index":0
			},
			"name":"knights_mat",
			"pbrMetallicRoughness":{
				"baseColorTexture":{
					"index":1
				},
				"metallicFactor":0,
				"roughnessFactor":0.8999999761581421
			}
		}
	],
	"meshes":[
		{
			"name":"Mesh",
			"primitives":[
				{
					"attributes":{
						"POSITION":0,
						"NORMAL":1,
						"TEXCOORD_0":2,
						"TEXCOORD_1":3,
						"COLOR_0":4,
						"COLOR_1":5
					},
					"indices":6,
					"material":0
				}
			]
		}
	],
	"textures":[
		{
			"sampler":0,
			"source":0
		},
		{
			"sampler":0,
			"source":1
		}
	],
	"images":[
		{
			"mimeType":"image/png",
			"name":"PolygonFantasyKingdom_Texture_Emmisive",
			"uri":"PolygonFantasyKingdom_Texture_Emmisive.png"
		},
		{
			"mimeType":"image/png",
			"name":"PolygonFantasyKingdom_Texture_01_A",
			"uri":"PolygonFantasyKingdom_Texture_01_A.png"
		}
	],
	"accessors":[
		{
			"bufferView":0,
			"componentType":5126,
			"count":6169,
			"max":[
				7.263710975646973,
				16.887941360473633,
				4.941601276397705
			],
			"min":[
				-7.263710975646973,
				0,
				-4.941601276397705
			],
			"type":"VEC3"
		},
		{
			"bufferView":1,
			"componentType":5126,
			"count":6169,
			"type":"VEC3"
		},
		{
			"bufferView":2,
			"componentType":5126,
			"count":6169,
			"type":"VEC2"
		},
		{
			"bufferView":3,
			"componentType":5126,
			"count":6169,
			"type":"VEC2"
		},
		{
			"bufferView":4,
			"componentType":5121,
			"count":6169,
			"normalized":true,
			"type":"VEC4"
		},
		{
			"bufferView":5,
			"componentType":5123,
			"count":6169,
			"normalized":true,
			"type":"VEC4"
		},
		{
			"bufferView":6,
			"componentType":5123,
			"count":6666,
			"type":"SCALAR"
		}
	],
	"bufferViews":[
		{
			"buffer":0,
			"byteLength":74028,
			"byteOffset":0,
			"target":34962
		},
		{
			"buffer":0,
			"byteLength":74028,
			"byteOffset":74028,
			"target":34962
		},
		{
			"buffer":0,
			"byteLength":49352,
			"byteOffset":148056,
			"target":34962
		},
		{
			"buffer":0,
			"byteLength":49352,
			"byteOffset":197408,
			"target":34962
		},
		{
			"buffer":0,
			"byteLength":24676,
			"byteOffset":246760,
			"target":34962
		},
		{
			"buffer":0,
			"byteLength":49352,
			"byteOffset":271436,
			"target":34962
		},
		{
			"buffer":0,
			"byteLength":13332,
			"byteOffset":320788,
			"target":34963
		}
	],
	"samplers":[
		{
			"magFilter":9729,
			"minFilter":9987
		}
	],
	"buffers":[
		{
			"byteLength":334120,
			"uri":"env_tree_large.bin"
		}
	]
}
