{
	"asset":{
		"generator":"Khronos glTF Blender I/O v5.1.20",
		"version":"2.0"
	},
	"scene":0,
	"scenes":[
		{
			"name":"Scene",
			"nodes":[
				0
			]
		}
	],
	"nodes":[
		{
			"mesh":0,
			"name":"env_stonewall2"
		}
	],
	"materials":[
		{
			"doubleSided":true,
			"emissiveFactor":[
				1,
				1,
				1
			],
			"emissiveTexture":{
				"index":0
			},
			"name":"knights_mat",
			"pbrMetallicRoughness":{
				"baseColorTexture":{
					"index":1
				},
				"metallicFactor":0,
				"roughnessFactor":0.8999999761581421
			}
		}
	],
	"meshes":[
		{
			"name":"Mesh",
			"primitives":[
				{
					"attributes":{
						"POSITION":0,
						"NORMAL":1,
						"TEXCOORD_0":2,
						"TEXCOORD_1":3
					},
					"indices":4,
					"material":0
				}
			]
		}
	],
	"textures":[
		{
			"sampler":0,
			"source":0
		},
		{
			"sampler":0,
			"source":1
		}
	],
	"images":[
		{
			"mimeType":"image/png",
			"name":"PolygonFantasyKingdom_Texture_Emmisive",
			"uri":"PolygonFantasyKingdom_Texture_Emmisive.png"
		},
		{
			"mimeType":"image/png",
			"name":"PolygonFantasyKingdom_Texture_01_A",
			"uri":"PolygonFantasyKingdom_Texture_01_A.png"
		}
	],
	"accessors":[
		{
			"bufferView":0,
			"componentType":5126,
			"count":1628,
			"max":[
				2.1284573078155518,
				1.0762447118759155,
				0.30398035049438477
			],
			"min":[
				-2.1284570693969727,
				0,
				-0.30398035049438477
			],
			"type":"VEC3"
		},
		{
			"bufferView":1,
			"componentType":5126,
			"count":1628,
			"type":"VEC3"
		},
		{
			"bufferView":2,
			"componentType":5126,
			"count":1628,
			"type":"VEC2"
		},
		{
			"bufferView":3,
			"componentType":5126,
			"count":1628,
			"type":"VEC2"
		},
		{
			"bufferView":4,
			"componentType":5123,
			"count":1644,
			"type":"SCALAR"
		}
	],
	"bufferViews":[
		{
			"buffer":0,
			"byteLength":19536,
			"byteOffset":0,
			"target":34962
		},
		{
			"buffer":0,
			"byteLength":19536,
			"byteOffset":19536,
			"target":34962
		},
		{
			"buffer":0,
			"byteLength":13024,
			"byteOffset":39072,
			"target":34962
		},
		{
			"buffer":0,
			"byteLength":13024,
			"byteOffset":52096,
			"target":34962
		},
		{
			"buffer":0,
			"byteLength":3288,
			"byteOffset":65120,
			"target":34963
		}
	],
	"samplers":[
		{
			"magFilter":9729,
			"minFilter":9987
		}
	],
	"buffers":[
		{
			"byteLength":68408,
			"uri":"env_stonewall2.bin"
		}
	]
}
