{
	"asset":{
		"generator":"Khronos glTF Blender I/O v5.1.20",
		"version":"2.0"
	},
	"scene":0,
	"scenes":[
		{
			"name":"Scene",
			"nodes":[
				0
			]
		}
	],
	"nodes":[
		{
			"mesh":0,
			"name":"env_sunflower"
		}
	],
	"materials":[
		{
			"doubleSided":true,
			"emissiveFactor":[
				1,
				1,
				1
			],
			"emissiveTexture":{
				"index":0
			},
			"name":"knights_mat",
			"pbrMetallicRoughness":{
				"baseColorTexture":{
					"index":1
				},
				"metallicFactor":0,
				"roughnessFactor":0.8999999761581421
			}
		}
	],
	"meshes":[
		{
			"name":"Mesh",
			"primitives":[
				{
					"attributes":{
						"POSITION":0,
						"NORMAL":1,
						"TEXCOORD_0":2,
						"TEXCOORD_1":3,
						"TEXCOORD_2":4
					},
					"indices":5,
					"material":0
				}
			]
		}
	],
	"textures":[
		{
			"sampler":0,
			"source":0
		},
		{
			"sampler":0,
			"source":1
		}
	],
	"images":[
		{
			"mimeType":"image/png",
			"name":"PolygonFantasyKingdom_Texture_Emmisive",
			"uri":"PolygonFantasyKingdom_Texture_Emmisive.png"
		},
		{
			"mimeType":"image/png",
			"name":"PolygonFantasyKingdom_Texture_01_A",
			"uri":"PolygonFantasyKingdom_Texture_01_A.png"
		}
	],
	"accessors":[
		{
			"bufferView":0,
			"componentType":5126,
			"count":455,
			"max":[
				0.27116963267326355,
				1.5740950107574463,
				0.264414519071579
			],
			"min":[
				-0.2711690366268158,
				7.831051918039122e-10,
				-0.2644149661064148
			],
			"type":"VEC3"
		},
		{
			"bufferView":1,
			"componentType":5126,
			"count":455,
			"type":"VEC3"
		},
		{
			"bufferView":2,
			"componentType":5126,
			"count":455,
			"type":"VEC2"
		},
		{
			"bufferView":3,
			"componentType":5126,
			"count":455,
			"type":"VEC2"
		},
		{
			"bufferView":4,
			"componentType":5126,
			"count":455,
			"type":"VEC2"
		},
		{
			"bufferView":5,
			"componentType":5123,
			"count":471,
			"type":"SCALAR"
		}
	],
	"bufferViews":[
		{
			"buffer":0,
			"byteLength":5460,
			"byteOffset":0,
			"target":34962
		},
		{
			"buffer":0,
			"byteLength":5460,
			"byteOffset":5460,
			"target":34962
		},
		{
			"buffer":0,
			"byteLength":3640,
			"byteOffset":10920,
			"target":34962
		},
		{
			"buffer":0,
			"byteLength":3640,
			"byteOffset":14560,
			"target":34962
		},
		{
			"buffer":0,
			"byteLength":3640,
			"byteOffset":18200,
			"target":34962
		},
		{
			"buffer":0,
			"byteLength":942,
			"byteOffset":21840,
			"target":34963
		}
	],
	"samplers":[
		{
			"magFilter":9729,
			"minFilter":9987
		}
	],
	"buffers":[
		{
			"byteLength":22784,
			"uri":"env_sunflower.bin"
		}
	]
}
