{
	"asset":{
		"generator":"Khronos glTF Blender I/O v5.1.20",
		"version":"2.0"
	},
	"scene":0,
	"scenes":[
		{
			"name":"Scene",
			"nodes":[
				0
			]
		}
	],
	"nodes":[
		{
			"mesh":0,
			"name":"kn_bld_temple"
		}
	],
	"materials":[
		{
			"doubleSided":true,
			"name":"knights_tiling_mat",
			"pbrMetallicRoughness":{
				"baseColorTexture":{
					"index":0
				},
				"metallicFactor":0,
				"roughnessFactor":0.8999999761581421
			}
		}
	],
	"meshes":[
		{
			"name":"Mesh",
			"primitives":[
				{
					"attributes":{
						"POSITION":0,
						"NORMAL":1,
						"TEXCOORD_0":2,
						"TEXCOORD_1":3
					},
					"indices":4,
					"material":0
				}
			]
		}
	],
	"textures":[
		{
			"sampler":0,
			"source":0
		}
	],
	"images":[
		{
			"mimeType":"image/png",
			"name":"PolygonFantasyKingdon_Texture_Wall_Large_Brick_01",
			"uri":"PolygonFantasyKingdon_Texture_Wall_Large_Brick_01.png"
		}
	],
	"accessors":[
		{
			"bufferView":0,
			"componentType":5126,
			"count":35575,
			"max":[
				3.2240781784057617,
				11.739725112915039,
				5.458684921264648
			],
			"min":[
				-3.2240781784057617,
				0,
				-5.458684921264648
			],
			"type":"VEC3"
		},
		{
			"bufferView":1,
			"componentType":5126,
			"count":35575,
			"type":"VEC3"
		},
		{
			"bufferView":2,
			"componentType":5126,
			"count":35575,
			"type":"VEC2"
		},
		{
			"bufferView":3,
			"componentType":5126,
			"count":35575,
			"type":"VEC2"
		},
		{
			"bufferView":4,
			"componentType":5123,
			"count":57852,
			"type":"SCALAR"
		}
	],
	"bufferViews":[
		{
			"buffer":0,
			"byteLength":426900,
			"byteOffset":0,
			"target":34962
		},
		{
			"buffer":0,
			"byteLength":426900,
			"byteOffset":426900,
			"target":34962
		},
		{
			"buffer":0,
			"byteLength":284600,
			"byteOffset":853800,
			"target":34962
		},
		{
			"buffer":0,
			"byteLength":284600,
			"byteOffset":1138400,
			"target":34962
		},
		{
			"buffer":0,
			"byteLength":115704,
			"byteOffset":1423000,
			"target":34963
		}
	],
	"samplers":[
		{
			"magFilter":9729,
			"minFilter":9987
		}
	],
	"buffers":[
		{
			"byteLength":1538704,
			"uri":"kn_bld_temple.bin"
		}
	]
}
