{
	"asset":{
		"generator":"Khronos glTF Blender I/O v5.1.20",
		"version":"2.0"
	},
	"scene":0,
	"scenes":[
		{
			"name":"Scene",
			"nodes":[
				0
			]
		}
	],
	"nodes":[
		{
			"mesh":0,
			"name":"kn_bld_forge"
		}
	],
	"materials":[
		{
			"doubleSided":true,
			"emissiveFactor":[
				1,
				1,
				1
			],
			"emissiveTexture":{
				"index":0
			},
			"name":"knights_mat",
			"pbrMetallicRoughness":{
				"baseColorTexture":{
					"index":1
				},
				"metallicFactor":0,
				"roughnessFactor":0.8999999761581421
			}
		}
	],
	"meshes":[
		{
			"name":"Mesh",
			"primitives":[
				{
					"attributes":{
						"POSITION":0,
						"NORMAL":1,
						"TEXCOORD_0":2,
						"TEXCOORD_1":3
					},
					"indices":4,
					"material":0
				}
			]
		}
	],
	"textures":[
		{
			"sampler":0,
			"source":0
		},
		{
			"sampler":0,
			"source":1
		}
	],
	"images":[
		{
			"mimeType":"image/png",
			"name":"PolygonFantasyKingdom_Texture_Emmisive",
			"uri":"PolygonFantasyKingdom_Texture_Emmisive.png"
		},
		{
			"mimeType":"image/png",
			"name":"PolygonFantasyKingdom_Texture_01_A",
			"uri":"PolygonFantasyKingdom_Texture_01_A.png"
		}
	],
	"accessors":[
		{
			"bufferView":0,
			"componentType":5126,
			"count":45773,
			"max":[
				6.349078178405762,
				10.982624053955078,
				5.16900110244751
			],
			"min":[
				-6.349078178405762,
				0,
				-5.16900110244751
			],
			"type":"VEC3"
		},
		{
			"bufferView":1,
			"componentType":5126,
			"count":45773,
			"type":"VEC3"
		},
		{
			"bufferView":2,
			"componentType":5126,
			"count":45773,
			"type":"VEC2"
		},
		{
			"bufferView":3,
			"componentType":5126,
			"count":45773,
			"type":"VEC2"
		},
		{
			"bufferView":4,
			"componentType":5123,
			"count":57879,
			"type":"SCALAR"
		}
	],
	"bufferViews":[
		{
			"buffer":0,
			"byteLength":549276,
			"byteOffset":0,
			"target":34962
		},
		{
			"buffer":0,
			"byteLength":549276,
			"byteOffset":549276,
			"target":34962
		},
		{
			"buffer":0,
			"byteLength":366184,
			"byteOffset":1098552,
			"target":34962
		},
		{
			"buffer":0,
			"byteLength":366184,
			"byteOffset":1464736,
			"target":34962
		},
		{
			"buffer":0,
			"byteLength":115758,
			"byteOffset":1830920,
			"target":34963
		}
	],
	"samplers":[
		{
			"magFilter":9729,
			"minFilter":9987
		}
	],
	"buffers":[
		{
			"byteLength":1946680,
			"uri":"kn_bld_forge.bin"
		}
	]
}
