{
	"asset":{
		"generator":"Khronos glTF Blender I/O v5.1.20",
		"version":"2.0"
	},
	"scene":0,
	"scenes":[
		{
			"name":"Scene",
			"nodes":[
				0
			]
		}
	],
	"nodes":[
		{
			"mesh":0,
			"name":"kn_bld_techlab"
		}
	],
	"materials":[
		{
			"doubleSided":true,
			"emissiveFactor":[
				1,
				1,
				1
			],
			"emissiveTexture":{
				"index":0
			},
			"name":"knights_mat",
			"pbrMetallicRoughness":{
				"baseColorTexture":{
					"index":1
				},
				"metallicFactor":0,
				"roughnessFactor":0.8999999761581421
			}
		}
	],
	"meshes":[
		{
			"name":"Mesh",
			"primitives":[
				{
					"attributes":{
						"POSITION":0,
						"NORMAL":1,
						"TEXCOORD_0":2,
						"TEXCOORD_1":3
					},
					"indices":4,
					"material":0
				}
			]
		}
	],
	"textures":[
		{
			"sampler":0,
			"source":0
		},
		{
			"sampler":0,
			"source":1
		}
	],
	"images":[
		{
			"mimeType":"image/png",
			"name":"PolygonFantasyKingdom_Texture_Emmisive",
			"uri":"PolygonFantasyKingdom_Texture_Emmisive.png"
		},
		{
			"mimeType":"image/png",
			"name":"PolygonFantasyKingdom_Texture_01_A",
			"uri":"PolygonFantasyKingdom_Texture_01_A.png"
		}
	],
	"accessors":[
		{
			"bufferView":0,
			"componentType":5126,
			"count":33588,
			"max":[
				4.278591156005859,
				10.907462120056152,
				4.3064284324646
			],
			"min":[
				-4.278591156005859,
				0,
				-4.3064284324646
			],
			"type":"VEC3"
		},
		{
			"bufferView":1,
			"componentType":5126,
			"count":33588,
			"type":"VEC3"
		},
		{
			"bufferView":2,
			"componentType":5126,
			"count":33588,
			"type":"VEC2"
		},
		{
			"bufferView":3,
			"componentType":5126,
			"count":33588,
			"type":"VEC2"
		},
		{
			"bufferView":4,
			"componentType":5123,
			"count":53667,
			"type":"SCALAR"
		}
	],
	"bufferViews":[
		{
			"buffer":0,
			"byteLength":403056,
			"byteOffset":0,
			"target":34962
		},
		{
			"buffer":0,
			"byteLength":403056,
			"byteOffset":403056,
			"target":34962
		},
		{
			"buffer":0,
			"byteLength":268704,
			"byteOffset":806112,
			"target":34962
		},
		{
			"buffer":0,
			"byteLength":268704,
			"byteOffset":1074816,
			"target":34962
		},
		{
			"buffer":0,
			"byteLength":107334,
			"byteOffset":1343520,
			"target":34963
		}
	],
	"samplers":[
		{
			"magFilter":9729,
			"minFilter":9987
		}
	],
	"buffers":[
		{
			"byteLength":1450856,
			"uri":"kn_bld_techlab.bin"
		}
	]
}
