{
	"asset":{
		"generator":"Khronos glTF Blender I/O v5.1.20",
		"version":"2.0"
	},
	"scene":0,
	"scenes":[
		{
			"name":"Scene",
			"nodes":[
				0
			]
		}
	],
	"nodes":[
		{
			"mesh":0,
			"name":"kn_catapult"
		}
	],
	"materials":[
		{
			"doubleSided":true,
			"name":"knights_tiling_mat",
			"pbrMetallicRoughness":{
				"baseColorTexture":{
					"index":0
				},
				"metallicFactor":0,
				"roughnessFactor":0.8999999761581421
			}
		}
	],
	"meshes":[
		{
			"name":"Mesh",
			"primitives":[
				{
					"attributes":{
						"POSITION":0,
						"NORMAL":1,
						"TEXCOORD_0":2,
						"TEXCOORD_1":3
					},
					"indices":4,
					"material":0
				}
			]
		}
	],
	"textures":[
		{
			"sampler":0,
			"source":0
		}
	],
	"images":[
		{
			"mimeType":"image/png",
			"name":"PolygonFantasyKingdon_Texture_Wall_Large_Brick_01",
			"uri":"PolygonFantasyKingdon_Texture_Wall_Large_Brick_01.png"
		}
	],
	"accessors":[
		{
			"bufferView":0,
			"componentType":5126,
			"count":15228,
			"max":[
				1.382800579071045,
				3.4632112979888916,
				2.7193496227264404
			],
			"min":[
				-1.382800579071045,
				-7.71100872043462e-08,
				-2.7193498611450195
			],
			"type":"VEC3"
		},
		{
			"bufferView":1,
			"componentType":5126,
			"count":15228,
			"type":"VEC3"
		},
		{
			"bufferView":2,
			"componentType":5126,
			"count":15228,
			"type":"VEC2"
		},
		{
			"bufferView":3,
			"componentType":5126,
			"count":15228,
			"type":"VEC2"
		},
		{
			"bufferView":4,
			"componentType":5123,
			"count":22398,
			"type":"SCALAR"
		}
	],
	"bufferViews":[
		{
			"buffer":0,
			"byteLength":182736,
			"byteOffset":0,
			"target":34962
		},
		{
			"buffer":0,
			"byteLength":182736,
			"byteOffset":182736,
			"target":34962
		},
		{
			"buffer":0,
			"byteLength":121824,
			"byteOffset":365472,
			"target":34962
		},
		{
			"buffer":0,
			"byteLength":121824,
			"byteOffset":487296,
			"target":34962
		},
		{
			"buffer":0,
			"byteLength":44796,
			"byteOffset":609120,
			"target":34963
		}
	],
	"samplers":[
		{
			"magFilter":9729,
			"minFilter":9987
		}
	],
	"buffers":[
		{
			"byteLength":653916,
			"uri":"kn_catapult.bin"
		}
	]
}
