{
	"asset":{
		"generator":"Khronos glTF Blender I/O v5.1.20",
		"version":"2.0"
	},
	"scene":0,
	"scenes":[
		{
			"name":"Scene",
			"nodes":[
				0
			]
		}
	],
	"nodes":[
		{
			"mesh":0,
			"name":"kn_trebuchet"
		}
	],
	"materials":[
		{
			"doubleSided":true,
			"emissiveFactor":[
				1,
				1,
				1
			],
			"emissiveTexture":{
				"index":0
			},
			"name":"knights_mat",
			"pbrMetallicRoughness":{
				"baseColorTexture":{
					"index":1
				},
				"metallicFactor":0,
				"roughnessFactor":0.8999999761581421
			}
		}
	],
	"meshes":[
		{
			"name":"Mesh",
			"primitives":[
				{
					"attributes":{
						"POSITION":0,
						"NORMAL":1,
						"TEXCOORD_0":2,
						"TEXCOORD_1":3,
						"TEXCOORD_2":4
					},
					"indices":5,
					"material":0
				}
			]
		}
	],
	"textures":[
		{
			"sampler":0,
			"source":0
		},
		{
			"sampler":0,
			"source":1
		}
	],
	"images":[
		{
			"mimeType":"image/png",
			"name":"PolygonFantasyKingdom_Texture_Emmisive",
			"uri":"PolygonFantasyKingdom_Texture_Emmisive.png"
		},
		{
			"mimeType":"image/png",
			"name":"PolygonFantasyKingdom_Texture_01_A",
			"uri":"PolygonFantasyKingdom_Texture_01_A.png"
		}
	],
	"accessors":[
		{
			"bufferView":0,
			"componentType":5126,
			"count":13155,
			"max":[
				2.5989785194396973,
				5.8406500816345215,
				6.013368606567383
			],
			"min":[
				-2.5989785194396973,
				0,
				-6.013368606567383
			],
			"type":"VEC3"
		},
		{
			"bufferView":1,
			"componentType":5126,
			"count":13155,
			"type":"VEC3"
		},
		{
			"bufferView":2,
			"componentType":5126,
			"count":13155,
			"type":"VEC2"
		},
		{
			"bufferView":3,
			"componentType":5126,
			"count":13155,
			"type":"VEC2"
		},
		{
			"bufferView":4,
			"componentType":5126,
			"count":13155,
			"type":"VEC2"
		},
		{
			"bufferView":5,
			"componentType":5123,
			"count":18744,
			"type":"SCALAR"
		}
	],
	"bufferViews":[
		{
			"buffer":0,
			"byteLength":157860,
			"byteOffset":0,
			"target":34962
		},
		{
			"buffer":0,
			"byteLength":157860,
			"byteOffset":157860,
			"target":34962
		},
		{
			"buffer":0,
			"byteLength":105240,
			"byteOffset":315720,
			"target":34962
		},
		{
			"buffer":0,
			"byteLength":105240,
			"byteOffset":420960,
			"target":34962
		},
		{
			"buffer":0,
			"byteLength":105240,
			"byteOffset":526200,
			"target":34962
		},
		{
			"buffer":0,
			"byteLength":37488,
			"byteOffset":631440,
			"target":34963
		}
	],
	"samplers":[
		{
			"magFilter":9729,
			"minFilter":9987
		}
	],
	"buffers":[
		{
			"byteLength":668928,
			"uri":"kn_trebuchet.bin"
		}
	]
}
