{
	"asset":{
		"generator":"Khronos glTF Blender I/O v5.1.20",
		"version":"2.0"
	},
	"scene":0,
	"scenes":[
		{
			"name":"Scene",
			"nodes":[
				0
			]
		}
	],
	"nodes":[
		{
			"mesh":0,
			"name":"prop_dead_pile"
		}
	],
	"materials":[
		{
			"doubleSided":true,
			"emissiveFactor":[
				1,
				1,
				1
			],
			"emissiveTexture":{
				"index":0
			},
			"name":"knights_mat",
			"pbrMetallicRoughness":{
				"baseColorTexture":{
					"index":1
				},
				"metallicFactor":0,
				"roughnessFactor":0.8999999761581421
			}
		}
	],
	"meshes":[
		{
			"name":"Mesh",
			"primitives":[
				{
					"attributes":{
						"POSITION":0,
						"NORMAL":1,
						"TEXCOORD_0":2,
						"TEXCOORD_1":3,
						"TEXCOORD_2":4,
						"COLOR_0":5,
						"COLOR_1":6
					},
					"indices":7,
					"material":0
				}
			]
		}
	],
	"textures":[
		{
			"sampler":0,
			"source":0
		},
		{
			"sampler":0,
			"source":1
		}
	],
	"images":[
		{
			"mimeType":"image/png",
			"name":"PolygonFantasyKingdom_Texture_Emmisive",
			"uri":"PolygonFantasyKingdom_Texture_Emmisive.png"
		},
		{
			"mimeType":"image/png",
			"name":"PolygonFantasyKingdom_Texture_01_A",
			"uri":"PolygonFantasyKingdom_Texture_01_A.png"
		}
	],
	"accessors":[
		{
			"bufferView":0,
			"componentType":5126,
			"count":28017,
			"max":[
				1.26422119140625,
				1.2275623083114624,
				1.5935090780258179
			],
			"min":[
				-1.26422119140625,
				0,
				-1.5935090780258179
			],
			"type":"VEC3"
		},
		{
			"bufferView":1,
			"componentType":5126,
			"count":28017,
			"type":"VEC3"
		},
		{
			"bufferView":2,
			"componentType":5126,
			"count":28017,
			"type":"VEC2"
		},
		{
			"bufferView":3,
			"componentType":5126,
			"count":28017,
			"type":"VEC2"
		},
		{
			"bufferView":4,
			"componentType":5126,
			"count":28017,
			"type":"VEC2"
		},
		{
			"bufferView":5,
			"componentType":5121,
			"count":28017,
			"normalized":true,
			"type":"VEC4"
		},
		{
			"bufferView":6,
			"componentType":5123,
			"count":28017,
			"normalized":true,
			"type":"VEC4"
		},
		{
			"bufferView":7,
			"componentType":5123,
			"count":31410,
			"type":"SCALAR"
		}
	],
	"bufferViews":[
		{
			"buffer":0,
			"byteLength":336204,
			"byteOffset":0,
			"target":34962
		},
		{
			"buffer":0,
			"byteLength":336204,
			"byteOffset":336204,
			"target":34962
		},
		{
			"buffer":0,
			"byteLength":224136,
			"byteOffset":672408,
			"target":34962
		},
		{
			"buffer":0,
			"byteLength":224136,
			"byteOffset":896544,
			"target":34962
		},
		{
			"buffer":0,
			"byteLength":224136,
			"byteOffset":1120680,
			"target":34962
		},
		{
			"buffer":0,
			"byteLength":112068,
			"byteOffset":1344816,
			"target":34962
		},
		{
			"buffer":0,
			"byteLength":224136,
			"byteOffset":1456884,
			"target":34962
		},
		{
			"buffer":0,
			"byteLength":62820,
			"byteOffset":1681020,
			"target":34963
		}
	],
	"samplers":[
		{
			"magFilter":9729,
			"minFilter":9987
		}
	],
	"buffers":[
		{
			"byteLength":1743840,
			"uri":"prop_dead_pile.bin"
		}
	]
}
