{
	"asset":{
		"generator":"Khronos glTF Blender I/O v5.1.20",
		"version":"2.0"
	},
	"scene":0,
	"scenes":[
		{
			"name":"Scene",
			"nodes":[
				0
			]
		}
	],
	"nodes":[
		{
			"mesh":0,
			"name":"prop_torch"
		}
	],
	"materials":[
		{
			"doubleSided":true,
			"emissiveFactor":[
				1,
				1,
				1
			],
			"emissiveTexture":{
				"index":0
			},
			"name":"knights_mat",
			"pbrMetallicRoughness":{
				"baseColorTexture":{
					"index":1
				},
				"metallicFactor":0,
				"roughnessFactor":0.8999999761581421
			}
		}
	],
	"meshes":[
		{
			"name":"Mesh",
			"primitives":[
				{
					"attributes":{
						"POSITION":0,
						"NORMAL":1,
						"TEXCOORD_0":2,
						"TEXCOORD_1":3
					},
					"indices":4,
					"material":0
				},
				{
					"attributes":{
						"POSITION":5,
						"NORMAL":6,
						"TEXCOORD_0":7,
						"TEXCOORD_1":8
					},
					"indices":9,
					"material":0
				}
			]
		}
	],
	"textures":[
		{
			"sampler":0,
			"source":0
		},
		{
			"sampler":0,
			"source":1
		}
	],
	"images":[
		{
			"mimeType":"image/png",
			"name":"PolygonFantasyKingdom_Texture_Emmisive",
			"uri":"PolygonFantasyKingdom_Texture_Emmisive.png"
		},
		{
			"mimeType":"image/png",
			"name":"PolygonFantasyKingdom_Texture_01_A",
			"uri":"PolygonFantasyKingdom_Texture_01_A.png"
		}
	],
	"accessors":[
		{
			"bufferView":0,
			"componentType":5126,
			"count":169,
			"max":[
				0.09789787977933884,
				0.8978937268257141,
				0.1405639797449112
			],
			"min":[
				-0.09789799153804779,
				0.5297520160675049,
				-0.055231913924217224
			],
			"type":"VEC3"
		},
		{
			"bufferView":1,
			"componentType":5126,
			"count":169,
			"type":"VEC3"
		},
		{
			"bufferView":2,
			"componentType":5126,
			"count":169,
			"type":"VEC2"
		},
		{
			"bufferView":3,
			"componentType":5126,
			"count":169,
			"type":"VEC2"
		},
		{
			"bufferView":4,
			"componentType":5123,
			"count":264,
			"type":"SCALAR"
		},
		{
			"bufferView":5,
			"componentType":5126,
			"count":456,
			"max":[
				0.1198357567191124,
				0.7170553803443909,
				0.16152550280094147
			],
			"min":[
				-0.1198357567191124,
				0,
				-0.16152548789978027
			],
			"type":"VEC3"
		},
		{
			"bufferView":6,
			"componentType":5126,
			"count":456,
			"type":"VEC3"
		},
		{
			"bufferView":7,
			"componentType":5126,
			"count":456,
			"type":"VEC2"
		},
		{
			"bufferView":8,
			"componentType":5126,
			"count":456,
			"type":"VEC2"
		},
		{
			"bufferView":9,
			"componentType":5123,
			"count":690,
			"type":"SCALAR"
		}
	],
	"bufferViews":[
		{
			"buffer":0,
			"byteLength":2028,
			"byteOffset":0,
			"target":34962
		},
		{
			"buffer":0,
			"byteLength":2028,
			"byteOffset":2028,
			"target":34962
		},
		{
			"buffer":0,
			"byteLength":1352,
			"byteOffset":4056,
			"target":34962
		},
		{
			"buffer":0,
			"byteLength":1352,
			"byteOffset":5408,
			"target":34962
		},
		{
			"buffer":0,
			"byteLength":528,
			"byteOffset":6760,
			"target":34963
		},
		{
			"buffer":0,
			"byteLength":5472,
			"byteOffset":7288,
			"target":34962
		},
		{
			"buffer":0,
			"byteLength":5472,
			"byteOffset":12760,
			"target":34962
		},
		{
			"buffer":0,
			"byteLength":3648,
			"byteOffset":18232,
			"target":34962
		},
		{
			"buffer":0,
			"byteLength":3648,
			"byteOffset":21880,
			"target":34962
		},
		{
			"buffer":0,
			"byteLength":1380,
			"byteOffset":25528,
			"target":34963
		}
	],
	"samplers":[
		{
			"magFilter":9729,
			"minFilter":9987
		}
	],
	"buffers":[
		{
			"byteLength":26908,
			"uri":"prop_torch.bin"
		}
	]
}
