{
	"asset":{
		"generator":"Khronos glTF Blender I/O v5.1.20",
		"version":"2.0"
	},
	"scene":0,
	"scenes":[
		{
			"name":"Scene",
			"nodes":[
				0
			]
		}
	],
	"nodes":[
		{
			"mesh":0,
			"name":"prop_statue_hero"
		}
	],
	"materials":[
		{
			"doubleSided":true,
			"emissiveFactor":[
				1,
				1,
				1
			],
			"emissiveTexture":{
				"index":0
			},
			"name":"knights_mat",
			"pbrMetallicRoughness":{
				"baseColorTexture":{
					"index":1
				},
				"metallicFactor":0,
				"roughnessFactor":0.8999999761581421
			}
		}
	],
	"meshes":[
		{
			"name":"Mesh",
			"primitives":[
				{
					"attributes":{
						"POSITION":0,
						"NORMAL":1,
						"TEXCOORD_0":2,
						"TEXCOORD_1":3,
						"TEXCOORD_2":4,
						"COLOR_0":5,
						"COLOR_1":6
					},
					"indices":7,
					"material":0
				}
			]
		}
	],
	"textures":[
		{
			"sampler":0,
			"source":0
		},
		{
			"sampler":0,
			"source":1
		}
	],
	"images":[
		{
			"mimeType":"image/png",
			"name":"PolygonFantasyKingdom_Texture_Emmisive",
			"uri":"PolygonFantasyKingdom_Texture_Emmisive.png"
		},
		{
			"mimeType":"image/png",
			"name":"PolygonFantasyKingdom_Texture_01_A",
			"uri":"PolygonFantasyKingdom_Texture_01_A.png"
		}
	],
	"accessors":[
		{
			"bufferView":0,
			"componentType":5126,
			"count":13159,
			"max":[
				0.87315833568573,
				4.391974449157715,
				0.8125600814819336
			],
			"min":[
				-0.87315833568573,
				0,
				-0.8125600814819336
			],
			"type":"VEC3"
		},
		{
			"bufferView":1,
			"componentType":5126,
			"count":13159,
			"type":"VEC3"
		},
		{
			"bufferView":2,
			"componentType":5126,
			"count":13159,
			"type":"VEC2"
		},
		{
			"bufferView":3,
			"componentType":5126,
			"count":13159,
			"type":"VEC2"
		},
		{
			"bufferView":4,
			"componentType":5126,
			"count":13159,
			"type":"VEC2"
		},
		{
			"bufferView":5,
			"componentType":5121,
			"count":13159,
			"normalized":true,
			"type":"VEC4"
		},
		{
			"bufferView":6,
			"componentType":5123,
			"count":13159,
			"normalized":true,
			"type":"VEC4"
		},
		{
			"bufferView":7,
			"componentType":5123,
			"count":19788,
			"type":"SCALAR"
		}
	],
	"bufferViews":[
		{
			"buffer":0,
			"byteLength":157908,
			"byteOffset":0,
			"target":34962
		},
		{
			"buffer":0,
			"byteLength":157908,
			"byteOffset":157908,
			"target":34962
		},
		{
			"buffer":0,
			"byteLength":105272,
			"byteOffset":315816,
			"target":34962
		},
		{
			"buffer":0,
			"byteLength":105272,
			"byteOffset":421088,
			"target":34962
		},
		{
			"buffer":0,
			"byteLength":105272,
			"byteOffset":526360,
			"target":34962
		},
		{
			"buffer":0,
			"byteLength":52636,
			"byteOffset":631632,
			"target":34962
		},
		{
			"buffer":0,
			"byteLength":105272,
			"byteOffset":684268,
			"target":34962
		},
		{
			"buffer":0,
			"byteLength":39576,
			"byteOffset":789540,
			"target":34963
		}
	],
	"samplers":[
		{
			"magFilter":9729,
			"minFilter":9987
		}
	],
	"buffers":[
		{
			"byteLength":829116,
			"uri":"prop_statue_hero.bin"
		}
	]
}
