{
	"asset":{
		"generator":"Khronos glTF Blender I/O v5.1.20",
		"version":"2.0"
	},
	"scene":0,
	"scenes":[
		{
			"name":"Scene",
			"nodes":[
				0
			]
		}
	],
	"nodes":[
		{
			"mesh":0,
			"name":"prop_statue_angel"
		}
	],
	"materials":[
		{
			"doubleSided":true,
			"emissiveFactor":[
				1,
				1,
				1
			],
			"emissiveTexture":{
				"index":0
			},
			"name":"knights_mat",
			"pbrMetallicRoughness":{
				"baseColorTexture":{
					"index":1
				},
				"metallicFactor":0,
				"roughnessFactor":0.8999999761581421
			}
		}
	],
	"meshes":[
		{
			"name":"Mesh",
			"primitives":[
				{
					"attributes":{
						"POSITION":0,
						"NORMAL":1,
						"TEXCOORD_0":2,
						"TEXCOORD_1":3,
						"TEXCOORD_2":4
					},
					"indices":5,
					"material":0
				}
			]
		}
	],
	"textures":[
		{
			"sampler":0,
			"source":0
		},
		{
			"sampler":0,
			"source":1
		}
	],
	"images":[
		{
			"mimeType":"image/png",
			"name":"PolygonFantasyKingdom_Texture_Emmisive",
			"uri":"PolygonFantasyKingdom_Texture_Emmisive.png"
		},
		{
			"mimeType":"image/png",
			"name":"PolygonFantasyKingdom_Texture_01_A",
			"uri":"PolygonFantasyKingdom_Texture_01_A.png"
		}
	],
	"accessors":[
		{
			"bufferView":0,
			"componentType":5126,
			"count":9955,
			"max":[
				1.2488701343536377,
				3.1126809120178223,
				0.9971338510513306
			],
			"min":[
				-1.2488701343536377,
				0,
				-0.9971338510513306
			],
			"type":"VEC3"
		},
		{
			"bufferView":1,
			"componentType":5126,
			"count":9955,
			"type":"VEC3"
		},
		{
			"bufferView":2,
			"componentType":5126,
			"count":9955,
			"type":"VEC2"
		},
		{
			"bufferView":3,
			"componentType":5126,
			"count":9955,
			"type":"VEC2"
		},
		{
			"bufferView":4,
			"componentType":5126,
			"count":9955,
			"type":"VEC2"
		},
		{
			"bufferView":5,
			"componentType":5123,
			"count":11715,
			"type":"SCALAR"
		}
	],
	"bufferViews":[
		{
			"buffer":0,
			"byteLength":119460,
			"byteOffset":0,
			"target":34962
		},
		{
			"buffer":0,
			"byteLength":119460,
			"byteOffset":119460,
			"target":34962
		},
		{
			"buffer":0,
			"byteLength":79640,
			"byteOffset":238920,
			"target":34962
		},
		{
			"buffer":0,
			"byteLength":79640,
			"byteOffset":318560,
			"target":34962
		},
		{
			"buffer":0,
			"byteLength":79640,
			"byteOffset":398200,
			"target":34962
		},
		{
			"buffer":0,
			"byteLength":23430,
			"byteOffset":477840,
			"target":34963
		}
	],
	"samplers":[
		{
			"magFilter":9729,
			"minFilter":9987
		}
	],
	"buffers":[
		{
			"byteLength":501272,
			"uri":"prop_statue_angel.bin"
		}
	]
}
