{
	"asset":{
		"generator":"Khronos glTF Blender I/O v5.1.20",
		"version":"2.0"
	},
	"scene":0,
	"scenes":[
		{
			"name":"Scene",
			"nodes":[
				0
			]
		}
	],
	"nodes":[
		{
			"mesh":0,
			"name":"prop_dead_soldier"
		}
	],
	"materials":[
		{
			"doubleSided":true,
			"emissiveFactor":[
				1,
				1,
				1
			],
			"emissiveTexture":{
				"index":0
			},
			"name":"knights_mat",
			"pbrMetallicRoughness":{
				"baseColorTexture":{
					"index":1
				},
				"metallicFactor":0,
				"roughnessFactor":0.8999999761581421
			}
		}
	],
	"meshes":[
		{
			"name":"Mesh",
			"primitives":[
				{
					"attributes":{
						"POSITION":0,
						"NORMAL":1,
						"TEXCOORD_0":2,
						"TEXCOORD_1":3,
						"TEXCOORD_2":4
					},
					"indices":5,
					"material":0
				}
			]
		}
	],
	"textures":[
		{
			"sampler":0,
			"source":0
		},
		{
			"sampler":0,
			"source":1
		}
	],
	"images":[
		{
			"mimeType":"image/png",
			"name":"PolygonFantasyKingdom_Texture_Emmisive",
			"uri":"PolygonFantasyKingdom_Texture_Emmisive.png"
		},
		{
			"mimeType":"image/png",
			"name":"PolygonFantasyKingdom_Texture_01_A",
			"uri":"PolygonFantasyKingdom_Texture_01_A.png"
		}
	],
	"accessors":[
		{
			"bufferView":0,
			"componentType":5126,
			"count":4446,
			"max":[
				0.4473290741443634,
				0.42870062589645386,
				0.9323136210441589
			],
			"min":[
				-0.4473290741443634,
				0,
				-0.9323135614395142
			],
			"type":"VEC3"
		},
		{
			"bufferView":1,
			"componentType":5126,
			"count":4446,
			"type":"VEC3"
		},
		{
			"bufferView":2,
			"componentType":5126,
			"count":4446,
			"type":"VEC2"
		},
		{
			"bufferView":3,
			"componentType":5126,
			"count":4446,
			"type":"VEC2"
		},
		{
			"bufferView":4,
			"componentType":5126,
			"count":4446,
			"type":"VEC2"
		},
		{
			"bufferView":5,
			"componentType":5123,
			"count":4986,
			"type":"SCALAR"
		}
	],
	"bufferViews":[
		{
			"buffer":0,
			"byteLength":53352,
			"byteOffset":0,
			"target":34962
		},
		{
			"buffer":0,
			"byteLength":53352,
			"byteOffset":53352,
			"target":34962
		},
		{
			"buffer":0,
			"byteLength":35568,
			"byteOffset":106704,
			"target":34962
		},
		{
			"buffer":0,
			"byteLength":35568,
			"byteOffset":142272,
			"target":34962
		},
		{
			"buffer":0,
			"byteLength":35568,
			"byteOffset":177840,
			"target":34962
		},
		{
			"buffer":0,
			"byteLength":9972,
			"byteOffset":213408,
			"target":34963
		}
	],
	"samplers":[
		{
			"magFilter":9729,
			"minFilter":9987
		}
	],
	"buffers":[
		{
			"byteLength":223380,
			"uri":"prop_dead_soldier.bin"
		}
	]
}
