{
	"asset":{
		"generator":"Khronos glTF Blender I/O v5.1.20",
		"version":"2.0"
	},
	"scene":0,
	"scenes":[
		{
			"name":"Scene",
			"nodes":[
				0
			]
		}
	],
	"nodes":[
		{
			"mesh":0,
			"name":"prop_dead_horse"
		}
	],
	"materials":[
		{
			"doubleSided":true,
			"emissiveFactor":[
				1,
				1,
				1
			],
			"emissiveTexture":{
				"index":0
			},
			"name":"knights_mat",
			"pbrMetallicRoughness":{
				"baseColorTexture":{
					"index":1
				},
				"metallicFactor":0,
				"roughnessFactor":0.8999999761581421
			}
		}
	],
	"meshes":[
		{
			"name":"Mesh",
			"primitives":[
				{
					"attributes":{
						"POSITION":0,
						"NORMAL":1,
						"TEXCOORD_0":2,
						"TEXCOORD_1":3
					},
					"indices":4,
					"material":0
				}
			]
		}
	],
	"textures":[
		{
			"sampler":0,
			"source":0
		},
		{
			"sampler":0,
			"source":1
		}
	],
	"images":[
		{
			"mimeType":"image/png",
			"name":"PolygonFantasyKingdom_Texture_Emmisive",
			"uri":"PolygonFantasyKingdom_Texture_Emmisive.png"
		},
		{
			"mimeType":"image/png",
			"name":"PolygonFantasyKingdom_Texture_01_A",
			"uri":"PolygonFantasyKingdom_Texture_01_A.png"
		}
	],
	"accessors":[
		{
			"bufferView":0,
			"componentType":5126,
			"count":285,
			"max":[
				0.11680561304092407,
				0.8169374465942383,
				0.20128078758716583
			],
			"min":[
				-0.11680561304092407,
				0,
				-0.20128077268600464
			],
			"type":"VEC3"
		},
		{
			"bufferView":1,
			"componentType":5126,
			"count":285,
			"type":"VEC3"
		},
		{
			"bufferView":2,
			"componentType":5126,
			"count":285,
			"type":"VEC2"
		},
		{
			"bufferView":3,
			"componentType":5126,
			"count":285,
			"type":"VEC2"
		},
		{
			"bufferView":4,
			"componentType":5123,
			"count":474,
			"type":"SCALAR"
		}
	],
	"bufferViews":[
		{
			"buffer":0,
			"byteLength":3420,
			"byteOffset":0,
			"target":34962
		},
		{
			"buffer":0,
			"byteLength":3420,
			"byteOffset":3420,
			"target":34962
		},
		{
			"buffer":0,
			"byteLength":2280,
			"byteOffset":6840,
			"target":34962
		},
		{
			"buffer":0,
			"byteLength":2280,
			"byteOffset":9120,
			"target":34962
		},
		{
			"buffer":0,
			"byteLength":948,
			"byteOffset":11400,
			"target":34963
		}
	],
	"samplers":[
		{
			"magFilter":9729,
			"minFilter":9987
		}
	],
	"buffers":[
		{
			"byteLength":12348,
			"uri":"prop_dead_horse.bin"
		}
	]
}
