{
	"asset":{
		"generator":"Khronos glTF Blender I/O v5.1.20",
		"version":"2.0"
	},
	"scene":0,
	"scenes":[
		{
			"name":"Scene",
			"nodes":[
				0
			]
		}
	],
	"nodes":[
		{
			"mesh":0,
			"name":"prop_barrel_arrows"
		}
	],
	"materials":[
		{
			"doubleSided":true,
			"emissiveFactor":[
				1,
				1,
				1
			],
			"emissiveTexture":{
				"index":0
			},
			"name":"knights_mat",
			"pbrMetallicRoughness":{
				"baseColorTexture":{
					"index":1
				},
				"metallicFactor":0,
				"roughnessFactor":0.8999999761581421
			}
		}
	],
	"meshes":[
		{
			"name":"Mesh",
			"primitives":[
				{
					"attributes":{
						"POSITION":0,
						"NORMAL":1,
						"TEXCOORD_0":2,
						"TEXCOORD_1":3
					},
					"indices":4,
					"material":0
				}
			]
		}
	],
	"textures":[
		{
			"sampler":0,
			"source":0
		},
		{
			"sampler":0,
			"source":1
		}
	],
	"images":[
		{
			"mimeType":"image/png",
			"name":"PolygonFantasyKingdom_Texture_Emmisive",
			"uri":"PolygonFantasyKingdom_Texture_Emmisive.png"
		},
		{
			"mimeType":"image/png",
			"name":"PolygonFantasyKingdom_Texture_01_A",
			"uri":"PolygonFantasyKingdom_Texture_01_A.png"
		}
	],
	"accessors":[
		{
			"bufferView":0,
			"componentType":5126,
			"count":1917,
			"max":[
				0.3587843179702759,
				1.2241166830062866,
				0.3587797284126282
			],
			"min":[
				-0.3587843179702759,
				0,
				-0.3587797284126282
			],
			"type":"VEC3"
		},
		{
			"bufferView":1,
			"componentType":5126,
			"count":1917,
			"type":"VEC3"
		},
		{
			"bufferView":2,
			"componentType":5126,
			"count":1917,
			"type":"VEC2"
		},
		{
			"bufferView":3,
			"componentType":5126,
			"count":1917,
			"type":"VEC2"
		},
		{
			"bufferView":4,
			"componentType":5123,
			"count":2811,
			"type":"SCALAR"
		}
	],
	"bufferViews":[
		{
			"buffer":0,
			"byteLength":23004,
			"byteOffset":0,
			"target":34962
		},
		{
			"buffer":0,
			"byteLength":23004,
			"byteOffset":23004,
			"target":34962
		},
		{
			"buffer":0,
			"byteLength":15336,
			"byteOffset":46008,
			"target":34962
		},
		{
			"buffer":0,
			"byteLength":15336,
			"byteOffset":61344,
			"target":34962
		},
		{
			"buffer":0,
			"byteLength":5622,
			"byteOffset":76680,
			"target":34963
		}
	],
	"samplers":[
		{
			"magFilter":9729,
			"minFilter":9987
		}
	],
	"buffers":[
		{
			"byteLength":82304,
			"uri":"prop_barrel_arrows.bin"
		}
	]
}
