{
	"asset":{
		"generator":"Khronos glTF Blender I/O v5.1.20",
		"version":"2.0"
	},
	"scene":0,
	"scenes":[
		{
			"name":"Scene",
			"nodes":[
				0
			]
		}
	],
	"nodes":[
		{
			"mesh":0,
			"name":"prop_cage_cart"
		}
	],
	"materials":[
		{
			"doubleSided":true,
			"emissiveFactor":[
				1,
				1,
				1
			],
			"emissiveTexture":{
				"index":0
			},
			"name":"knights_mat",
			"pbrMetallicRoughness":{
				"baseColorTexture":{
					"index":1
				},
				"metallicFactor":0,
				"roughnessFactor":0.8999999761581421
			}
		}
	],
	"meshes":[
		{
			"name":"Mesh",
			"primitives":[
				{
					"attributes":{
						"POSITION":0,
						"NORMAL":1,
						"TEXCOORD_0":2,
						"TEXCOORD_1":3
					},
					"indices":4,
					"material":0
				}
			]
		}
	],
	"textures":[
		{
			"sampler":0,
			"source":0
		},
		{
			"sampler":0,
			"source":1
		}
	],
	"images":[
		{
			"mimeType":"image/png",
			"name":"PolygonFantasyKingdom_Texture_Emmisive",
			"uri":"PolygonFantasyKingdom_Texture_Emmisive.png"
		},
		{
			"mimeType":"image/png",
			"name":"PolygonFantasyKingdom_Texture_01_A",
			"uri":"PolygonFantasyKingdom_Texture_01_A.png"
		}
	],
	"accessors":[
		{
			"bufferView":0,
			"componentType":5126,
			"count":1605,
			"max":[
				0.5717141032218933,
				2.0947988033294678,
				1.0000579357147217
			],
			"min":[
				-0.5717141032218933,
				-7.550227110186825e-08,
				-1.0000580549240112
			],
			"type":"VEC3"
		},
		{
			"bufferView":1,
			"componentType":5126,
			"count":1605,
			"type":"VEC3"
		},
		{
			"bufferView":2,
			"componentType":5126,
			"count":1605,
			"type":"VEC2"
		},
		{
			"bufferView":3,
			"componentType":5126,
			"count":1605,
			"type":"VEC2"
		},
		{
			"bufferView":4,
			"componentType":5123,
			"count":2634,
			"type":"SCALAR"
		}
	],
	"bufferViews":[
		{
			"buffer":0,
			"byteLength":19260,
			"byteOffset":0,
			"target":34962
		},
		{
			"buffer":0,
			"byteLength":19260,
			"byteOffset":19260,
			"target":34962
		},
		{
			"buffer":0,
			"byteLength":12840,
			"byteOffset":38520,
			"target":34962
		},
		{
			"buffer":0,
			"byteLength":12840,
			"byteOffset":51360,
			"target":34962
		},
		{
			"buffer":0,
			"byteLength":5268,
			"byteOffset":64200,
			"target":34963
		}
	],
	"samplers":[
		{
			"magFilter":9729,
			"minFilter":9987
		}
	],
	"buffers":[
		{
			"byteLength":69468,
			"uri":"prop_cage_cart.bin"
		}
	]
}
