{
	"asset":{
		"generator":"Khronos glTF Blender I/O v5.1.20",
		"version":"2.0"
	},
	"scene":0,
	"scenes":[
		{
			"name":"Scene",
			"nodes":[
				0
			]
		}
	],
	"nodes":[
		{
			"mesh":0,
			"name":"prop_barrel_stack"
		}
	],
	"materials":[
		{
			"doubleSided":true,
			"emissiveFactor":[
				1,
				1,
				1
			],
			"emissiveTexture":{
				"index":0
			},
			"name":"knights_mat",
			"pbrMetallicRoughness":{
				"baseColorTexture":{
					"index":1
				},
				"metallicFactor":0,
				"roughnessFactor":0.8999999761581421
			}
		}
	],
	"meshes":[
		{
			"name":"Mesh",
			"primitives":[
				{
					"attributes":{
						"POSITION":0,
						"NORMAL":1,
						"TEXCOORD_0":2,
						"TEXCOORD_1":3
					},
					"indices":4,
					"material":0
				}
			]
		}
	],
	"textures":[
		{
			"sampler":0,
			"source":0
		},
		{
			"sampler":0,
			"source":1
		}
	],
	"images":[
		{
			"mimeType":"image/png",
			"name":"PolygonFantasyKingdom_Texture_Emmisive",
			"uri":"PolygonFantasyKingdom_Texture_Emmisive.png"
		},
		{
			"mimeType":"image/png",
			"name":"PolygonFantasyKingdom_Texture_01_A",
			"uri":"PolygonFantasyKingdom_Texture_01_A.png"
		}
	],
	"accessors":[
		{
			"bufferView":0,
			"componentType":5126,
			"count":15046,
			"max":[
				0.5305291414260864,
				1.9848252534866333,
				1.8524539470672607
			],
			"min":[
				-0.5305291414260864,
				0,
				-1.8524539470672607
			],
			"type":"VEC3"
		},
		{
			"bufferView":1,
			"componentType":5126,
			"count":15046,
			"type":"VEC3"
		},
		{
			"bufferView":2,
			"componentType":5126,
			"count":15046,
			"type":"VEC2"
		},
		{
			"bufferView":3,
			"componentType":5126,
			"count":15046,
			"type":"VEC2"
		},
		{
			"bufferView":4,
			"componentType":5123,
			"count":24330,
			"type":"SCALAR"
		}
	],
	"bufferViews":[
		{
			"buffer":0,
			"byteLength":180552,
			"byteOffset":0,
			"target":34962
		},
		{
			"buffer":0,
			"byteLength":180552,
			"byteOffset":180552,
			"target":34962
		},
		{
			"buffer":0,
			"byteLength":120368,
			"byteOffset":361104,
			"target":34962
		},
		{
			"buffer":0,
			"byteLength":120368,
			"byteOffset":481472,
			"target":34962
		},
		{
			"buffer":0,
			"byteLength":48660,
			"byteOffset":601840,
			"target":34963
		}
	],
	"samplers":[
		{
			"magFilter":9729,
			"minFilter":9987
		}
	],
	"buffers":[
		{
			"byteLength":650500,
			"uri":"prop_barrel_stack.bin"
		}
	]
}
