{
	"asset":{
		"generator":"Khronos glTF Blender I/O v5.1.20",
		"version":"2.0"
	},
	"scene":0,
	"scenes":[
		{
			"name":"Scene",
			"nodes":[
				0
			]
		}
	],
	"nodes":[
		{
			"mesh":0,
			"name":"prop_dead_knight2"
		}
	],
	"materials":[
		{
			"doubleSided":true,
			"emissiveFactor":[
				1,
				1,
				1
			],
			"emissiveTexture":{
				"index":0
			},
			"name":"knights_mat",
			"pbrMetallicRoughness":{
				"baseColorTexture":{
					"index":1
				},
				"metallicFactor":0,
				"roughnessFactor":0.8999999761581421
			}
		}
	],
	"meshes":[
		{
			"name":"Mesh",
			"primitives":[
				{
					"attributes":{
						"POSITION":0,
						"NORMAL":1,
						"TEXCOORD_0":2,
						"TEXCOORD_1":3,
						"TEXCOORD_2":4
					},
					"indices":5,
					"material":0
				}
			]
		}
	],
	"textures":[
		{
			"sampler":0,
			"source":0
		},
		{
			"sampler":0,
			"source":1
		}
	],
	"images":[
		{
			"mimeType":"image/png",
			"name":"PolygonFantasyKingdom_Texture_Emmisive",
			"uri":"PolygonFantasyKingdom_Texture_Emmisive.png"
		},
		{
			"mimeType":"image/png",
			"name":"PolygonFantasyKingdom_Texture_01_A",
			"uri":"PolygonFantasyKingdom_Texture_01_A.png"
		}
	],
	"accessors":[
		{
			"bufferView":0,
			"componentType":5126,
			"count":5871,
			"max":[
				0.5238897800445557,
				1.1404902935028076,
				0.6357163190841675
			],
			"min":[
				-0.5238897800445557,
				0,
				-0.6357163190841675
			],
			"type":"VEC3"
		},
		{
			"bufferView":1,
			"componentType":5126,
			"count":5871,
			"type":"VEC3"
		},
		{
			"bufferView":2,
			"componentType":5126,
			"count":5871,
			"type":"VEC2"
		},
		{
			"bufferView":3,
			"componentType":5126,
			"count":5871,
			"type":"VEC2"
		},
		{
			"bufferView":4,
			"componentType":5126,
			"count":5871,
			"type":"VEC2"
		},
		{
			"bufferView":5,
			"componentType":5123,
			"count":6654,
			"type":"SCALAR"
		}
	],
	"bufferViews":[
		{
			"buffer":0,
			"byteLength":70452,
			"byteOffset":0,
			"target":34962
		},
		{
			"buffer":0,
			"byteLength":70452,
			"byteOffset":70452,
			"target":34962
		},
		{
			"buffer":0,
			"byteLength":46968,
			"byteOffset":140904,
			"target":34962
		},
		{
			"buffer":0,
			"byteLength":46968,
			"byteOffset":187872,
			"target":34962
		},
		{
			"buffer":0,
			"byteLength":46968,
			"byteOffset":234840,
			"target":34962
		},
		{
			"buffer":0,
			"byteLength":13308,
			"byteOffset":281808,
			"target":34963
		}
	],
	"samplers":[
		{
			"magFilter":9729,
			"minFilter":9987
		}
	],
	"buffers":[
		{
			"byteLength":295116,
			"uri":"prop_dead_knight2.bin"
		}
	]
}
