{
	"asset":{
		"generator":"Khronos glTF Blender I/O v5.1.20",
		"version":"2.0"
	},
	"scene":0,
	"scenes":[
		{
			"name":"Scene",
			"nodes":[
				0
			]
		}
	],
	"nodes":[
		{
			"mesh":0,
			"name":"res_ore_gold"
		}
	],
	"materials":[
		{
			"doubleSided":true,
			"emissiveFactor":[
				1,
				1,
				1
			],
			"emissiveTexture":{
				"index":0
			},
			"name":"knights_mat",
			"pbrMetallicRoughness":{
				"baseColorTexture":{
					"index":1
				},
				"metallicFactor":0,
				"roughnessFactor":0.8999999761581421
			}
		}
	],
	"meshes":[
		{
			"name":"Mesh",
			"primitives":[
				{
					"attributes":{
						"POSITION":0,
						"NORMAL":1,
						"TEXCOORD_0":2,
						"TEXCOORD_1":3
					},
					"indices":4,
					"material":0
				}
			]
		}
	],
	"textures":[
		{
			"sampler":0,
			"source":0
		},
		{
			"sampler":0,
			"source":1
		}
	],
	"images":[
		{
			"mimeType":"image/png",
			"name":"PolygonFantasyKingdom_Texture_Emmisive",
			"uri":"PolygonFantasyKingdom_Texture_Emmisive.png"
		},
		{
			"mimeType":"image/png",
			"name":"PolygonFantasyKingdom_Texture_01_A",
			"uri":"PolygonFantasyKingdom_Texture_01_A.png"
		}
	],
	"accessors":[
		{
			"bufferView":0,
			"componentType":5126,
			"count":918,
			"max":[
				0.09649413824081421,
				0.09270326048135757,
				0.1006188914179802
			],
			"min":[
				-0.09649413824081421,
				0,
				-0.1006188914179802
			],
			"type":"VEC3"
		},
		{
			"bufferView":1,
			"componentType":5126,
			"count":918,
			"type":"VEC3"
		},
		{
			"bufferView":2,
			"componentType":5126,
			"count":918,
			"type":"VEC2"
		},
		{
			"bufferView":3,
			"componentType":5126,
			"count":918,
			"type":"VEC2"
		},
		{
			"bufferView":4,
			"componentType":5123,
			"count":1014,
			"type":"SCALAR"
		}
	],
	"bufferViews":[
		{
			"buffer":0,
			"byteLength":11016,
			"byteOffset":0,
			"target":34962
		},
		{
			"buffer":0,
			"byteLength":11016,
			"byteOffset":11016,
			"target":34962
		},
		{
			"buffer":0,
			"byteLength":7344,
			"byteOffset":22032,
			"target":34962
		},
		{
			"buffer":0,
			"byteLength":7344,
			"byteOffset":29376,
			"target":34962
		},
		{
			"buffer":0,
			"byteLength":2028,
			"byteOffset":36720,
			"target":34963
		}
	],
	"samplers":[
		{
			"magFilter":9729,
			"minFilter":9987
		}
	],
	"buffers":[
		{
			"byteLength":38748,
			"uri":"res_ore_gold.bin"
		}
	]
}
