{
	"asset":{
		"generator":"Khronos glTF Blender I/O v5.1.20",
		"version":"2.0"
	},
	"scene":0,
	"scenes":[
		{
			"name":"Scene",
			"nodes":[
				0
			]
		}
	],
	"nodes":[
		{
			"mesh":0,
			"name":"el_bld_beacon"
		}
	],
	"materials":[
		{
			"doubleSided":true,
			"name":"elves_tiling_mat",
			"pbrMetallicRoughness":{
				"baseColorTexture":{
					"index":0
				},
				"metallicFactor":0,
				"roughnessFactor":0.8999999761581421
			}
		},
		{
			"doubleSided":true,
			"emissiveFactor":[
				1,
				1,
				1
			],
			"emissiveTexture":{
				"index":1
			},
			"name":"elves_mat",
			"pbrMetallicRoughness":{
				"baseColorTexture":{
					"index":2
				},
				"metallicFactor":0,
				"roughnessFactor":0.8999999761581421
			}
		}
	],
	"meshes":[
		{
			"name":"Mesh",
			"primitives":[
				{
					"attributes":{
						"POSITION":0,
						"NORMAL":1,
						"TEXCOORD_0":2
					},
					"indices":3,
					"material":0
				},
				{
					"attributes":{
						"POSITION":4,
						"NORMAL":5,
						"TEXCOORD_0":6
					},
					"indices":7,
					"material":1
				}
			]
		}
	],
	"textures":[
		{
			"sampler":0,
			"source":0
		},
		{
			"sampler":0,
			"source":1
		},
		{
			"sampler":0,
			"source":2
		}
	],
	"images":[
		{
			"mimeType":"image/png",
			"name":"Rock_Wall_01",
			"uri":"Rock_Wall_01.png"
		},
		{
			"mimeType":"image/png",
			"name":"PolygonElven_01_A_Emissive",
			"uri":"PolygonElven_01_A_Emissive.png"
		},
		{
			"mimeType":"image/png",
			"name":"PolygonElven_01_A",
			"uri":"PolygonElven_01_A.png"
		}
	],
	"accessors":[
		{
			"bufferView":0,
			"componentType":5126,
			"count":2636,
			"max":[
				1.090649127960205,
				3.001431703567505,
				1.1406687498092651
			],
			"min":[
				-1.090649127960205,
				0,
				-1.1406687498092651
			],
			"type":"VEC3"
		},
		{
			"bufferView":1,
			"componentType":5126,
			"count":2636,
			"type":"VEC3"
		},
		{
			"bufferView":2,
			"componentType":5126,
			"count":2636,
			"type":"VEC2"
		},
		{
			"bufferView":3,
			"componentType":5123,
			"count":4524,
			"type":"SCALAR"
		},
		{
			"bufferView":4,
			"componentType":5126,
			"count":28,
			"max":[
				0.8756401538848877,
				2.345393180847168,
				0.9025889039039612
			],
			"min":[
				-0.8756349086761475,
				0.2756994366645813,
				-1.0157873630523682
			],
			"type":"VEC3"
		},
		{
			"bufferView":5,
			"componentType":5126,
			"count":28,
			"type":"VEC3"
		},
		{
			"bufferView":6,
			"componentType":5126,
			"count":28,
			"type":"VEC2"
		},
		{
			"bufferView":7,
			"componentType":5123,
			"count":66,
			"type":"SCALAR"
		}
	],
	"bufferViews":[
		{
			"buffer":0,
			"byteLength":31632,
			"byteOffset":0,
			"target":34962
		},
		{
			"buffer":0,
			"byteLength":31632,
			"byteOffset":31632,
			"target":34962
		},
		{
			"buffer":0,
			"byteLength":21088,
			"byteOffset":63264,
			"target":34962
		},
		{
			"buffer":0,
			"byteLength":9048,
			"byteOffset":84352,
			"target":34963
		},
		{
			"buffer":0,
			"byteLength":336,
			"byteOffset":93400,
			"target":34962
		},
		{
			"buffer":0,
			"byteLength":336,
			"byteOffset":93736,
			"target":34962
		},
		{
			"buffer":0,
			"byteLength":224,
			"byteOffset":94072,
			"target":34962
		},
		{
			"buffer":0,
			"byteLength":132,
			"byteOffset":94296,
			"target":34963
		}
	],
	"samplers":[
		{
			"magFilter":9729,
			"minFilter":9987
		}
	],
	"buffers":[
		{
			"byteLength":94428,
			"uri":"el_bld_beacon.bin"
		}
	]
}
