{
	"asset":{
		"generator":"Khronos glTF Blender I/O v5.1.20",
		"version":"2.0"
	},
	"scene":0,
	"scenes":[
		{
			"name":"Scene",
			"nodes":[
				0
			]
		}
	],
	"nodes":[
		{
			"mesh":0,
			"name":"el_bld_forge"
		}
	],
	"materials":[
		{
			"doubleSided":true,
			"emissiveFactor":[
				1,
				1,
				1
			],
			"emissiveTexture":{
				"index":0
			},
			"name":"elves_mat",
			"pbrMetallicRoughness":{
				"baseColorTexture":{
					"index":1
				},
				"metallicFactor":0,
				"roughnessFactor":0.8999999761581421
			}
		},
		{
			"doubleSided":true,
			"name":"elves_tiling_mat",
			"pbrMetallicRoughness":{
				"baseColorTexture":{
					"index":2
				},
				"metallicFactor":0,
				"roughnessFactor":0.8999999761581421
			}
		}
	],
	"meshes":[
		{
			"name":"Mesh",
			"primitives":[
				{
					"attributes":{
						"POSITION":0,
						"NORMAL":1,
						"TEXCOORD_0":2
					},
					"indices":3,
					"material":0
				},
				{
					"attributes":{
						"POSITION":4,
						"NORMAL":5,
						"TEXCOORD_0":6
					},
					"indices":7,
					"material":1
				}
			]
		}
	],
	"textures":[
		{
			"sampler":0,
			"source":0
		},
		{
			"sampler":0,
			"source":1
		},
		{
			"sampler":0,
			"source":2
		}
	],
	"images":[
		{
			"mimeType":"image/png",
			"name":"PolygonElven_01_A_Emissive",
			"uri":"PolygonElven_01_A_Emissive.png"
		},
		{
			"mimeType":"image/png",
			"name":"PolygonElven_01_A",
			"uri":"PolygonElven_01_A.png"
		},
		{
			"mimeType":"image/png",
			"name":"Rock_Wall_01",
			"uri":"Rock_Wall_01.png"
		}
	],
	"accessors":[
		{
			"bufferView":0,
			"componentType":5126,
			"count":11694,
			"max":[
				2.974937677383423,
				9.91990852355957,
				2.9749374389648438
			],
			"min":[
				-2.974937677383423,
				-2.1789524851101305e-07,
				-2.974937915802002
			],
			"type":"VEC3"
		},
		{
			"bufferView":1,
			"componentType":5126,
			"count":11694,
			"type":"VEC3"
		},
		{
			"bufferView":2,
			"componentType":5126,
			"count":11694,
			"type":"VEC2"
		},
		{
			"bufferView":3,
			"componentType":5123,
			"count":18228,
			"type":"SCALAR"
		},
		{
			"bufferView":4,
			"componentType":5126,
			"count":1032,
			"max":[
				2.851043701171875,
				9.129233360290527,
				2.851043224334717
			],
			"min":[
				-2.851043701171875,
				4.5297160148620605,
				-2.851044178009033
			],
			"type":"VEC3"
		},
		{
			"bufferView":5,
			"componentType":5126,
			"count":1032,
			"type":"VEC3"
		},
		{
			"bufferView":6,
			"componentType":5126,
			"count":1032,
			"type":"VEC2"
		},
		{
			"bufferView":7,
			"componentType":5123,
			"count":1320,
			"type":"SCALAR"
		}
	],
	"bufferViews":[
		{
			"buffer":0,
			"byteLength":140328,
			"byteOffset":0,
			"target":34962
		},
		{
			"buffer":0,
			"byteLength":140328,
			"byteOffset":140328,
			"target":34962
		},
		{
			"buffer":0,
			"byteLength":93552,
			"byteOffset":280656,
			"target":34962
		},
		{
			"buffer":0,
			"byteLength":36456,
			"byteOffset":374208,
			"target":34963
		},
		{
			"buffer":0,
			"byteLength":12384,
			"byteOffset":410664,
			"target":34962
		},
		{
			"buffer":0,
			"byteLength":12384,
			"byteOffset":423048,
			"target":34962
		},
		{
			"buffer":0,
			"byteLength":8256,
			"byteOffset":435432,
			"target":34962
		},
		{
			"buffer":0,
			"byteLength":2640,
			"byteOffset":443688,
			"target":34963
		}
	],
	"samplers":[
		{
			"magFilter":9729,
			"minFilter":9987
		}
	],
	"buffers":[
		{
			"byteLength":446328,
			"uri":"el_bld_forge.bin"
		}
	]
}
