{
	"asset":{
		"generator":"Khronos glTF Blender I/O v5.1.20",
		"version":"2.0"
	},
	"scene":0,
	"scenes":[
		{
			"name":"Scene",
			"nodes":[
				0
			]
		}
	],
	"nodes":[
		{
			"mesh":0,
			"name":"el_bld_temple"
		}
	],
	"materials":[
		{
			"doubleSided":true,
			"emissiveFactor":[
				1,
				1,
				1
			],
			"emissiveTexture":{
				"index":0
			},
			"name":"elves_mat",
			"pbrMetallicRoughness":{
				"baseColorTexture":{
					"index":1
				},
				"metallicFactor":0,
				"roughnessFactor":0.8999999761581421
			}
		}
	],
	"meshes":[
		{
			"name":"Mesh",
			"primitives":[
				{
					"attributes":{
						"POSITION":0,
						"NORMAL":1,
						"TEXCOORD_0":2,
						"TEXCOORD_1":3
					},
					"indices":4,
					"material":0
				}
			]
		}
	],
	"textures":[
		{
			"sampler":0,
			"source":0
		},
		{
			"sampler":0,
			"source":1
		}
	],
	"images":[
		{
			"mimeType":"image/png",
			"name":"PolygonElven_01_A_Emissive",
			"uri":"PolygonElven_01_A_Emissive.png"
		},
		{
			"mimeType":"image/png",
			"name":"PolygonElven_01_A",
			"uri":"PolygonElven_01_A.png"
		}
	],
	"accessors":[
		{
			"bufferView":0,
			"componentType":5126,
			"count":12029,
			"max":[
				3.9806551933288574,
				13.4716796875,
				3.5032715797424316
			],
			"min":[
				-3.9806551933288574,
				0,
				-3.5032715797424316
			],
			"type":"VEC3"
		},
		{
			"bufferView":1,
			"componentType":5126,
			"count":12029,
			"type":"VEC3"
		},
		{
			"bufferView":2,
			"componentType":5126,
			"count":12029,
			"type":"VEC2"
		},
		{
			"bufferView":3,
			"componentType":5126,
			"count":12029,
			"type":"VEC2"
		},
		{
			"bufferView":4,
			"componentType":5123,
			"count":16248,
			"type":"SCALAR"
		}
	],
	"bufferViews":[
		{
			"buffer":0,
			"byteLength":144348,
			"byteOffset":0,
			"target":34962
		},
		{
			"buffer":0,
			"byteLength":144348,
			"byteOffset":144348,
			"target":34962
		},
		{
			"buffer":0,
			"byteLength":96232,
			"byteOffset":288696,
			"target":34962
		},
		{
			"buffer":0,
			"byteLength":96232,
			"byteOffset":384928,
			"target":34962
		},
		{
			"buffer":0,
			"byteLength":32496,
			"byteOffset":481160,
			"target":34963
		}
	],
	"samplers":[
		{
			"magFilter":9729,
			"minFilter":9987
		}
	],
	"buffers":[
		{
			"byteLength":513656,
			"uri":"el_bld_temple.bin"
		}
	]
}
