{
	"asset":{
		"generator":"Khronos glTF Blender I/O v5.1.20",
		"version":"2.0"
	},
	"scene":0,
	"scenes":[
		{
			"name":"Scene",
			"nodes":[
				0
			]
		}
	],
	"nodes":[
		{
			"mesh":0,
			"name":"el_boat"
		}
	],
	"materials":[
		{
			"doubleSided":true,
			"emissiveFactor":[
				1,
				1,
				1
			],
			"emissiveTexture":{
				"index":0
			},
			"name":"elves_mat",
			"pbrMetallicRoughness":{
				"baseColorTexture":{
					"index":1
				},
				"metallicFactor":0,
				"roughnessFactor":0.8999999761581421
			}
		}
	],
	"meshes":[
		{
			"name":"Mesh",
			"primitives":[
				{
					"attributes":{
						"POSITION":0,
						"NORMAL":1,
						"TEXCOORD_0":2
					},
					"indices":3,
					"material":0
				}
			]
		}
	],
	"textures":[
		{
			"sampler":0,
			"source":0
		},
		{
			"sampler":0,
			"source":1
		}
	],
	"images":[
		{
			"mimeType":"image/png",
			"name":"PolygonElven_01_A_Emissive",
			"uri":"PolygonElven_01_A_Emissive.png"
		},
		{
			"mimeType":"image/png",
			"name":"PolygonElven_01_A",
			"uri":"PolygonElven_01_A.png"
		}
	],
	"accessors":[
		{
			"bufferView":0,
			"componentType":5126,
			"count":21666,
			"max":[
				3.7782835960388184,
				19.408292770385742,
				10.210060119628906
			],
			"min":[
				-2.594576120376587,
				0.7199633121490479,
				-10.210060119628906
			],
			"type":"VEC3"
		},
		{
			"bufferView":1,
			"componentType":5126,
			"count":21666,
			"type":"VEC3"
		},
		{
			"bufferView":2,
			"componentType":5126,
			"count":21666,
			"type":"VEC2"
		},
		{
			"bufferView":3,
			"componentType":5123,
			"count":32844,
			"type":"SCALAR"
		}
	],
	"bufferViews":[
		{
			"buffer":0,
			"byteLength":259992,
			"byteOffset":0,
			"target":34962
		},
		{
			"buffer":0,
			"byteLength":259992,
			"byteOffset":259992,
			"target":34962
		},
		{
			"buffer":0,
			"byteLength":173328,
			"byteOffset":519984,
			"target":34962
		},
		{
			"buffer":0,
			"byteLength":65688,
			"byteOffset":693312,
			"target":34963
		}
	],
	"samplers":[
		{
			"magFilter":9729,
			"minFilter":9987
		}
	],
	"buffers":[
		{
			"byteLength":759000,
			"uri":"el_boat.bin"
		}
	]
}
