{
	"asset":{
		"generator":"Khronos glTF Blender I/O v5.1.20",
		"version":"2.0"
	},
	"scene":0,
	"scenes":[
		{
			"name":"Scene",
			"nodes":[
				0
			]
		}
	],
	"nodes":[
		{
			"mesh":0,
			"name":"el_bld_turret"
		}
	],
	"materials":[
		{
			"doubleSided":true,
			"emissiveFactor":[
				1,
				1,
				1
			],
			"emissiveTexture":{
				"index":0
			},
			"name":"elves_mat",
			"pbrMetallicRoughness":{
				"baseColorTexture":{
					"index":1
				},
				"metallicFactor":0,
				"roughnessFactor":0.8999999761581421
			}
		}
	],
	"meshes":[
		{
			"name":"Mesh",
			"primitives":[
				{
					"attributes":{
						"POSITION":0,
						"NORMAL":1,
						"TEXCOORD_0":2
					},
					"indices":3,
					"material":0
				}
			]
		}
	],
	"textures":[
		{
			"sampler":0,
			"source":0
		},
		{
			"sampler":0,
			"source":1
		}
	],
	"images":[
		{
			"mimeType":"image/png",
			"name":"PolygonElven_01_A_Emissive",
			"uri":"PolygonElven_01_A_Emissive.png"
		},
		{
			"mimeType":"image/png",
			"name":"PolygonElven_01_A",
			"uri":"PolygonElven_01_A.png"
		}
	],
	"accessors":[
		{
			"bufferView":0,
			"componentType":5126,
			"count":11791,
			"max":[
				0.7772239446640015,
				1.8982199430465698,
				0.5040081739425659
			],
			"min":[
				-0.7772239446640015,
				0,
				-0.5040081739425659
			],
			"type":"VEC3"
		},
		{
			"bufferView":1,
			"componentType":5126,
			"count":11791,
			"type":"VEC3"
		},
		{
			"bufferView":2,
			"componentType":5126,
			"count":11791,
			"type":"VEC2"
		},
		{
			"bufferView":3,
			"componentType":5123,
			"count":17202,
			"type":"SCALAR"
		}
	],
	"bufferViews":[
		{
			"buffer":0,
			"byteLength":141492,
			"byteOffset":0,
			"target":34962
		},
		{
			"buffer":0,
			"byteLength":141492,
			"byteOffset":141492,
			"target":34962
		},
		{
			"buffer":0,
			"byteLength":94328,
			"byteOffset":282984,
			"target":34962
		},
		{
			"buffer":0,
			"byteLength":34404,
			"byteOffset":377312,
			"target":34963
		}
	],
	"samplers":[
		{
			"magFilter":9729,
			"minFilter":9987
		}
	],
	"buffers":[
		{
			"byteLength":411716,
			"uri":"el_bld_turret.bin"
		}
	]
}
