{
	"asset":{
		"generator":"Khronos glTF Blender I/O v5.1.20",
		"version":"2.0"
	},
	"scene":0,
	"scenes":[
		{
			"name":"Scene",
			"nodes":[
				0
			]
		}
	],
	"nodes":[
		{
			"mesh":0,
			"name":"el_bld_barracks"
		}
	],
	"materials":[
		{
			"doubleSided":true,
			"emissiveFactor":[
				1,
				1,
				1
			],
			"emissiveTexture":{
				"index":0
			},
			"name":"elves_mat",
			"pbrMetallicRoughness":{
				"baseColorTexture":{
					"index":1
				},
				"metallicFactor":0,
				"roughnessFactor":0.8999999761581421
			}
		},
		{
			"doubleSided":true,
			"name":"elves_tiling_mat",
			"pbrMetallicRoughness":{
				"baseColorTexture":{
					"index":2
				},
				"metallicFactor":0,
				"roughnessFactor":0.8999999761581421
			}
		}
	],
	"meshes":[
		{
			"name":"Mesh",
			"primitives":[
				{
					"attributes":{
						"POSITION":0,
						"NORMAL":1,
						"TEXCOORD_0":2
					},
					"indices":3,
					"material":0
				},
				{
					"attributes":{
						"POSITION":4,
						"NORMAL":5,
						"TEXCOORD_0":6
					},
					"indices":7,
					"material":1
				}
			]
		}
	],
	"textures":[
		{
			"sampler":0,
			"source":0
		},
		{
			"sampler":0,
			"source":1
		},
		{
			"sampler":0,
			"source":2
		}
	],
	"images":[
		{
			"mimeType":"image/png",
			"name":"PolygonElven_01_A_Emissive",
			"uri":"PolygonElven_01_A_Emissive.png"
		},
		{
			"mimeType":"image/png",
			"name":"PolygonElven_01_A",
			"uri":"PolygonElven_01_A.png"
		},
		{
			"mimeType":"image/png",
			"name":"Rock_Wall_01",
			"uri":"Rock_Wall_01.png"
		}
	],
	"accessors":[
		{
			"bufferView":0,
			"componentType":5126,
			"count":14411,
			"max":[
				2.5281078815460205,
				4.481434345245361,
				2.5281076431274414
			],
			"min":[
				-2.5281078815460205,
				-1.3299145962264447e-07,
				-2.5281081199645996
			],
			"type":"VEC3"
		},
		{
			"bufferView":1,
			"componentType":5126,
			"count":14411,
			"type":"VEC3"
		},
		{
			"bufferView":2,
			"componentType":5126,
			"count":14411,
			"type":"VEC2"
		},
		{
			"bufferView":3,
			"componentType":5123,
			"count":22332,
			"type":"SCALAR"
		},
		{
			"bufferView":4,
			"componentType":5126,
			"count":616,
			"max":[
				2.4828574657440186,
				4.112880229949951,
				2.4828572273254395
			],
			"min":[
				-2.4828574657440186,
				2.249999761581421,
				-2.4828577041625977
			],
			"type":"VEC3"
		},
		{
			"bufferView":5,
			"componentType":5126,
			"count":616,
			"type":"VEC3"
		},
		{
			"bufferView":6,
			"componentType":5126,
			"count":616,
			"type":"VEC2"
		},
		{
			"bufferView":7,
			"componentType":5123,
			"count":864,
			"type":"SCALAR"
		}
	],
	"bufferViews":[
		{
			"buffer":0,
			"byteLength":172932,
			"byteOffset":0,
			"target":34962
		},
		{
			"buffer":0,
			"byteLength":172932,
			"byteOffset":172932,
			"target":34962
		},
		{
			"buffer":0,
			"byteLength":115288,
			"byteOffset":345864,
			"target":34962
		},
		{
			"buffer":0,
			"byteLength":44664,
			"byteOffset":461152,
			"target":34963
		},
		{
			"buffer":0,
			"byteLength":7392,
			"byteOffset":505816,
			"target":34962
		},
		{
			"buffer":0,
			"byteLength":7392,
			"byteOffset":513208,
			"target":34962
		},
		{
			"buffer":0,
			"byteLength":4928,
			"byteOffset":520600,
			"target":34962
		},
		{
			"buffer":0,
			"byteLength":1728,
			"byteOffset":525528,
			"target":34963
		}
	],
	"samplers":[
		{
			"magFilter":9729,
			"minFilter":9987
		}
	],
	"buffers":[
		{
			"byteLength":527256,
			"uri":"el_bld_barracks.bin"
		}
	]
}
