{
	"asset":{
		"generator":"Khronos glTF Blender I/O v5.1.20",
		"version":"2.0"
	},
	"scene":0,
	"scenes":[
		{
			"name":"Scene",
			"nodes":[
				0
			]
		}
	],
	"nodes":[
		{
			"mesh":0,
			"name":"el_bld_fountain"
		}
	],
	"materials":[
		{
			"doubleSided":true,
			"emissiveFactor":[
				1,
				1,
				1
			],
			"emissiveTexture":{
				"index":0
			},
			"name":"elves_mat",
			"pbrMetallicRoughness":{
				"baseColorTexture":{
					"index":1
				},
				"metallicFactor":0,
				"roughnessFactor":0.8999999761581421
			}
		},
		{
			"doubleSided":true,
			"name":"elves_tiling_mat",
			"pbrMetallicRoughness":{
				"baseColorTexture":{
					"index":2
				},
				"metallicFactor":0,
				"roughnessFactor":0.8999999761581421
			}
		}
	],
	"meshes":[
		{
			"name":"Mesh",
			"primitives":[
				{
					"attributes":{
						"POSITION":0,
						"NORMAL":1,
						"TEXCOORD_0":2,
						"TEXCOORD_1":3,
						"TEXCOORD_2":4,
						"COLOR_0":5,
						"COLOR_1":6,
						"COLOR_2":7,
						"COLOR_3":8
					},
					"indices":9,
					"material":0
				},
				{
					"attributes":{
						"POSITION":10,
						"NORMAL":11,
						"TEXCOORD_0":12,
						"TEXCOORD_1":13,
						"TEXCOORD_2":14,
						"COLOR_0":15,
						"COLOR_1":16,
						"COLOR_2":17,
						"COLOR_3":18
					},
					"indices":19,
					"material":1
				}
			]
		}
	],
	"textures":[
		{
			"sampler":0,
			"source":0
		},
		{
			"sampler":0,
			"source":1
		},
		{
			"sampler":0,
			"source":2
		}
	],
	"images":[
		{
			"mimeType":"image/png",
			"name":"PolygonElven_01_A_Emissive",
			"uri":"PolygonElven_01_A_Emissive.png"
		},
		{
			"mimeType":"image/png",
			"name":"PolygonElven_01_A",
			"uri":"PolygonElven_01_A.png"
		},
		{
			"mimeType":"image/png",
			"name":"Rock_Wall_01",
			"uri":"Rock_Wall_01.png"
		}
	],
	"accessors":[
		{
			"bufferView":0,
			"componentType":5126,
			"count":19158,
			"max":[
				3.201735734939575,
				6.61189603805542,
				3.201735734939575
			],
			"min":[
				-3.201735734939575,
				0,
				-3.201735734939575
			],
			"type":"VEC3"
		},
		{
			"bufferView":1,
			"componentType":5126,
			"count":19158,
			"type":"VEC3"
		},
		{
			"bufferView":2,
			"componentType":5126,
			"count":19158,
			"type":"VEC2"
		},
		{
			"bufferView":3,
			"componentType":5126,
			"count":19158,
			"type":"VEC2"
		},
		{
			"bufferView":4,
			"componentType":5126,
			"count":19158,
			"type":"VEC2"
		},
		{
			"bufferView":5,
			"componentType":5121,
			"count":19158,
			"normalized":true,
			"type":"VEC4"
		},
		{
			"bufferView":6,
			"componentType":5123,
			"count":19158,
			"normalized":true,
			"type":"VEC4"
		},
		{
			"bufferView":7,
			"componentType":5123,
			"count":19158,
			"normalized":true,
			"type":"VEC4"
		},
		{
			"bufferView":8,
			"componentType":5123,
			"count":19158,
			"normalized":true,
			"type":"VEC4"
		},
		{
			"bufferView":9,
			"componentType":5123,
			"count":28398,
			"type":"SCALAR"
		},
		{
			"bufferView":10,
			"componentType":5126,
			"count":1248,
			"max":[
				3.0322341918945312,
				6.464392185211182,
				3.0322341918945312
			],
			"min":[
				-3.0322341918945312,
				0.6894537210464478,
				-3.0322341918945312
			],
			"type":"VEC3"
		},
		{
			"bufferView":11,
			"componentType":5126,
			"count":1248,
			"type":"VEC3"
		},
		{
			"bufferView":12,
			"componentType":5126,
			"count":1248,
			"type":"VEC2"
		},
		{
			"bufferView":13,
			"componentType":5126,
			"count":1248,
			"type":"VEC2"
		},
		{
			"bufferView":14,
			"componentType":5126,
			"count":1248,
			"type":"VEC2"
		},
		{
			"bufferView":15,
			"componentType":5121,
			"count":1248,
			"normalized":true,
			"type":"VEC4"
		},
		{
			"bufferView":16,
			"componentType":5123,
			"count":1248,
			"normalized":true,
			"type":"VEC4"
		},
		{
			"bufferView":17,
			"componentType":5123,
			"count":1248,
			"normalized":true,
			"type":"VEC4"
		},
		{
			"bufferView":18,
			"componentType":5123,
			"count":1248,
			"normalized":true,
			"type":"VEC4"
		},
		{
			"bufferView":19,
			"componentType":5123,
			"count":4068,
			"type":"SCALAR"
		}
	],
	"bufferViews":[
		{
			"buffer":0,
			"byteLength":229896,
			"byteOffset":0,
			"target":34962
		},
		{
			"buffer":0,
			"byteLength":229896,
			"byteOffset":229896,
			"target":34962
		},
		{
			"buffer":0,
			"byteLength":153264,
			"byteOffset":459792,
			"target":34962
		},
		{
			"buffer":0,
			"byteLength":153264,
			"byteOffset":613056,
			"target":34962
		},
		{
			"buffer":0,
			"byteLength":153264,
			"byteOffset":766320,
			"target":34962
		},
		{
			"buffer":0,
			"byteLength":76632,
			"byteOffset":919584,
			"target":34962
		},
		{
			"buffer":0,
			"byteLength":153264,
			"byteOffset":996216,
			"target":34962
		},
		{
			"buffer":0,
			"byteLength":153264,
			"byteOffset":1149480,
			"target":34962
		},
		{
			"buffer":0,
			"byteLength":153264,
			"byteOffset":1302744,
			"target":34962
		},
		{
			"buffer":0,
			"byteLength":56796,
			"byteOffset":1456008,
			"target":34963
		},
		{
			"buffer":0,
			"byteLength":14976,
			"byteOffset":1512804,
			"target":34962
		},
		{
			"buffer":0,
			"byteLength":14976,
			"byteOffset":1527780,
			"target":34962
		},
		{
			"buffer":0,
			"byteLength":9984,
			"byteOffset":1542756,
			"target":34962
		},
		{
			"buffer":0,
			"byteLength":9984,
			"byteOffset":1552740,
			"target":34962
		},
		{
			"buffer":0,
			"byteLength":9984,
			"byteOffset":1562724,
			"target":34962
		},
		{
			"buffer":0,
			"byteLength":4992,
			"byteOffset":1572708,
			"target":34962
		},
		{
			"buffer":0,
			"byteLength":9984,
			"byteOffset":1577700,
			"target":34962
		},
		{
			"buffer":0,
			"byteLength":9984,
			"byteOffset":1587684,
			"target":34962
		},
		{
			"buffer":0,
			"byteLength":9984,
			"byteOffset":1597668,
			"target":34962
		},
		{
			"buffer":0,
			"byteLength":8136,
			"byteOffset":1607652,
			"target":34963
		}
	],
	"samplers":[
		{
			"magFilter":9729,
			"minFilter":9987
		}
	],
	"buffers":[
		{
			"byteLength":1615788,
			"uri":"el_bld_fountain.bin"
		}
	]
}
