{
	"asset":{
		"generator":"Khronos glTF Blender I/O v5.1.20",
		"version":"2.0"
	},
	"scene":0,
	"scenes":[
		{
			"name":"Scene",
			"nodes":[
				0
			]
		}
	],
	"nodes":[
		{
			"mesh":0,
			"name":"el_bld_supply"
		}
	],
	"materials":[
		{
			"doubleSided":true,
			"emissiveFactor":[
				1,
				1,
				1
			],
			"emissiveTexture":{
				"index":0
			},
			"name":"elves_mat",
			"pbrMetallicRoughness":{
				"baseColorTexture":{
					"index":1
				},
				"metallicFactor":0,
				"roughnessFactor":0.8999999761581421
			}
		},
		{
			"doubleSided":true,
			"name":"elves_tiling_mat",
			"pbrMetallicRoughness":{
				"baseColorTexture":{
					"index":2
				},
				"metallicFactor":0,
				"roughnessFactor":0.8999999761581421
			}
		}
	],
	"meshes":[
		{
			"name":"Mesh",
			"primitives":[
				{
					"attributes":{
						"POSITION":0,
						"NORMAL":1,
						"TEXCOORD_0":2
					},
					"indices":3,
					"material":0
				},
				{
					"attributes":{
						"POSITION":4,
						"NORMAL":5,
						"TEXCOORD_0":6
					},
					"indices":7,
					"material":1
				}
			]
		}
	],
	"textures":[
		{
			"sampler":0,
			"source":0
		},
		{
			"sampler":0,
			"source":1
		},
		{
			"sampler":0,
			"source":2
		}
	],
	"images":[
		{
			"mimeType":"image/png",
			"name":"PolygonElven_01_A_Emissive",
			"uri":"PolygonElven_01_A_Emissive.png"
		},
		{
			"mimeType":"image/png",
			"name":"PolygonElven_01_A",
			"uri":"PolygonElven_01_A.png"
		},
		{
			"mimeType":"image/png",
			"name":"Rock_Wall_01",
			"uri":"Rock_Wall_01.png"
		}
	],
	"accessors":[
		{
			"bufferView":0,
			"componentType":5126,
			"count":14896,
			"max":[
				1.422183632850647,
				5.1679840087890625,
				1.3850657939910889
			],
			"min":[
				-1.422183632850647,
				0,
				-1.3850657939910889
			],
			"type":"VEC3"
		},
		{
			"bufferView":1,
			"componentType":5126,
			"count":14896,
			"type":"VEC3"
		},
		{
			"bufferView":2,
			"componentType":5126,
			"count":14896,
			"type":"VEC2"
		},
		{
			"bufferView":3,
			"componentType":5123,
			"count":24201,
			"type":"SCALAR"
		},
		{
			"bufferView":4,
			"componentType":5126,
			"count":32,
			"max":[
				1.2593848705291748,
				4.963773250579834,
				1.3514392375946045
			],
			"min":[
				-1.259385108947754,
				3.225092887878418,
				-1.3384902477264404
			],
			"type":"VEC3"
		},
		{
			"bufferView":5,
			"componentType":5126,
			"count":32,
			"type":"VEC3"
		},
		{
			"bufferView":6,
			"componentType":5126,
			"count":32,
			"type":"VEC2"
		},
		{
			"bufferView":7,
			"componentType":5123,
			"count":48,
			"type":"SCALAR"
		}
	],
	"bufferViews":[
		{
			"buffer":0,
			"byteLength":178752,
			"byteOffset":0,
			"target":34962
		},
		{
			"buffer":0,
			"byteLength":178752,
			"byteOffset":178752,
			"target":34962
		},
		{
			"buffer":0,
			"byteLength":119168,
			"byteOffset":357504,
			"target":34962
		},
		{
			"buffer":0,
			"byteLength":48402,
			"byteOffset":476672,
			"target":34963
		},
		{
			"buffer":0,
			"byteLength":384,
			"byteOffset":525076,
			"target":34962
		},
		{
			"buffer":0,
			"byteLength":384,
			"byteOffset":525460,
			"target":34962
		},
		{
			"buffer":0,
			"byteLength":256,
			"byteOffset":525844,
			"target":34962
		},
		{
			"buffer":0,
			"byteLength":96,
			"byteOffset":526100,
			"target":34963
		}
	],
	"samplers":[
		{
			"magFilter":9729,
			"minFilter":9987
		}
	],
	"buffers":[
		{
			"byteLength":526196,
			"uri":"el_bld_supply.bin"
		}
	]
}
