{
	"asset":{
		"generator":"Khronos glTF Blender I/O v5.1.20",
		"version":"2.0"
	},
	"scene":0,
	"scenes":[
		{
			"name":"Scene",
			"nodes":[
				0
			]
		}
	],
	"nodes":[
		{
			"mesh":0,
			"name":"el_bld_siegeyard"
		}
	],
	"materials":[
		{
			"doubleSided":true,
			"name":"elves_tiling_mat",
			"pbrMetallicRoughness":{
				"baseColorTexture":{
					"index":0
				},
				"metallicFactor":0,
				"roughnessFactor":0.8999999761581421
			}
		}
	],
	"meshes":[
		{
			"name":"Mesh",
			"primitives":[
				{
					"attributes":{
						"POSITION":0,
						"NORMAL":1,
						"TEXCOORD_0":2
					},
					"indices":3,
					"material":0
				}
			]
		}
	],
	"textures":[
		{
			"sampler":0,
			"source":0
		}
	],
	"images":[
		{
			"mimeType":"image/png",
			"name":"Rock_Wall_01",
			"uri":"Rock_Wall_01.png"
		}
	],
	"accessors":[
		{
			"bufferView":0,
			"componentType":5126,
			"count":13333,
			"max":[
				2.3352699279785156,
				4.440272331237793,
				1.6288516521453857
			],
			"min":[
				-2.3352699279785156,
				-1.2557839568216878e-07,
				-1.6288518905639648
			],
			"type":"VEC3"
		},
		{
			"bufferView":1,
			"componentType":5126,
			"count":13333,
			"type":"VEC3"
		},
		{
			"bufferView":2,
			"componentType":5126,
			"count":13333,
			"type":"VEC2"
		},
		{
			"bufferView":3,
			"componentType":5123,
			"count":21786,
			"type":"SCALAR"
		}
	],
	"bufferViews":[
		{
			"buffer":0,
			"byteLength":159996,
			"byteOffset":0,
			"target":34962
		},
		{
			"buffer":0,
			"byteLength":159996,
			"byteOffset":159996,
			"target":34962
		},
		{
			"buffer":0,
			"byteLength":106664,
			"byteOffset":319992,
			"target":34962
		},
		{
			"buffer":0,
			"byteLength":43572,
			"byteOffset":426656,
			"target":34963
		}
	],
	"samplers":[
		{
			"magFilter":9729,
			"minFilter":9987
		}
	],
	"buffers":[
		{
			"byteLength":470228,
			"uri":"el_bld_siegeyard.bin"
		}
	]
}
