{
	"asset":{
		"generator":"Khronos glTF Blender I/O v5.1.20",
		"version":"2.0"
	},
	"scene":0,
	"scenes":[
		{
			"name":"Scene",
			"nodes":[
				0
			]
		}
	],
	"nodes":[
		{
			"mesh":0,
			"name":"vik_funeral_boat"
		}
	],
	"materials":[
		{
			"doubleSided":true,
			"name":"vik_mat",
			"pbrMetallicRoughness":{
				"baseColorTexture":{
					"index":0
				},
				"metallicFactor":0,
				"roughnessFactor":0.8999999761581421
			}
		}
	],
	"meshes":[
		{
			"name":"Mesh",
			"primitives":[
				{
					"attributes":{
						"POSITION":0,
						"NORMAL":1,
						"TEXCOORD_0":2,
						"TEXCOORD_1":3
					},
					"indices":4,
					"material":0
				}
			]
		}
	],
	"textures":[
		{
			"sampler":0,
			"source":0
		}
	],
	"images":[
		{
			"mimeType":"image/png",
			"name":"Texture_01",
			"uri":"Texture_01.png"
		}
	],
	"accessors":[
		{
			"bufferView":0,
			"componentType":5126,
			"count":20650,
			"max":[
				1.2314300537109375,
				2.3153538703918457,
				4.510280609130859
			],
			"min":[
				-1.2314281463623047,
				-7.20004026018295e-14,
				-4.510281085968018
			],
			"type":"VEC3"
		},
		{
			"bufferView":1,
			"componentType":5126,
			"count":20650,
			"type":"VEC3"
		},
		{
			"bufferView":2,
			"componentType":5126,
			"count":20650,
			"type":"VEC2"
		},
		{
			"bufferView":3,
			"componentType":5126,
			"count":20650,
			"type":"VEC2"
		},
		{
			"bufferView":4,
			"componentType":5123,
			"count":24525,
			"type":"SCALAR"
		}
	],
	"bufferViews":[
		{
			"buffer":0,
			"byteLength":247800,
			"byteOffset":0,
			"target":34962
		},
		{
			"buffer":0,
			"byteLength":247800,
			"byteOffset":247800,
			"target":34962
		},
		{
			"buffer":0,
			"byteLength":165200,
			"byteOffset":495600,
			"target":34962
		},
		{
			"buffer":0,
			"byteLength":165200,
			"byteOffset":660800,
			"target":34962
		},
		{
			"buffer":0,
			"byteLength":49050,
			"byteOffset":826000,
			"target":34963
		}
	],
	"samplers":[
		{
			"magFilter":9729,
			"minFilter":9987
		}
	],
	"buffers":[
		{
			"byteLength":875052,
			"uri":"vik_funeral_boat.bin"
		}
	]
}
