{
	"asset":{
		"generator":"Khronos glTF Blender I/O v5.1.20",
		"version":"2.0"
	},
	"scene":0,
	"scenes":[
		{
			"name":"Scene",
			"nodes":[
				0
			]
		}
	],
	"nodes":[
		{
			"mesh":0,
			"name":"vik_longship"
		}
	],
	"materials":[
		{
			"doubleSided":true,
			"name":"vik_mat",
			"pbrMetallicRoughness":{
				"baseColorTexture":{
					"index":0
				},
				"metallicFactor":0,
				"roughnessFactor":0.8999999761581421
			}
		}
	],
	"meshes":[
		{
			"name":"Mesh",
			"primitives":[
				{
					"attributes":{
						"POSITION":0,
						"NORMAL":1,
						"TEXCOORD_0":2,
						"TEXCOORD_1":3
					},
					"indices":4,
					"material":0
				}
			]
		}
	],
	"textures":[
		{
			"sampler":0,
			"source":0
		}
	],
	"images":[
		{
			"mimeType":"image/png",
			"name":"Texture_01",
			"uri":"Texture_01.png"
		}
	],
	"accessors":[
		{
			"bufferView":0,
			"componentType":5126,
			"count":18011,
			"max":[
				3.5101983547210693,
				9.384379386901855,
				7.626070976257324
			],
			"min":[
				-3.5101983547210693,
				0,
				-7.626070976257324
			],
			"type":"VEC3"
		},
		{
			"bufferView":1,
			"componentType":5126,
			"count":18011,
			"type":"VEC3"
		},
		{
			"bufferView":2,
			"componentType":5126,
			"count":18011,
			"type":"VEC2"
		},
		{
			"bufferView":3,
			"componentType":5126,
			"count":18011,
			"type":"VEC2"
		},
		{
			"bufferView":4,
			"componentType":5123,
			"count":29592,
			"type":"SCALAR"
		}
	],
	"bufferViews":[
		{
			"buffer":0,
			"byteLength":216132,
			"byteOffset":0,
			"target":34962
		},
		{
			"buffer":0,
			"byteLength":216132,
			"byteOffset":216132,
			"target":34962
		},
		{
			"buffer":0,
			"byteLength":144088,
			"byteOffset":432264,
			"target":34962
		},
		{
			"buffer":0,
			"byteLength":144088,
			"byteOffset":576352,
			"target":34962
		},
		{
			"buffer":0,
			"byteLength":59184,
			"byteOffset":720440,
			"target":34963
		}
	],
	"samplers":[
		{
			"magFilter":9729,
			"minFilter":9987
		}
	],
	"buffers":[
		{
			"byteLength":779624,
			"uri":"vik_longship.bin"
		}
	]
}
