{
	"asset":{
		"generator":"Khronos glTF Blender I/O v5.1.20",
		"version":"2.0"
	},
	"scene":0,
	"scenes":[
		{
			"name":"Scene",
			"nodes":[
				0
			]
		}
	],
	"nodes":[
		{
			"mesh":0,
			"name":"pass_rock_b"
		}
	],
	"materials":[
		{
			"doubleSided":true,
			"name":"pass_pass_rock_b",
			"pbrMetallicRoughness":{
				"baseColorTexture":{
					"index":0
				},
				"metallicFactor":0,
				"roughnessFactor":0.8999999761581421
			}
		}
	],
	"meshes":[
		{
			"name":"Mesh",
			"primitives":[
				{
					"attributes":{
						"POSITION":0,
						"NORMAL":1,
						"TEXCOORD_0":2
					},
					"indices":3,
					"material":0
				}
			]
		}
	],
	"textures":[
		{
			"sampler":0,
			"source":0
		}
	],
	"images":[
		{
			"mimeType":"image/png",
			"name":"pass_pass_rock_b",
			"uri":"pass_pass_rock_b.png"
		}
	],
	"accessors":[
		{
			"bufferView":0,
			"componentType":5126,
			"count":6745,
			"max":[
				1.7156888246536255,
				1.255786657333374,
				1.6456485986709595
			],
			"min":[
				-1.7156888246536255,
				0,
				-1.6456485986709595
			],
			"type":"VEC3"
		},
		{
			"bufferView":1,
			"componentType":5126,
			"count":6745,
			"type":"VEC3"
		},
		{
			"bufferView":2,
			"componentType":5126,
			"count":6745,
			"type":"VEC2"
		},
		{
			"bufferView":3,
			"componentType":5123,
			"count":6990,
			"type":"SCALAR"
		}
	],
	"bufferViews":[
		{
			"buffer":0,
			"byteLength":80940,
			"byteOffset":0,
			"target":34962
		},
		{
			"buffer":0,
			"byteLength":80940,
			"byteOffset":80940,
			"target":34962
		},
		{
			"buffer":0,
			"byteLength":53960,
			"byteOffset":161880,
			"target":34962
		},
		{
			"buffer":0,
			"byteLength":13980,
			"byteOffset":215840,
			"target":34963
		}
	],
	"samplers":[
		{
			"magFilter":9729,
			"minFilter":9987
		}
	],
	"buffers":[
		{
			"byteLength":229820,
			"uri":"pass_rock_b.bin"
		}
	]
}
