{
	"asset":{
		"generator":"Khronos glTF Blender I/O v5.1.20",
		"version":"2.0"
	},
	"scene":0,
	"scenes":[
		{
			"name":"Scene",
			"nodes":[
				0
			]
		}
	],
	"nodes":[
		{
			"mesh":0,
			"name":"pass_arch"
		}
	],
	"materials":[
		{
			"doubleSided":true,
			"name":"pass_pass_arch",
			"pbrMetallicRoughness":{
				"baseColorTexture":{
					"index":0
				},
				"metallicFactor":0,
				"roughnessFactor":0.8999999761581421
			}
		}
	],
	"meshes":[
		{
			"name":"Mesh",
			"primitives":[
				{
					"attributes":{
						"POSITION":0,
						"NORMAL":1,
						"TEXCOORD_0":2
					},
					"indices":3,
					"material":0
				}
			]
		}
	],
	"textures":[
		{
			"sampler":0,
			"source":0
		}
	],
	"images":[
		{
			"mimeType":"image/png",
			"name":"pass_pass_arch",
			"uri":"pass_pass_arch.png"
		}
	],
	"accessors":[
		{
			"bufferView":0,
			"componentType":5126,
			"count":3672,
			"max":[
				5.372108459472656,
				8.210541725158691,
				2.349250078201294
			],
			"min":[
				-5.372108459472656,
				0,
				-2.349250078201294
			],
			"type":"VEC3"
		},
		{
			"bufferView":1,
			"componentType":5126,
			"count":3672,
			"type":"VEC3"
		},
		{
			"bufferView":2,
			"componentType":5126,
			"count":3672,
			"type":"VEC2"
		},
		{
			"bufferView":3,
			"componentType":5123,
			"count":3678,
			"type":"SCALAR"
		}
	],
	"bufferViews":[
		{
			"buffer":0,
			"byteLength":44064,
			"byteOffset":0,
			"target":34962
		},
		{
			"buffer":0,
			"byteLength":44064,
			"byteOffset":44064,
			"target":34962
		},
		{
			"buffer":0,
			"byteLength":29376,
			"byteOffset":88128,
			"target":34962
		},
		{
			"buffer":0,
			"byteLength":7356,
			"byteOffset":117504,
			"target":34963
		}
	],
	"samplers":[
		{
			"magFilter":9729,
			"minFilter":9987
		}
	],
	"buffers":[
		{
			"byteLength":124860,
			"uri":"pass_arch.bin"
		}
	]
}
