{
	"asset":{
		"generator":"Khronos glTF Blender I/O v5.1.20",
		"version":"2.0"
	},
	"scene":0,
	"scenes":[
		{
			"name":"Scene",
			"nodes":[
				0
			]
		}
	],
	"nodes":[
		{
			"mesh":0,
			"name":"pass_ledge"
		}
	],
	"materials":[
		{
			"doubleSided":true,
			"name":"pass_pass_ledge",
			"pbrMetallicRoughness":{
				"baseColorTexture":{
					"index":0
				},
				"metallicFactor":0,
				"roughnessFactor":0.8999999761581421
			}
		}
	],
	"meshes":[
		{
			"name":"Mesh",
			"primitives":[
				{
					"attributes":{
						"POSITION":0,
						"NORMAL":1,
						"TEXCOORD_0":2
					},
					"indices":3,
					"material":0
				}
			]
		}
	],
	"textures":[
		{
			"sampler":0,
			"source":0
		}
	],
	"images":[
		{
			"mimeType":"image/png",
			"name":"pass_pass_ledge",
			"uri":"pass_pass_ledge.png"
		}
	],
	"accessors":[
		{
			"bufferView":0,
			"componentType":5126,
			"count":1261,
			"max":[
				4.949836730957031,
				1.3695251941680908,
				0.8069860935211182
			],
			"min":[
				-4.949836730957031,
				0,
				-0.8069860935211182
			],
			"type":"VEC3"
		},
		{
			"bufferView":1,
			"componentType":5126,
			"count":1261,
			"type":"VEC3"
		},
		{
			"bufferView":2,
			"componentType":5126,
			"count":1261,
			"type":"VEC2"
		},
		{
			"bufferView":3,
			"componentType":5123,
			"count":1440,
			"type":"SCALAR"
		}
	],
	"bufferViews":[
		{
			"buffer":0,
			"byteLength":15132,
			"byteOffset":0,
			"target":34962
		},
		{
			"buffer":0,
			"byteLength":15132,
			"byteOffset":15132,
			"target":34962
		},
		{
			"buffer":0,
			"byteLength":10088,
			"byteOffset":30264,
			"target":34962
		},
		{
			"buffer":0,
			"byteLength":2880,
			"byteOffset":40352,
			"target":34963
		}
	],
	"samplers":[
		{
			"magFilter":9729,
			"minFilter":9987
		}
	],
	"buffers":[
		{
			"byteLength":43232,
			"uri":"pass_ledge.bin"
		}
	]
}
