{
	"asset":{
		"generator":"Khronos glTF Blender I/O v5.1.20",
		"version":"2.0"
	},
	"scene":0,
	"scenes":[
		{
			"name":"Scene",
			"nodes":[
				0
			]
		}
	],
	"nodes":[
		{
			"mesh":0,
			"name":"pass_rock"
		}
	],
	"materials":[
		{
			"doubleSided":true,
			"name":"pass_pass_rock",
			"pbrMetallicRoughness":{
				"baseColorTexture":{
					"index":0
				},
				"metallicFactor":0,
				"roughnessFactor":0.8999999761581421
			}
		}
	],
	"meshes":[
		{
			"name":"Mesh",
			"primitives":[
				{
					"attributes":{
						"POSITION":0,
						"NORMAL":1,
						"TEXCOORD_0":2
					},
					"indices":3,
					"material":0
				}
			]
		}
	],
	"textures":[
		{
			"sampler":0,
			"source":0
		}
	],
	"images":[
		{
			"mimeType":"image/png",
			"name":"pass_pass_rock",
			"uri":"pass_pass_rock.png"
		}
	],
	"accessors":[
		{
			"bufferView":0,
			"componentType":5126,
			"count":1728,
			"max":[
				1.432226538658142,
				1.179782748222351,
				0.9576374292373657
			],
			"min":[
				-1.432226538658142,
				0,
				-0.9576374292373657
			],
			"type":"VEC3"
		},
		{
			"bufferView":1,
			"componentType":5126,
			"count":1728,
			"type":"VEC3"
		},
		{
			"bufferView":2,
			"componentType":5126,
			"count":1728,
			"type":"VEC2"
		},
		{
			"bufferView":3,
			"componentType":5123,
			"count":1728,
			"type":"SCALAR"
		}
	],
	"bufferViews":[
		{
			"buffer":0,
			"byteLength":20736,
			"byteOffset":0,
			"target":34962
		},
		{
			"buffer":0,
			"byteLength":20736,
			"byteOffset":20736,
			"target":34962
		},
		{
			"buffer":0,
			"byteLength":13824,
			"byteOffset":41472,
			"target":34962
		},
		{
			"buffer":0,
			"byteLength":3456,
			"byteOffset":55296,
			"target":34963
		}
	],
	"samplers":[
		{
			"magFilter":9729,
			"minFilter":9987
		}
	],
	"buffers":[
		{
			"byteLength":58752,
			"uri":"pass_rock.bin"
		}
	]
}
