{
	"asset":{
		"generator":"Khronos glTF Blender I/O v5.1.20",
		"version":"2.0"
	},
	"scene":0,
	"scenes":[
		{
			"name":"Scene",
			"nodes":[
				0
			]
		}
	],
	"nodes":[
		{
			"mesh":0,
			"name":"pass_wall_d"
		}
	],
	"materials":[
		{
			"doubleSided":true,
			"name":"pass_pass_wall_d",
			"pbrMetallicRoughness":{
				"baseColorTexture":{
					"index":0
				},
				"metallicFactor":0,
				"roughnessFactor":0.8999999761581421
			}
		}
	],
	"meshes":[
		{
			"name":"Mesh",
			"primitives":[
				{
					"attributes":{
						"POSITION":0,
						"NORMAL":1,
						"TEXCOORD_0":2
					},
					"indices":3,
					"material":0
				}
			]
		}
	],
	"textures":[
		{
			"sampler":0,
			"source":0
		}
	],
	"images":[
		{
			"mimeType":"image/png",
			"name":"pass_pass_wall_d",
			"uri":"pass_pass_wall_d.png"
		}
	],
	"accessors":[
		{
			"bufferView":0,
			"componentType":5126,
			"count":7223,
			"max":[
				5.388151168823242,
				7.250614166259766,
				0.316118061542511
			],
			"min":[
				-5.388151168823242,
				0,
				-2.216118097305298
			],
			"type":"VEC3"
		},
		{
			"bufferView":1,
			"componentType":5126,
			"count":7223,
			"type":"VEC3"
		},
		{
			"bufferView":2,
			"componentType":5126,
			"count":7223,
			"type":"VEC2"
		},
		{
			"bufferView":3,
			"componentType":5123,
			"count":7227,
			"type":"SCALAR"
		}
	],
	"bufferViews":[
		{
			"buffer":0,
			"byteLength":86676,
			"byteOffset":0,
			"target":34962
		},
		{
			"buffer":0,
			"byteLength":86676,
			"byteOffset":86676,
			"target":34962
		},
		{
			"buffer":0,
			"byteLength":57784,
			"byteOffset":173352,
			"target":34962
		},
		{
			"buffer":0,
			"byteLength":14454,
			"byteOffset":231136,
			"target":34963
		}
	],
	"samplers":[
		{
			"magFilter":9729,
			"minFilter":9987
		}
	],
	"buffers":[
		{
			"byteLength":245592,
			"uri":"pass_wall_d.bin"
		}
	]
}
