{"asset":{"generator":"Khronos glTF Blender I/O v5.1.20","version":"2.0"},"scene":0,"scenes":[{"name":"Scene","nodes":[0]}],"nodes":[{"mesh":0,"name":"pass_pine"}],"materials":[{"alphaMode":"MASK","doubleSided":true,"name":"pass_leaf_pine_cluster_01_vibrant","pbrMetallicRoughness":{"baseColorTexture":{"index":0},"metallicFactor":0,"roughnessFactor":0.949999988079071},"alphaCutoff":0.45},{"doubleSided":true,"name":"pass_mat","pbrMetallicRoughness":{"baseColorTexture":{"index":1},"metallicFactor":0,"roughnessFactor":0.8999999761581421}}],"meshes":[{"name":"Mesh.001","primitives":[{"attributes":{"POSITION":0,"NORMAL":1,"TEXCOORD_0":2,"COLOR_0":3,"COLOR_1":4},"indices":5,"material":0},{"attributes":{"POSITION":6,"NORMAL":7,"TEXCOORD_0":8,"COLOR_0":9,"COLOR_1":10},"indices":11,"material":1}]}],"textures":[{"sampler":0,"source":0},{"sampler":0,"source":1}],"images":[{"mimeType":"image/png","name":"pass_leaf_pine_cluster_01_vibrant","uri":"pass_leaf_pine_cluster_01_vibrant.png"},{"mimeType":"image/png","name":"PolygonNatureBiomesS2_Alpine_Texture_01","uri":"PolygonNatureBiomesS2_Alpine_Texture_01.png"}],"accessors":[{"bufferView":0,"componentType":5126,"count":705,"max":[2.310326099395752,12.513531684875488,1.8323744535446167],"min":[-2.310326099395752,6.243348121643066,-1.8323744535446167],"type":"VEC3"},{"bufferView":1,"componentType":5126,"count":705,"type":"VEC3"},{"bufferView":2,"componentType":5126,"count":705,"type":"VEC2"},{"bufferView":3,"componentType":5121,"count":705,"normalized":true,"type":"VEC4"},{"bufferView":4,"componentType":5123,"count":705,"normalized":true,"type":"VEC4"},{"bufferView":5,"componentType":5123,"count":1122,"type":"SCALAR"},{"bufferView":6,"componentType":5126,"count":2490,"max":[2.0925865173339844,12.24342155456543,1.8276697397232056],"min":[-1.9801734685897827,0,-1.4925788640975952],"type":"VEC3"},{"bufferView":7,"componentType":5126,"count":2490,"type":"VEC3"},{"bufferView":8,"componentType":5126,"count":2490,"type":"VEC2"},{"bufferView":9,"componentType":5121,"count":2490,"normalized":true,"type":"VEC4"},{"bufferView":10,"componentType":5123,"count":2490,"normalized":true,"type":"VEC4"},{"bufferView":11,"componentType":5123,"count":3195,"type":"SCALAR"}],"bufferViews":[{"buffer":0,"byteLength":8460,"byteOffset":0,"target":34962},{"buffer":0,"byteLength":8460,"byteOffset":8460,"target":34962},{"buffer":0,"byteLength":5640,"byteOffset":16920,"target":34962},{"buffer":0,"byteLength":2820,"byteOffset":22560,"target":34962},{"buffer":0,"byteLength":5640,"byteOffset":25380,"target":34962},{"buffer":0,"byteLength":2244,"byteOffset":31020,"target":34963},{"buffer":0,"byteLength":29880,"byteOffset":33264,"target":34962},{"buffer":0,"byteLength":29880,"byteOffset":63144,"target":34962},{"buffer":0,"byteLength":19920,"byteOffset":93024,"target":34962},{"buffer":0,"byteLength":9960,"byteOffset":112944,"target":34962},{"buffer":0,"byteLength":19920,"byteOffset":122904,"target":34962},{"buffer":0,"byteLength":6390,"byteOffset":142824,"target":34963}],"samplers":[{"magFilter":9729,"minFilter":9987}],"buffers":[{"byteLength":149216,"uri":"pass_pine.bin"}]}