{
	"asset":{
		"generator":"Khronos glTF Blender I/O v5.1.20",
		"version":"2.0"
	},
	"scene":0,
	"scenes":[
		{
			"name":"Scene",
			"nodes":[
				0
			]
		}
	],
	"nodes":[
		{
			"mesh":0,
			"name":"pass_wall_b"
		}
	],
	"materials":[
		{
			"doubleSided":true,
			"name":"pass_pass_wall_b",
			"pbrMetallicRoughness":{
				"baseColorTexture":{
					"index":0
				},
				"metallicFactor":0,
				"roughnessFactor":0.8999999761581421
			}
		}
	],
	"meshes":[
		{
			"name":"Mesh",
			"primitives":[
				{
					"attributes":{
						"POSITION":0,
						"NORMAL":1,
						"TEXCOORD_0":2
					},
					"indices":3,
					"material":0
				}
			]
		}
	],
	"textures":[
		{
			"sampler":0,
			"source":0
		}
	],
	"images":[
		{
			"mimeType":"image/png",
			"name":"pass_pass_wall_b",
			"uri":"pass_pass_wall_b.png"
		}
	],
	"accessors":[
		{
			"bufferView":0,
			"componentType":5126,
			"count":6036,
			"max":[
				5.353967666625977,
				7.219168663024902,
				0.3424740433692932
			],
			"min":[
				-5.353967666625977,
				0,
				-2.24247407913208
			],
			"type":"VEC3"
		},
		{
			"bufferView":1,
			"componentType":5126,
			"count":6036,
			"type":"VEC3"
		},
		{
			"bufferView":2,
			"componentType":5126,
			"count":6036,
			"type":"VEC2"
		},
		{
			"bufferView":3,
			"componentType":5123,
			"count":6036,
			"type":"SCALAR"
		}
	],
	"bufferViews":[
		{
			"buffer":0,
			"byteLength":72432,
			"byteOffset":0,
			"target":34962
		},
		{
			"buffer":0,
			"byteLength":72432,
			"byteOffset":72432,
			"target":34962
		},
		{
			"buffer":0,
			"byteLength":48288,
			"byteOffset":144864,
			"target":34962
		},
		{
			"buffer":0,
			"byteLength":12072,
			"byteOffset":193152,
			"target":34963
		}
	],
	"samplers":[
		{
			"magFilter":9729,
			"minFilter":9987
		}
	],
	"buffers":[
		{
			"byteLength":205224,
			"uri":"pass_wall_b.bin"
		}
	]
}
