{
	"asset":{
		"generator":"Khronos glTF Blender I/O v5.1.20",
		"version":"2.0"
	},
	"scene":0,
	"scenes":[
		{
			"name":"Scene",
			"nodes":[
				0
			]
		}
	],
	"nodes":[
		{
			"mesh":0,
			"name":"pass_boulder"
		}
	],
	"materials":[
		{
			"doubleSided":true,
			"name":"pass_pass_boulder",
			"pbrMetallicRoughness":{
				"baseColorTexture":{
					"index":0
				},
				"metallicFactor":0,
				"roughnessFactor":0.8999999761581421
			}
		}
	],
	"meshes":[
		{
			"name":"Mesh",
			"primitives":[
				{
					"attributes":{
						"POSITION":0,
						"NORMAL":1,
						"TEXCOORD_0":2
					},
					"indices":3,
					"material":0
				}
			]
		}
	],
	"textures":[
		{
			"sampler":0,
			"source":0
		}
	],
	"images":[
		{
			"mimeType":"image/png",
			"name":"pass_pass_boulder",
			"uri":"pass_pass_boulder.png"
		}
	],
	"accessors":[
		{
			"bufferView":0,
			"componentType":5126,
			"count":2358,
			"max":[
				1.5517005920410156,
				1.1646829843521118,
				0.707613468170166
			],
			"min":[
				-1.5517005920410156,
				0,
				-0.707613468170166
			],
			"type":"VEC3"
		},
		{
			"bufferView":1,
			"componentType":5126,
			"count":2358,
			"type":"VEC3"
		},
		{
			"bufferView":2,
			"componentType":5126,
			"count":2358,
			"type":"VEC2"
		},
		{
			"bufferView":3,
			"componentType":5123,
			"count":2358,
			"type":"SCALAR"
		}
	],
	"bufferViews":[
		{
			"buffer":0,
			"byteLength":28296,
			"byteOffset":0,
			"target":34962
		},
		{
			"buffer":0,
			"byteLength":28296,
			"byteOffset":28296,
			"target":34962
		},
		{
			"buffer":0,
			"byteLength":18864,
			"byteOffset":56592,
			"target":34962
		},
		{
			"buffer":0,
			"byteLength":4716,
			"byteOffset":75456,
			"target":34963
		}
	],
	"samplers":[
		{
			"magFilter":9729,
			"minFilter":9987
		}
	],
	"buffers":[
		{
			"byteLength":80172,
			"uri":"pass_boulder.bin"
		}
	]
}
