{
	"asset":{
		"generator":"Khronos glTF Blender I/O v5.1.20",
		"version":"2.0"
	},
	"scene":0,
	"scenes":[
		{
			"name":"Scene",
			"nodes":[
				0
			]
		}
	],
	"nodes":[
		{
			"mesh":0,
			"name":"pass_wall_e"
		}
	],
	"materials":[
		{
			"doubleSided":true,
			"name":"pass_pass_wall_e",
			"pbrMetallicRoughness":{
				"baseColorTexture":{
					"index":0
				},
				"metallicFactor":0,
				"roughnessFactor":0.8999999761581421
			}
		}
	],
	"meshes":[
		{
			"name":"Mesh",
			"primitives":[
				{
					"attributes":{
						"POSITION":0,
						"NORMAL":1,
						"TEXCOORD_0":2
					},
					"indices":3,
					"material":0
				}
			]
		}
	],
	"textures":[
		{
			"sampler":0,
			"source":0
		}
	],
	"images":[
		{
			"mimeType":"image/png",
			"name":"pass_pass_wall_e",
			"uri":"pass_pass_wall_e.png"
		}
	],
	"accessors":[
		{
			"bufferView":0,
			"componentType":5126,
			"count":5122,
			"max":[
				5.467464923858643,
				7.152324676513672,
				0.29716354608535767
			],
			"min":[
				-5.467464923858643,
				0,
				-2.1971635818481445
			],
			"type":"VEC3"
		},
		{
			"bufferView":1,
			"componentType":5126,
			"count":5122,
			"type":"VEC3"
		},
		{
			"bufferView":2,
			"componentType":5126,
			"count":5122,
			"type":"VEC2"
		},
		{
			"bufferView":3,
			"componentType":5123,
			"count":5130,
			"type":"SCALAR"
		}
	],
	"bufferViews":[
		{
			"buffer":0,
			"byteLength":61464,
			"byteOffset":0,
			"target":34962
		},
		{
			"buffer":0,
			"byteLength":61464,
			"byteOffset":61464,
			"target":34962
		},
		{
			"buffer":0,
			"byteLength":40976,
			"byteOffset":122928,
			"target":34962
		},
		{
			"buffer":0,
			"byteLength":10260,
			"byteOffset":163904,
			"target":34963
		}
	],
	"samplers":[
		{
			"magFilter":9729,
			"minFilter":9987
		}
	],
	"buffers":[
		{
			"byteLength":174164,
			"uri":"pass_wall_e.bin"
		}
	]
}
