{
	"asset":{
		"generator":"Khronos glTF Blender I/O v5.1.20",
		"version":"2.0"
	},
	"scene":0,
	"scenes":[
		{
			"name":"Scene",
			"nodes":[
				0
			]
		}
	],
	"nodes":[
		{
			"mesh":0,
			"name":"pass_wall_c"
		}
	],
	"materials":[
		{
			"doubleSided":true,
			"name":"pass_pass_wall_c",
			"pbrMetallicRoughness":{
				"baseColorTexture":{
					"index":0
				},
				"metallicFactor":0,
				"roughnessFactor":0.8999999761581421
			}
		}
	],
	"meshes":[
		{
			"name":"Mesh",
			"primitives":[
				{
					"attributes":{
						"POSITION":0,
						"NORMAL":1,
						"TEXCOORD_0":2
					},
					"indices":3,
					"material":0
				}
			]
		}
	],
	"textures":[
		{
			"sampler":0,
			"source":0
		}
	],
	"images":[
		{
			"mimeType":"image/png",
			"name":"pass_pass_wall_c",
			"uri":"pass_pass_wall_c.png"
		}
	],
	"accessors":[
		{
			"bufferView":0,
			"componentType":5126,
			"count":6401,
			"max":[
				5.457198143005371,
				7.1586689949035645,
				0.3298324942588806
			],
			"min":[
				-5.457198143005371,
				0,
				-2.229832410812378
			],
			"type":"VEC3"
		},
		{
			"bufferView":1,
			"componentType":5126,
			"count":6401,
			"type":"VEC3"
		},
		{
			"bufferView":2,
			"componentType":5126,
			"count":6401,
			"type":"VEC2"
		},
		{
			"bufferView":3,
			"componentType":5123,
			"count":7452,
			"type":"SCALAR"
		}
	],
	"bufferViews":[
		{
			"buffer":0,
			"byteLength":76812,
			"byteOffset":0,
			"target":34962
		},
		{
			"buffer":0,
			"byteLength":76812,
			"byteOffset":76812,
			"target":34962
		},
		{
			"buffer":0,
			"byteLength":51208,
			"byteOffset":153624,
			"target":34962
		},
		{
			"buffer":0,
			"byteLength":14904,
			"byteOffset":204832,
			"target":34963
		}
	],
	"samplers":[
		{
			"magFilter":9729,
			"minFilter":9987
		}
	],
	"buffers":[
		{
			"byteLength":219736,
			"uri":"pass_wall_c.bin"
		}
	]
}
