{
	"asset":{
		"generator":"Khronos glTF Blender I/O v5.1.20",
		"version":"2.0"
	},
	"scene":0,
	"scenes":[
		{
			"name":"Scene",
			"nodes":[
				0
			]
		}
	],
	"nodes":[
		{
			"mesh":0,
			"name":"pass_pine_dead"
		}
	],
	"materials":[
		{
			"doubleSided":true,
			"name":"pass_mat",
			"pbrMetallicRoughness":{
				"baseColorTexture":{
					"index":0
				},
				"metallicFactor":0,
				"roughnessFactor":0.8999999761581421
			}
		}
	],
	"meshes":[
		{
			"name":"Mesh.001",
			"primitives":[
				{
					"attributes":{
						"POSITION":0,
						"NORMAL":1,
						"TEXCOORD_0":2,
						"COLOR_0":3,
						"COLOR_1":4
					},
					"indices":5,
					"material":0
				}
			]
		}
	],
	"textures":[
		{
			"sampler":0,
			"source":0
		}
	],
	"images":[
		{
			"mimeType":"image/png",
			"name":"PolygonNatureBiomesS2_Alpine_Texture_01",
			"uri":"PolygonNatureBiomesS2_Alpine_Texture_01.png"
		}
	],
	"accessors":[
		{
			"bufferView":0,
			"componentType":5126,
			"count":2300,
			"max":[
				1.6291040182113647,
				9.794737815856934,
				1.3280994892120361
			],
			"min":[
				-1.6291040182113647,
				0,
				-1.3280994892120361
			],
			"type":"VEC3"
		},
		{
			"bufferView":1,
			"componentType":5126,
			"count":2300,
			"type":"VEC3"
		},
		{
			"bufferView":2,
			"componentType":5126,
			"count":2300,
			"type":"VEC2"
		},
		{
			"bufferView":3,
			"componentType":5121,
			"count":2300,
			"normalized":true,
			"type":"VEC4"
		},
		{
			"bufferView":4,
			"componentType":5123,
			"count":2300,
			"normalized":true,
			"type":"VEC4"
		},
		{
			"bufferView":5,
			"componentType":5123,
			"count":3195,
			"type":"SCALAR"
		}
	],
	"bufferViews":[
		{
			"buffer":0,
			"byteLength":27600,
			"byteOffset":0,
			"target":34962
		},
		{
			"buffer":0,
			"byteLength":27600,
			"byteOffset":27600,
			"target":34962
		},
		{
			"buffer":0,
			"byteLength":18400,
			"byteOffset":55200,
			"target":34962
		},
		{
			"buffer":0,
			"byteLength":9200,
			"byteOffset":73600,
			"target":34962
		},
		{
			"buffer":0,
			"byteLength":18400,
			"byteOffset":82800,
			"target":34962
		},
		{
			"buffer":0,
			"byteLength":6390,
			"byteOffset":101200,
			"target":34963
		}
	],
	"samplers":[
		{
			"magFilter":9729,
			"minFilter":9987
		}
	],
	"buffers":[
		{
			"byteLength":107592,
			"uri":"pass_pine_dead.bin"
		}
	]
}
