{
	"asset":{
		"generator":"Khronos glTF Blender I/O v5.1.20",
		"version":"2.0"
	},
	"scene":0,
	"scenes":[
		{
			"name":"Scene",
			"nodes":[
				0
			]
		}
	],
	"nodes":[
		{
			"mesh":0,
			"name":"ud_bld_techlab"
		}
	],
	"materials":[
		{
			"doubleSided":true,
			"emissiveFactor":[
				1,
				1,
				1
			],
			"emissiveTexture":{
				"index":0
			},
			"name":"undead_mat",
			"pbrMetallicRoughness":{
				"baseColorTexture":{
					"index":1
				},
				"metallicFactor":0,
				"roughnessFactor":0.8999999761581421
			}
		}
	],
	"meshes":[
		{
			"name":"Mesh",
			"primitives":[
				{
					"attributes":{
						"POSITION":0,
						"NORMAL":1,
						"TEXCOORD_0":2
					},
					"indices":3,
					"material":0
				}
			]
		}
	],
	"textures":[
		{
			"sampler":0,
			"source":0
		},
		{
			"sampler":0,
			"source":1
		}
	],
	"images":[
		{
			"mimeType":"image/png",
			"name":"PolygonDarkFantasy_01_A_Emissive",
			"uri":"PolygonDarkFantasy_01_A_Emissive.png"
		},
		{
			"mimeType":"image/png",
			"name":"PolygonDarkFantasy_01_A",
			"uri":"PolygonDarkFantasy_01_A.png"
		}
	],
	"accessors":[
		{
			"bufferView":0,
			"componentType":5126,
			"count":7862,
			"max":[
				2.363969326019287,
				4.846589088439941,
				2.3036932945251465
			],
			"min":[
				-2.363969326019287,
				0,
				-2.3036932945251465
			],
			"type":"VEC3"
		},
		{
			"bufferView":1,
			"componentType":5126,
			"count":7862,
			"type":"VEC3"
		},
		{
			"bufferView":2,
			"componentType":5126,
			"count":7862,
			"type":"VEC2"
		},
		{
			"bufferView":3,
			"componentType":5123,
			"count":8610,
			"type":"SCALAR"
		}
	],
	"bufferViews":[
		{
			"buffer":0,
			"byteLength":94344,
			"byteOffset":0,
			"target":34962
		},
		{
			"buffer":0,
			"byteLength":94344,
			"byteOffset":94344,
			"target":34962
		},
		{
			"buffer":0,
			"byteLength":62896,
			"byteOffset":188688,
			"target":34962
		},
		{
			"buffer":0,
			"byteLength":17220,
			"byteOffset":251584,
			"target":34963
		}
	],
	"samplers":[
		{
			"magFilter":9729,
			"minFilter":9987
		}
	],
	"buffers":[
		{
			"byteLength":268804,
			"uri":"ud_bld_techlab.bin"
		}
	]
}
