{
	"asset":{
		"generator":"Khronos glTF Blender I/O v5.1.20",
		"version":"2.0"
	},
	"scene":0,
	"scenes":[
		{
			"name":"Scene",
			"nodes":[
				0
			]
		}
	],
	"nodes":[
		{
			"mesh":0,
			"name":"ud_bld_siegeyard"
		}
	],
	"materials":[
		{
			"doubleSided":true,
			"emissiveFactor":[
				1,
				1,
				1
			],
			"emissiveTexture":{
				"index":0
			},
			"name":"undead_mat",
			"pbrMetallicRoughness":{
				"baseColorTexture":{
					"index":1
				},
				"metallicFactor":0,
				"roughnessFactor":0.8999999761581421
			}
		}
	],
	"meshes":[
		{
			"name":"Mesh",
			"primitives":[
				{
					"attributes":{
						"POSITION":0,
						"NORMAL":1,
						"TEXCOORD_0":2
					},
					"indices":3,
					"material":0
				}
			]
		}
	],
	"textures":[
		{
			"sampler":0,
			"source":0
		},
		{
			"sampler":0,
			"source":1
		}
	],
	"images":[
		{
			"mimeType":"image/png",
			"name":"PolygonDarkFantasy_01_A_Emissive",
			"uri":"PolygonDarkFantasy_01_A_Emissive.png"
		},
		{
			"mimeType":"image/png",
			"name":"PolygonDarkFantasy_01_A",
			"uri":"PolygonDarkFantasy_01_A.png"
		}
	],
	"accessors":[
		{
			"bufferView":0,
			"componentType":5126,
			"count":1995,
			"max":[
				3.065178632736206,
				4.2927141189575195,
				1.0752326250076294
			],
			"min":[
				-3.065178632736206,
				0,
				-1.0752326250076294
			],
			"type":"VEC3"
		},
		{
			"bufferView":1,
			"componentType":5126,
			"count":1995,
			"type":"VEC3"
		},
		{
			"bufferView":2,
			"componentType":5126,
			"count":1995,
			"type":"VEC2"
		},
		{
			"bufferView":3,
			"componentType":5123,
			"count":3213,
			"type":"SCALAR"
		}
	],
	"bufferViews":[
		{
			"buffer":0,
			"byteLength":23940,
			"byteOffset":0,
			"target":34962
		},
		{
			"buffer":0,
			"byteLength":23940,
			"byteOffset":23940,
			"target":34962
		},
		{
			"buffer":0,
			"byteLength":15960,
			"byteOffset":47880,
			"target":34962
		},
		{
			"buffer":0,
			"byteLength":6426,
			"byteOffset":63840,
			"target":34963
		}
	],
	"samplers":[
		{
			"magFilter":9729,
			"minFilter":9987
		}
	],
	"buffers":[
		{
			"byteLength":70268,
			"uri":"ud_bld_siegeyard.bin"
		}
	]
}
