{
	"asset":{
		"generator":"Khronos glTF Blender I/O v5.1.20",
		"version":"2.0"
	},
	"scene":0,
	"scenes":[
		{
			"name":"Scene",
			"nodes":[
				0
			]
		}
	],
	"nodes":[
		{
			"mesh":0,
			"name":"ud_bld_beacon"
		}
	],
	"materials":[
		{
			"doubleSided":true,
			"emissiveFactor":[
				1,
				1,
				1
			],
			"emissiveTexture":{
				"index":0
			},
			"name":"undead_mat",
			"pbrMetallicRoughness":{
				"baseColorTexture":{
					"index":1
				},
				"metallicFactor":0,
				"roughnessFactor":0.8999999761581421
			}
		}
	],
	"meshes":[
		{
			"name":"Mesh",
			"primitives":[
				{
					"attributes":{
						"POSITION":0,
						"NORMAL":1,
						"TEXCOORD_0":2,
						"TEXCOORD_1":3
					},
					"indices":4,
					"material":0
				}
			]
		}
	],
	"textures":[
		{
			"sampler":0,
			"source":0
		},
		{
			"sampler":0,
			"source":1
		}
	],
	"images":[
		{
			"mimeType":"image/png",
			"name":"PolygonDarkFantasy_01_A_Emissive",
			"uri":"PolygonDarkFantasy_01_A_Emissive.png"
		},
		{
			"mimeType":"image/png",
			"name":"PolygonDarkFantasy_01_A",
			"uri":"PolygonDarkFantasy_01_A.png"
		}
	],
	"accessors":[
		{
			"bufferView":0,
			"componentType":5126,
			"count":17309,
			"max":[
				2.87795352935791,
				2.7019989490509033,
				2.915245294570923
			],
			"min":[
				-2.87795352935791,
				0,
				-2.915245294570923
			],
			"type":"VEC3"
		},
		{
			"bufferView":1,
			"componentType":5126,
			"count":17309,
			"type":"VEC3"
		},
		{
			"bufferView":2,
			"componentType":5126,
			"count":17309,
			"type":"VEC2"
		},
		{
			"bufferView":3,
			"componentType":5126,
			"count":17309,
			"type":"VEC2"
		},
		{
			"bufferView":4,
			"componentType":5123,
			"count":23724,
			"type":"SCALAR"
		}
	],
	"bufferViews":[
		{
			"buffer":0,
			"byteLength":207708,
			"byteOffset":0,
			"target":34962
		},
		{
			"buffer":0,
			"byteLength":207708,
			"byteOffset":207708,
			"target":34962
		},
		{
			"buffer":0,
			"byteLength":138472,
			"byteOffset":415416,
			"target":34962
		},
		{
			"buffer":0,
			"byteLength":138472,
			"byteOffset":553888,
			"target":34962
		},
		{
			"buffer":0,
			"byteLength":47448,
			"byteOffset":692360,
			"target":34963
		}
	],
	"samplers":[
		{
			"magFilter":9729,
			"minFilter":9987
		}
	],
	"buffers":[
		{
			"byteLength":739808,
			"uri":"ud_bld_beacon.bin"
		}
	]
}
