{
	"asset":{
		"generator":"Khronos glTF Blender I/O v5.1.20",
		"version":"2.0"
	},
	"scene":0,
	"scenes":[
		{
			"name":"Scene",
			"nodes":[
				0
			]
		}
	],
	"nodes":[
		{
			"mesh":0,
			"name":"ud_bld_crypt2"
		}
	],
	"materials":[
		{
			"doubleSided":true,
			"emissiveFactor":[
				1,
				1,
				1
			],
			"emissiveTexture":{
				"index":0
			},
			"name":"undead_mat",
			"pbrMetallicRoughness":{
				"baseColorTexture":{
					"index":1
				},
				"metallicFactor":0,
				"roughnessFactor":0.8999999761581421
			}
		},
		{
			"doubleSided":true,
			"name":"undead_tiling_mat",
			"pbrMetallicRoughness":{
				"baseColorTexture":{
					"index":2
				},
				"metallicFactor":0,
				"roughnessFactor":0.8999999761581421
			}
		}
	],
	"meshes":[
		{
			"name":"Mesh",
			"primitives":[
				{
					"attributes":{
						"POSITION":0,
						"NORMAL":1,
						"TEXCOORD_0":2
					},
					"indices":3,
					"material":0
				},
				{
					"attributes":{
						"POSITION":4,
						"NORMAL":5,
						"TEXCOORD_0":6
					},
					"indices":7,
					"material":1
				}
			]
		}
	],
	"textures":[
		{
			"sampler":0,
			"source":0
		},
		{
			"sampler":0,
			"source":1
		},
		{
			"sampler":0,
			"source":2
		}
	],
	"images":[
		{
			"mimeType":"image/png",
			"name":"PolygonDarkFantasy_01_A_Emissive",
			"uri":"PolygonDarkFantasy_01_A_Emissive.png"
		},
		{
			"mimeType":"image/png",
			"name":"PolygonDarkFantasy_01_A",
			"uri":"PolygonDarkFantasy_01_A.png"
		},
		{
			"mimeType":"image/png",
			"name":"Brick_Large_01",
			"uri":"Brick_Large_01.png"
		}
	],
	"accessors":[
		{
			"bufferView":0,
			"componentType":5126,
			"count":12386,
			"max":[
				2.36247181892395,
				6.292182922363281,
				2.5359060764312744
			],
			"min":[
				-2.36247181892395,
				0,
				-2.5359060764312744
			],
			"type":"VEC3"
		},
		{
			"bufferView":1,
			"componentType":5126,
			"count":12386,
			"type":"VEC3"
		},
		{
			"bufferView":2,
			"componentType":5126,
			"count":12386,
			"type":"VEC2"
		},
		{
			"bufferView":3,
			"componentType":5123,
			"count":19272,
			"type":"SCALAR"
		},
		{
			"bufferView":4,
			"componentType":5126,
			"count":24,
			"max":[
				1.8842883110046387,
				4.13535213470459,
				1.7123135328292847
			],
			"min":[
				-1.8946099281311035,
				2.819620132446289,
				-1.7109476327896118
			],
			"type":"VEC3"
		},
		{
			"bufferView":5,
			"componentType":5126,
			"count":24,
			"type":"VEC3"
		},
		{
			"bufferView":6,
			"componentType":5126,
			"count":24,
			"type":"VEC2"
		},
		{
			"bufferView":7,
			"componentType":5123,
			"count":48,
			"type":"SCALAR"
		}
	],
	"bufferViews":[
		{
			"buffer":0,
			"byteLength":148632,
			"byteOffset":0,
			"target":34962
		},
		{
			"buffer":0,
			"byteLength":148632,
			"byteOffset":148632,
			"target":34962
		},
		{
			"buffer":0,
			"byteLength":99088,
			"byteOffset":297264,
			"target":34962
		},
		{
			"buffer":0,
			"byteLength":38544,
			"byteOffset":396352,
			"target":34963
		},
		{
			"buffer":0,
			"byteLength":288,
			"byteOffset":434896,
			"target":34962
		},
		{
			"buffer":0,
			"byteLength":288,
			"byteOffset":435184,
			"target":34962
		},
		{
			"buffer":0,
			"byteLength":192,
			"byteOffset":435472,
			"target":34962
		},
		{
			"buffer":0,
			"byteLength":96,
			"byteOffset":435664,
			"target":34963
		}
	],
	"samplers":[
		{
			"magFilter":9729,
			"minFilter":9987
		}
	],
	"buffers":[
		{
			"byteLength":435760,
			"uri":"ud_bld_crypt2.bin"
		}
	]
}
