{
	"asset":{
		"generator":"Khronos glTF Blender I/O v5.1.20",
		"version":"2.0"
	},
	"scene":0,
	"scenes":[
		{
			"name":"Scene",
			"nodes":[
				0
			]
		}
	],
	"nodes":[
		{
			"mesh":0,
			"name":"ud_bld_turret"
		}
	],
	"materials":[
		{
			"doubleSided":true,
			"emissiveFactor":[
				1,
				1,
				1
			],
			"emissiveTexture":{
				"index":0
			},
			"name":"undead_mat",
			"pbrMetallicRoughness":{
				"baseColorTexture":{
					"index":1
				},
				"metallicFactor":0,
				"roughnessFactor":0.8999999761581421
			}
		}
	],
	"meshes":[
		{
			"name":"Mesh",
			"primitives":[
				{
					"attributes":{
						"POSITION":0,
						"NORMAL":1,
						"TEXCOORD_0":2
					},
					"indices":3,
					"material":0
				}
			]
		}
	],
	"textures":[
		{
			"sampler":0,
			"source":0
		},
		{
			"sampler":0,
			"source":1
		}
	],
	"images":[
		{
			"mimeType":"image/png",
			"name":"PolygonDarkFantasy_01_A_Emissive",
			"uri":"PolygonDarkFantasy_01_A_Emissive.png"
		},
		{
			"mimeType":"image/png",
			"name":"PolygonDarkFantasy_01_A",
			"uri":"PolygonDarkFantasy_01_A.png"
		}
	],
	"accessors":[
		{
			"bufferView":0,
			"componentType":5126,
			"count":17420,
			"max":[
				1.2246308326721191,
				1.6326930522918701,
				0.5437402129173279
			],
			"min":[
				-1.2246308326721191,
				0,
				-0.5437402129173279
			],
			"type":"VEC3"
		},
		{
			"bufferView":1,
			"componentType":5126,
			"count":17420,
			"type":"VEC3"
		},
		{
			"bufferView":2,
			"componentType":5126,
			"count":17420,
			"type":"VEC2"
		},
		{
			"bufferView":3,
			"componentType":5123,
			"count":18066,
			"type":"SCALAR"
		}
	],
	"bufferViews":[
		{
			"buffer":0,
			"byteLength":209040,
			"byteOffset":0,
			"target":34962
		},
		{
			"buffer":0,
			"byteLength":209040,
			"byteOffset":209040,
			"target":34962
		},
		{
			"buffer":0,
			"byteLength":139360,
			"byteOffset":418080,
			"target":34962
		},
		{
			"buffer":0,
			"byteLength":36132,
			"byteOffset":557440,
			"target":34963
		}
	],
	"samplers":[
		{
			"magFilter":9729,
			"minFilter":9987
		}
	],
	"buffers":[
		{
			"byteLength":593572,
			"uri":"ud_bld_turret.bin"
		}
	]
}
